
<svg xmlns="http://www.w3.org/2000/svg" version="1.1" xmlns:xlink="http://www.w3.org/1999/xlink" preserveAspectRatio="none" x="0px" y="0px" width="267px" height="86px" viewBox="0 0 267 86">
<defs>
<linearGradient id="Gradient_1" gradientUnits="userSpaceOnUse" x1="302" y1="602" x2="302" y2="2" spreadMethod="pad">
<stop  offset="0%" stop-color="#A7A7FF"/>

<stop  offset="49.80392156862745%" stop-color="#8180FF"/>

<stop  offset="100%" stop-color="#5959FF"/>
</linearGradient>

<g id="Layer9_0_FILL">
<path fill="#313338" stroke="none" d="
M 311.3 -5.9
L -6.25 -5.9 -6.25 91.95 311.3 91.95 311.3 -5.9 Z"/>
</g>

<g id="Mask_7_MASK_0_FILL">
<path fill="#FFFFFF" stroke="none" d="
M 26.05 34.45
Q 18.75 34.45 13.6 39.55 8.6 44.7 8.6 51.9 8.6 59.2 13.6 64.25 18.75 69.3 26.05 69.3 33.25 69.3 38.35 64.25 43.5 59.2 43.5 51.9 43.5 44.7 38.35 39.55 33.25 34.45 26.05 34.45 Z"/>
</g>

<g id="Mask_mipper_svg_Layer_1__Clip_Group__0_2_MASK_0_FILL">
<path fill="#FFFFFF" stroke="none" d="
M 766.3 -103.2
Q 766.3 -111.2 758.3 -111.2
L -144.5 -111.2
Q -152.5 -111.2 -152.5 -103.2
L -152.5 799.6
Q -152.5 807.6 -144.5 807.6
L 758.3 807.6
Q 766.3 807.6 766.3 799.6
L 766.3 -103.2 Z"/>
</g>

<g id="mipper_svg_Layer_1__Clip_Group__0_Layer2_0_MEMBER_0_MEMBER_0_MEMBER_0_MEMBER_0_FILL">
<path fill="url(#Gradient_1)" stroke="none" d="
M 602 602
L 602 2 2 2 2 602 602 602 Z"/>
</g>

<g id="mipper_0_Layer0_1_MEMBER_0_MEMBER_0_MEMBER_0_MEMBER_0_MEMBER_0_FILL">
<path fill="#000000" stroke="none" d="
M 192.25 226.2
Q 178.05 226.2 167.95 236.2 157.95 246.35 157.95 260.5 157.95 274.65 167.95 284.7 178.05 294.8 192.25 294.8 206.5 294.8 216.45 284.7 226.6 274.65 226.6 260.5 226.6 246.35 216.45 236.2 206.55 226.2 192.25 226.2
M 334.75 290.8
Q 332.7 287.25 328.05 284.1
L 319.55 284.1
Q 313.35 289.8 313.4 303.05 309.2 308.55 304.45 309.9
L 293 309.9
Q 287.1 297.75 282.7 284.25 276.9 275.85 273.3 287.5 269.7 299.4 274.35 310.65 279.1 322 288.35 327.5
L 310.15 327.5
Q 313.85 327.85 320.6 323.9 327.35 319.95 334.75 304.95
L 334.75 290.8
M 432.2 232
Q 420.8 217.7 405.8 217.4 390.6 217.1 380.55 231.1 370.4 245.15 372.65 259.9 374.75 274.7 384.75 284.7 394.85 294.8 409.05 294.8 423.25 294.8 433.25 284.7 443.35 274.7 443.35 260.5 443.35 246.3 432.2 232 Z"/>
</g>

<g id="mipper_0_Layer0_1_MEMBER_1_MEMBER_0_MEMBER_0_MEMBER_0_MEMBER_0_MEMBER_0_FILL">
<path fill="#FFFFFF" stroke="none" d="
M 198.4 236.05
Q 192.65 236.05 188.55 240.05 184.5 244.1 184.5 249.9 184.5 255.8 188.55 259.75 192.6 263.8 198.4 263.8 204.2 263.8 208.25 259.75 212.25 255.75 212.25 249.9 212.25 244.15 208.25 240.05 204.2 236.05 198.4 236.05 Z"/>
</g>

<g id="mipper_0_Layer0_1_MEMBER_1_MEMBER_1_MEMBER_0_MEMBER_0_MEMBER_0_MEMBER_0_FILL">
<path fill="#FFFFFF" stroke="none" d="
M 426.35 245.15
Q 426.35 239.4 422.35 235.3 418.3 231.25 412.5 231.25 406.7 231.25 402.65 235.3 398.6 239.35 398.6 245.15 398.6 250.95 402.65 255 406.75 259 412.5 259 418.3 259 422.35 255 426.35 250.95 426.35 245.15 Z"/>
</g>

<g id="Layer5_0_FILL">
<path fill="#F2F3F5" stroke="none" d="
M 73.3 39.8
L 71.75 39.8 71.75 46.4 73.3 46.4 73.3 39.8
M 72.55 36.65
Q 72.1 36.65 71.85 36.9 71.6 37.15 71.6 37.6 71.6 38 71.85 38.25 72.1 38.55 72.55 38.55 72.95 38.55 73.25 38.25 73.5 38 73.5 37.6 73.5 37.15 73.25 36.9 72.95 36.65 72.55 36.65
M 60.6 36.75
L 59.5 46.4 61.15 46.4 61.95 38.7 63.95 44.95 65.7 44.95 67.7 38.7 68.5 46.4 70.15 46.4 69.05 36.75 66.8 36.75 64.85 43.05 62.95 36.75 60.6 36.75
M 99.65 40.75
L 99.5 39.8 98.1 39.8 98.1 46.4 99.65 46.4 99.65 42.2
Q 99.95 41.65 100.35 41.35 100.75 41.05 101.25 41.05 101.75 41.05 102.2 41.2
L 102.2 39.75
Q 101.95 39.65 101.5 39.65 100.8 39.65 100.4 39.9 99.95 40.2 99.65 40.75
M 81.45 43.1
Q 81.45 42 81.05 41.2 80.7 40.45 80 40.05 79.35 39.65 78.6 39.65 77.95 39.65 77.45 39.85 77 40.1 76.65 40.55
L 76.55 39.8 75.2 39.8 75.2 49.05 76.75 49.05 76.75 45.9
Q 77.45 46.6 78.6 46.6 79.35 46.6 80 46.2 80.7 45.8 81.05 45 81.45 44.2 81.45 43.1
M 76.75 41.75
Q 77.35 40.95 78.2 40.95 78.9 40.95 79.4 41.5 79.9 42.05 79.9 43.1 79.9 44.15 79.4 44.7 78.9 45.3 78.2 45.3 77.3 45.3 76.75 44.5
L 76.75 41.75
M 90.85 41.25
Q 90.45 42.05 90.45 43.1 90.45 44.2 90.85 44.95 91.25 45.75 92 46.15 92.8 46.6 93.8 46.6 94.7 46.6 95.35 46.3 95.95 46 96.45 45.45
L 95.55 44.5
Q 95.2 44.9 94.8 45.1 94.4 45.35 93.85 45.35 93.05 45.35 92.55 44.85 92.1 44.35 91.95 43.5
L 96.55 43.5
Q 96.6 43.15 96.6 42.95 96.6 41.45 95.8 40.55 95.05 39.65 93.6 39.65 92.7 39.65 92 40.05 91.3 40.45 90.85 41.25
M 92 42.4
Q 92.1 41.65 92.55 41.25 92.95 40.85 93.6 40.85 94.3 40.85 94.7 41.25 95.15 41.65 95.2 42.4
L 92 42.4
M 87.8 40.05
Q 87.15 39.65 86.4 39.65 85.75 39.65 85.25 39.85 84.8 40.1 84.45 40.55
L 84.35 39.8 83 39.8 83 49.05 84.55 49.05 84.55 45.9
Q 85.25 46.6 86.4 46.6 87.15 46.6 87.8 46.2 88.5 45.8 88.85 45 89.25 44.2 89.25 43.1 89.25 42 88.85 41.2 88.5 40.45 87.8 40.05
M 87.2 41.5
Q 87.7 42.05 87.7 43.1 87.7 44.15 87.2 44.7 86.7 45.3 86 45.3 85.1 45.3 84.55 44.5
L 84.55 41.75
Q 85.15 40.95 86 40.95 86.7 40.95 87.2 41.5 Z"/>
</g>

<g id="_______1_0_Layer1_0_FILL">
<path fill="#5865F2" stroke="none" d="
M 12.1 -4.65
Q 12.1 -6.65 10.1 -6.65
L -10.1 -6.65
Q -12.1 -6.65 -12.1 -4.65
L -12.1 4.65
Q -12.1 6.65 -10.1 6.65
L 10.1 6.65
Q 12.1 6.65 12.1 4.65
L 12.1 -4.65 Z"/>
</g>

<g id="bot_tag_text_0_Layer0_0_FILL">
<path fill="#FFFFFF" stroke="none" d="
M 3.8 0.55
Q 3.35 0.15 2.6 0.15
L 0 0.15 0 6.35 2.5 6.35
Q 3.45 6.35 4 5.95 4.5 5.5 4.5 4.65 4.5 3.4 3.35 3.1 3.75 2.95 4 2.6 4.25 2.25 4.25 1.7 4.25 1 3.8 0.55
M 2.95 1.25
Q 3.2 1.45 3.2 1.9 3.2 2.7 2.25 2.7
L 1.05 2.7 1.05 1.05 2.25 1.05
Q 2.7 1.05 2.95 1.25
M 2.4 5.45
L 1.05 5.45 1.05 3.6 2.4 3.6
Q 2.85 3.6 3.15 3.85 3.45 4.05 3.45 4.55 3.45 5 3.15 5.25 2.85 5.45 2.4 5.45
M 10.45 5
Q 10.8 4.25 10.8 3.25 10.8 2.25 10.45 1.5 10.1 0.8 9.45 0.4 8.8 0 8 0 7.2 0 6.55 0.4 5.9 0.8 5.55 1.5 5.2 2.25 5.2 3.25 5.2 4.25 5.55 5 5.9 5.7 6.55 6.1 7.2 6.5 8 6.5 8.8 6.5 9.45 6.1 10.1 5.7 10.45 5
M 8 0.95
Q 8.85 0.95 9.3 1.55 9.75 2.15 9.75 3.25 9.75 4.35 9.3 4.95 8.85 5.5 8 5.5 7.2 5.5 6.75 4.95 6.25 4.35 6.25 3.25 6.25 2.15 6.75 1.55 7.2 0.95 8 0.95
M 16.1 1.1
L 16.1 0.15 11.35 0.15 11.35 1.1 13.2 1.1 13.2 6.35 14.25 6.35 14.25 1.1 16.1 1.1 Z"/>
</g>

<g id="Layer4_0_FILL">
<path fill="#949BA4" stroke="none" d="
M 157.7 42.55
L 157.7 42.9
Q 156.05 42.9 155.25 43.35 154.35 43.75 154.35 44.7 154.35 45.45 154.85 45.8 155.35 46.2 156 46.2 156.55 46.2 157 45.95 157.5 45.65 157.7 45.3
L 157.8 46.05 158.45 46.05 158.45 42.55
Q 158.45 41.65 157.95 41.2 157.45 40.75 156.5 40.75 155.9 40.75 155.4 40.95 154.85 41.2 154.55 41.55
L 154.95 42.1
Q 155.3 41.75 155.7 41.55 156.1 41.35 156.5 41.35 157.1 41.35 157.4 41.65 157.7 41.95 157.7 42.55
M 156.15 45.55
Q 155.7 45.55 155.4 45.35 155.15 45.1 155.15 44.7 155.15 44.05 155.75 43.8 156.35 43.5 157.7 43.45
L 157.7 44.6
Q 157.1 45.55 156.15 45.55
M 145.9 41.05
Q 145.35 40.75 144.65 40.75 144 40.75 143.45 41.05 142.9 41.4 142.6 42 142.3 42.65 142.3 43.45 142.3 44.3 142.6 44.9 142.9 45.55 143.45 45.85 144 46.2 144.65 46.2 145.35 46.2 145.9 45.85 146.45 45.55 146.75 44.9 147.05 44.3 147.05 43.45 147.05 42.65 146.75 42 146.45 41.4 145.9 41.05
M 144.65 41.35
Q 145.4 41.35 145.85 41.9 146.3 42.45 146.3 43.45 146.3 44.5 145.85 45 145.4 45.55 144.65 45.55 143.95 45.55 143.5 45 143.05 44.5 143.05 43.45 143.05 42.45 143.5 41.9 143.95 41.35 144.65 41.35
M 151.35 40.95
Q 150.9 40.75 150.35 40.75 149.8 40.75 149.25 41.05 148.75 41.35 148.45 42 148.15 42.6 148.15 43.45 148.15 44.35 148.45 44.95 148.75 45.55 149.25 45.9 149.8 46.2 150.35 46.2 150.9 46.2 151.4 45.95 151.85 45.75 152.1 45.35
L 152.15 46.05 152.8 46.05 152.8 38 152.05 38 152.05 41.55
Q 151.8 41.15 151.35 40.95
M 149.15 42.25
Q 149.35 41.8 149.75 41.6 150.1 41.35 150.5 41.35 151.45 41.35 152.05 42.35
L 152.05 44.6
Q 151.45 45.55 150.5 45.55 150.1 45.55 149.75 45.35 149.35 45.15 149.15 44.65 148.9 44.2 148.9 43.45 148.9 42.75 149.15 42.25
M 141.6 39.2
L 141.6 38.45 136.1 38.45 136.1 39.2 138.45 39.2 138.45 46.05 139.2 46.05 139.2 39.2 141.6 39.2
M 186.9 45.15
Q 186.75 44.95 186.5 44.95 186.2 44.95 186.05 45.15 185.9 45.3 185.9 45.55 185.9 45.8 186.05 45.95 186.2 46.15 186.5 46.15 186.75 46.15 186.9 45.95 187.05 45.8 187.05 45.55 187.05 45.3 186.9 45.15
M 186.5 40.8
Q 186.2 40.8 186.05 40.95 185.9 41.1 185.9 41.4 185.9 41.65 186.05 41.8 186.2 41.95 186.5 41.95 186.75 41.95 186.9 41.8 187.05 41.65 187.05 41.4 187.05 41.1 186.9 40.95 186.75 40.8 186.5 40.8
M 191.95 38.45
L 191.95 39.15 195.65 39.15
Q 193.4 41.75 193.35 46.05
L 194.2 46.05
Q 194.2 41.5 196.4 39.15
L 196.4 38.45 191.95 38.45
M 188.4 40.75
Q 189.35 40.65 190.05 39.55
L 190.05 46.05 190.8 46.05 190.8 38.45 190.05 38.45
Q 189.25 39.85 188.4 39.9
L 188.4 40.75
M 179.3 43.6
L 179.3 44.3 182.95 44.3 182.95 46.05 183.7 46.05 183.7 44.3 184.95 44.3 184.95 43.6 183.7 43.6 183.7 38.45 182.7 38.45 179.3 43.6
M 182.95 39.35
L 182.95 43.6 180.15 43.6 182.95 39.35
M 174.6 39.1
L 173.85 39.35 173.85 40.9 172.75 40.9 172.75 41.5 173.85 41.5 173.85 44.7
Q 173.85 45.45 174.2 45.8 174.55 46.2 175.2 46.2 175.8 46.2 176.25 45.95
L 176.25 45.3
Q 175.95 45.45 175.8 45.5 175.6 45.55 175.35 45.55 174.6 45.55 174.6 44.7
L 174.6 41.5 176.25 41.5 176.25 40.9 174.6 40.9 174.6 39.1
M 164.25 40.9
L 163.5 40.9 161.9 45.15 160.35 40.9 159.55 40.9 161.55 46.05 161.4 46.45
Q 161.15 47.05 160.9 47.35 160.6 47.6 160.15 47.6 159.9 47.6 159.5 47.45
L 159.5 48.1
Q 159.85 48.25 160.2 48.25 160.85 48.25 161.25 47.9 161.65 47.5 161.95 46.8
L 164.25 40.9
M 167.7 41.55
L 168.1 42.1
Q 168.45 41.75 168.85 41.55 169.25 41.35 169.65 41.35 170.25 41.35 170.55 41.65 170.85 41.95 170.85 42.55
L 170.85 42.9
Q 169.2 42.9 168.4 43.35 167.5 43.75 167.5 44.7 167.5 45.45 168 45.8 168.5 46.2 169.15 46.2 169.7 46.2 170.15 45.95 170.65 45.65 170.85 45.3
L 170.95 46.05 171.6 46.05 171.6 42.55
Q 171.6 41.65 171.1 41.2 170.6 40.75 169.65 40.75 169.05 40.75 168.55 40.95 168 41.2 167.7 41.55
M 170.85 43.45
L 170.85 44.6
Q 170.25 45.55 169.3 45.55 168.85 45.55 168.55 45.35 168.3 45.1 168.3 44.7 168.3 44.05 168.9 43.8 169.5 43.5 170.85 43.45
M 206.5 46.05
L 207.25 46.05 208.05 39.35 210 44.8 210.9 44.8 212.85 39.35 213.65 46.05 214.4 46.05 213.5 38.45 212.45 38.45 210.45 44.1 208.45 38.45 207.4 38.45 206.5 46.05
M 204.7 39.1
Q 204.1 38.45 203.05 38.45
L 200.1 38.45 200.1 46.05 200.9 46.05 200.9 43.25 203.05 43.25
Q 204.1 43.25 204.7 42.6 205.3 41.95 205.3 40.85 205.3 39.75 204.7 39.1
M 203 39.2
Q 203.75 39.2 204.1 39.6 204.5 40 204.5 40.85 204.5 41.7 204.1 42.1 203.75 42.5 203 42.5
L 200.9 42.5 200.9 39.2 203 39.2 Z"/>
</g>

<g id="Mask_3_MASK_0_FILL">
<path fill="#FFFFFF" stroke="none" d="
M 71.85 25.8
Q 74.05 23.55 74.05 20.5 74.05 17.4 71.85 15.2 69.65 13 66.55 13 63.45 13 61.25 15.2 59.05 17.4 59.05 20.5 59.05 23.55 61.25 25.8 63.45 28 66.55 28 69.65 28 71.85 25.8 Z"/>
</g>

<g id="pfp_0_Layer0_0_FILL">
<path fill="#232F64" fill-opacity="0.9882352941176471" stroke="none" d="
M 72 904
Q 68 904 64 904 64 960 64 1016 64 1020 64 1024 68 1024 72 1024 72 1020 72 1016 72 1012 72 1008 72 956 72 904 Z"/>

<path fill="#1E2E68" stroke="none" d="
M 72 816
Q 68 816 64 816 64 852 67.95 887.55 68 888 72 888 72 884 72 880 72 848 72 816 Z"/>

<path fill="#3590E5" stroke="none" d="
M 824 992
Q 824 1000 824 1008 824 1012 824 1016 828 1016 832 1016 832 1012 833.95 1009.55 849.2 990.4 824 992
M 976.7 847.9
Q 988.25 912.8 976 840 976 844 976.7 847.9 Z"/>

<path fill="#3892E7" stroke="none" d="
M 856 1016
Q 856 1012 854.4 1008.8 852 1004 848 1000 848 1004 848 1008 848 1012 848 1016 852 1016 856 1016
M 992 392
Q 992 396 993.3 399.5 1009.25 442.3 992 392 Z"/>

<path fill="#3D97EA" stroke="none" d="
M 904 1016
Q 904 1012 902 1010 900 1008 896 1008 896 1012 896 1016 900 1016 904 1016 Z"/>

<path fill="#3992E4" stroke="none" d="
M 960 1016
Q 960 1012 958 1010 956 1008 952 1008 952 1012 952 1016 956 1016 960 1016
M 952 104
L 952 108
Q 970 108 952 104 Z"/>

<path fill="#3890E7" stroke="none" d="
M 752 1016
Q 756 1016 760 1016 760 1012 760.7 1008.15 765.75 978.25 752 968 752 988 752 1008 752 1012 752 1016 Z"/>

<path fill="#368EE1" stroke="none" d="
M 800 1016
Q 804 1016 808 1016 808 1012 808.75 1008.15 813.65 982.4 800 976 800 992 800 1008 800 1012 800 1016 Z"/>

<path fill="#3592EB" stroke="none" d="
M 782.4 1008.8
Q 780 1004 776 1000 776 1004 776 1008 776 1012 776 1016 780 1016 784 1016 784 1012 782.4 1008.8 Z"/>

<path fill="#346E9B" fill-opacity="0.8470588235294118" stroke="none" d="
M 1024 1020
L 1024 1016
Q 1020 1016 1016 1016 988 1016 960 1016 956 1016 952 1016 948 1016 944 1016 924 1016 904 1016 900 1016 896 1016 892 1016 888 1016 872 1016 856 1016 852 1016 848 1016 844 1016 840 1016 836 1016 832 1016 828 1016 824 1016 820 1016 816 1016 812 1016 808 1016 804 1016 800 1016 796 1016 792 1016 788 1016 784 1016 780 1016 776 1016 772 1016 768 1016 764 1016 760 1016 756 1016 752 1016 748 1016 744 1016 408.2 1016 72 1016 72 1020 72 1024 548.5 1024 1024 1020 Z"/>

<path fill="#358FDF" stroke="none" d="
M 1024 520
L 1020 520
Q 1021.95 573.95 1008 608 1007.5 666 1017.55 657.95 1020 656 1024 656 1024 652 1024 648 1024 584 1024 520 Z"/>

<path fill="#3691DF" stroke="none" d="
M 1024 440
Q 1024 424 1024 408 1020 408 1016 408 1016 428 1019.9 447.25 1020 448 1024 448 1024 444 1024 440 Z"/>

<path fill="#3894E3" stroke="none" d="
M 742.75 7.55
Q 744 4 744 0 740 0 736 0 736.25 26.55 742.75 7.55 Z"/>

<path fill="#30477A" stroke="none" d="
M 72 376
Q 68 376 64 376 64 592.05 64 808 64 812 64 816 68 816 72 816 72 812 72 808 72 592.05 72 376 Z"/>

<path fill="#1C2658" stroke="none" d="
M 58 334
Q 60 336 64 336 64 332 64 328 60 328 56 328 56 332 58 334 Z"/>

<path fill="#212B5B" stroke="none" d="
M 64 240
Q 60 240 56 240 56 276 59.95 311.55 60 312 64 312 64 308 64 304 64 272 64 240 Z"/>

<path fill="#4F7497" stroke="none" d="
M 64 224
Q 64 228 64 232 64 236 64 240 64 272 64 304 64 308 64 312 64 316 64 320 64 324 64 328 64 332 64 336 64 352 64 368 64 372 64 376 68 376 72 376 72 372 72.25 368 78 286 64 224 Z"/>

<path fill="#1D2458" stroke="none" d="
M 64 216
Q 64 212 64 208 60 208 56 208 56 216 59.2 222.4 60 224 64 224 64 220 64 216 Z"/>

<path fill="#5583A5" stroke="none" d="
M 64 216
Q 68 216 68.65 214.5 77.45 194.55 64 192 64 196 64 200 64 204 64 208 64 212 64 216 Z"/>

<path fill="#5388AA" stroke="none" d="
M 68 176
Q 68 172 64 168 64 172 64 176
L 68 176 Z"/>

<path fill="#202B5D" stroke="none" d="
M 64 192
Q 64 188 64 184 64 180 64 176 64 172 64 168 64 164 64 160 64 156 64 152 60 152 56 152 56 176 59.9 199.4 60 200 64 200 64 196 64 192 Z"/>

<path fill="#4EA0DC" stroke="none" d="
M 64 136
Q 64 140 64 144 64 148 64 152 64 156 64 160 64 164 64 168 68 172 68 176
L 64 176
Q 64 180 64 184 64 188 64 192 77.45 194.55 68.65 214.5 68 216 64 216 64 220 64 224 78 286 72.25 368 72 372 72 376 72 592.05 72 808 72 812 72 816 72 848 72 880 72 884 72 888 72 892 72 896 72 900 72 904 72 956 72 1008 72 1012 72 1016 408.2 1016 744 1016 748 1016 752 1016 752 1012 752 1008 752 988 752 968 765.75 978.25 760.7 1008.15 760 1012 760 1016 764 1016 768 1016 772 1016 776 1016 776 1012 776 1008 776 1004 776 1000 780 1004 782.4 1008.8 784 1012 784 1016 788 1016 792 1016 796 1016 800 1016 800 1012 800 1008 800 992 800 976 813.65 982.4 808.75 1008.15 808 1012 808 1016 812 1016 816 1016 820 1016 824 1016 824 1012 824 1008 824 1000 824 992 849.2 990.4 833.95 1009.55 832 1012 832 1016 836 1016 840 1016 844 1016 848 1016 848 1012 848 1008 848 1004 848 1000 852 1004 854.4 1008.8 856 1012 856 1016 872 1016 888 1016 892 1016 896 1016 896 1012 896 1008 900 1008 902 1010 904 1012 904 1016 924 1016 944 1016 948 1016 952 1016 952 1012 952 1008 956 1008 958 1010 960 1012 960 1016 988 1016 1016 1016 1020 1016 1024 1016 1024 1012 1024 1008 1024 832 1024 656 1020 656 1017.55 657.95 1007.5 666 1008 608 1021.95 573.95 1020 520
L 1024 520
Q 1024 516 1024 512 1024 480 1024 448 1020 448 1019.9 447.25 1016 428 1016 408 1020 408 1024 408 1024 404 1024 400 1024 200.05 1024 0 1020 0 1016 0 880 0 744 0 744 4 742.75 7.55 736.25 26.55 736 0 732 0 728 0 396.05 0 64 0 64 68 64 136
M 610 14
Q 608 12 608 8 623.4 27.4 610 14
M 610 86
Q 608 84 608 80 623.4 99.4 610 86
M 504 24
Q 522 28 504 28
L 504 24
M 545.2 193.8
Q 548 192 552 192 581.45 208.4 599.25 211.9 600 212 600 216 602.4 225.65 624 220
L 624 224
Q 626.4 237.65 638.5 243.3 640 244 640 248 644 252 644 256
L 640 256
Q 636 256 632.95 254.3 610.25 241.75 576 240 576 244 574 246 572 248 568 248 568 252 568 256 572 256 574 258 576 260 576 264 576 268 574.4 268.8 568 272 560 272 579.75 334.45 625.15 305.8 628 304 632 304 663.9 307.55 650 321.95 648 324 648 328
L 652 328
Q 645 353.05 560 344 560 348 560 352 564 352 568 352 572 352 576 352 584 352 592 352 596 352 600 352 608 352 616 352 620 352 624 352 628 352 632 352 700.8 348.25 657.65 371.15 656 372 656 376 660 376 661.7 378 692.75 414 680 456 680 460 678 461.9 673.65 466.05 664 432
L 664 428
Q 652.45 459 640 448 636 448 633.4 446.05 624.65 439.7 600 400 610.25 390.25 631.55 388.05 632 388 632 384
L 615 389
Q 579.7 399.05 536 416 536 412 538 410.15 558.55 390.55 576 368 572 368 568 368 512 368 456 368 462 402 475.5 438.7 476 440 480 440 480 452 480 464 480 468 480 472 514.25 471.45 544 471.95 548 472 552 472 549.75 505.75 503.9 496.75 500 496 496 496
L 496 500
Q 492 500 488 496 484 496 480 495.75 458.25 494.25 448 504 448 508 446.55 508.65 367.75 542.3 336 488 355.4 444.4 360.25 496.25
L 374.4 500.9
Q 396.25 508.05 432 496
L 436 496
Q 414.5 465.5 384 440 380 440 378.05 438 354.55 413.45 344 376 375.55 374 387.75 329 388 328 392 328 409.65 339.55 418.2 330 420 328 424 328 434.2 406.25 443.95 336.55 444 336 448 336 476.7 363.3 544.15 352.65 548 352 552 352
L 552 348
Q 522.25 349.75 512 336 512 332 513.95 329.5 556.65 273.45 472 264 510.3 250.3 542.2 229.2 544 228 544 224 527.3 205.2 545.2 193.8
M 626 142.3
Q 624 140 624 136 670.8 122.25 680 156
L 680 152
Q 703.05 178.55 676.8 230.4 676 232 672 232 651.7 172.45 626 142.3
M 610 166
Q 608 164 608 160 623.4 179.4 610 166
M 328 76
L 328 72
Q 346 76 328 76
M 376 92
L 376 88
Q 394 92 376 92
M 376 124
L 376 120
Q 394 124 376 124
M 376 156
L 376 152
Q 394 156 376 156
M 424 164
L 424 160
Q 442 164 424 164
M 425.7 196.95
Q 424 196 424 192 464.15 184.15 482.9 153.8 484 152 488 152 509.2 180.45 500.75 198.45 500 200 496 200 460.75 216.4 425.7 196.95
M 330 102
Q 328 100 328 96 343.4 115.4 330 102
M 464 220
L 464 216
Q 482 220 464 220
M 448 240
Q 448 244 446 246 444 248 440 248 436 248 435.7 249.15 427.75 275.75 400 280 400 284 398.55 287.4 384.25 320.25 360 344 356 344 354.5 345.95 344 359.25 336 336 340 332 342.4 327.2 344 324 344 320 340 320 339.2 318.4 336 312 336 304 336 300 336 296 336 292 336 288 340 288 344 288 344 284 344 280 344 268 344 256 352 252 360.4 249.2 364 248 368 248 368 244 368 240 424.5 202.8 389.55 246.05 388 248 384 248 384 252 384 256 384 260 382 262 380 264 376 264 376 268 374 270 372 272 368 272 368 276 368 280 368 284 368 288 415.75 228.4 452 240
L 448 240
M 450 310
Q 448 308 448 304 463.4 323.4 450 310
M 448 328
Q 466 332 448 332
L 448 328
M 416 316
L 416 312
Q 434 316 416 316
M 576 280
Q 594 284 576 284
L 576 280
M 633.55 268.75
Q 632 268 632 264 661.4 282 633.55 268.75
M 610 270
Q 608 268 608 264 636 296 610 270
M 640 292
L 640 288
Q 658 292 640 292
M 512 220
L 512 216
Q 530 220 512 220
M 498 222
Q 496 220 496 216 511.4 235.4 498 222
M 610 198
Q 608 196 608 192 623.4 211.4 610 198
M 168 12
L 168 8
Q 186 12 168 12
M 168 32
Q 186 36 168 36
L 168 32
M 218 54
Q 216 52 216 48 231.4 67.4 218 54
M 248 188
L 248 184
Q 266 188 248 188
M 248 152
Q 266 156 248 156
L 248 152
M 88 180
L 88 176
Q 106 180 88 180
M 248 216
Q 266 220 248 220
L 248 216
M 264 236
L 264 232
Q 282 236 264 236
M 248 248
Q 266 252 248 252
L 248 248
M 296 256
Q 311.4 275.4 298 262 296 260 296 256
M 298 294
Q 296 292 296 288 311.4 307.4 298 294
M 168 276
L 168 272
Q 186 276 168 276
M 312 416
Q 332.4 462.75 313.55 423.25 312 420 312 416
M 216 508
L 216 504
Q 234 508 216 508
M 232 516
L 232 512
Q 250 516 232 516
M 216 536
Q 234 540 216 540
L 216 536
M 264 548
L 264 544
Q 282 548 264 548
M 312 548
L 312 544
Q 330 548 312 548
M 106 510
Q 104 508 104 504 119.4 523.4 106 510
M 104 612
L 104 608
Q 122 612 104 612
M 152 660
L 152 656
Q 170 660 152 660
M 154 694
Q 152 692 152 688 167.4 707.4 154 694
M 312.8 625.65
Q 316 624 320 624 385.15 626.15 335.75 639 332 640 328 640 328 644 326 646.05 314.25 658.25 320 688
L 320 692
Q 306.3 667.2 304 632 308 628 312.8 625.65
M 272 616
Q 268 616 267.2 614.4 264 608 264 600 268 600 272 600 312.45 595.4 295.95 665.9 291.55 684.45 289.4 691.5 288 696 272 696 268 696 266 694 264 692 264 688 268 688 272 688 272 684 273.05 680.3 279.3 658.3 272 616
M 232 732
L 232 728
Q 250 732 232 732
M 264 768
Q 264 764 264 760 297.05 741.3 324 760
L 320 760
Q 263.25 781 296 783.7 300 784 304 784 314.75 809.9 280.25 812 280 812 280 816 294.15 837.9 327.3 843.9 328 844 328 848 300 848 272 848 268 848 264 848 264 808 264 768
M 312 780
L 312 776
Q 330 780 312 780
M 592 428
L 592 424
Q 610 428 592 428
M 568 420
L 568 416
Q 586 420 568 420
M 592 460
L 592 456
Q 610 460 592 460
M 568 476
L 568 472
Q 586 476 568 476
M 488 416
Q 528.8 411.45 488 420
L 488 416
M 522 422
Q 520 420 520 416 535.4 435.4 522 422
M 496 448
Q 526.75 452 496 452
L 496 448
M 488 580
L 488 576
Q 506 580 488 580
M 570 502
Q 568 500 568 496 583.4 515.4 570 502
M 480 404
L 480 400
Q 498 404 480 404
M 440 540
L 440 536
Q 458 540 440 540
M 448 624
Q 452 624 456 624 460 624 464 624 493.5 622.5 484.3 654.95 484 656 480 656 476 656 473.3 657.9 461.75 665.75 440 664 440 668 440 672 440 676 440 680 512.95 688 440 692
L 440 688
Q 436 688 435.65 686.8 432 676 432 664 428 664 427.65 662.8 424 652 424 640 437.65 637.65 443.3 625.5 444 624 448 624
M 480 676
L 480 672
Q 498 676 480 676
M 391.05 616.25
Q 392 620 392 624 422.55 624.8 393.75 673.05 392 676 392 680 434.8 697.2 391.9 688.75 388 688 384 688 380.7 633.55 364.25 695 364 696 360 696 360 672 360 648 360 644 360 640 387.55 601.7 391.05 616.25
M 362 734
Q 360 732 360 728 375.4 747.4 362 734
M 362 710
Q 360 708 360 704 375.4 723.4 362 710
M 344 788
L 344 784
Q 362 788 344 788
M 386 786
Q 388 784 392 784 374.45 825.65 372.5 830.7 372 832 368 832 356.45 844.45 336 844
L 336 840
Q 360 812 386 786
M 408 776
Q 441.8 770.2 454.05 785.55 456 788 456 792 479.25 775.25 488 748
L 488 752
Q 483 811.95 529.4 777.95 532 776 536 776 577.75 794.45 548.95 846.3 548 848 544 848 499.3 856.7 503.55 815.95 504 812 504 808 497 833 472 836
L 472 832
Q 486.3 783.3 465.65 824.8 464 828 464 832 464 836 462 838 460 840 456 840 456 844 455.75 844 421.95 845.95 408 864 408 860 408 856 408 816 408 776
M 592 640
Q 592 636 592 632 629.9 660 592 684
L 592 680
Q 592 660 592 640
M 588 632
L 584 632
Q 577.25 636.25 561.5 643.3 560 644 560 648 560 672 556.15 695.4 556 696 552 696 539.45 672.55 543.65 631.95 544 628 544 624 573.75 609.65 588 632
M 635.65 678.8
Q 636 680 640 680 644 680 648 680 652 680 654.9 681.8 671.9 692.45 640 696 636 696 633.45 694.05 610.8 677.2 616 632 676.4 597.45 668.05 655.45 668 656 664 656 660 656 656 656 644 656 632 656 632 668 635.65 678.8
M 495.2 631.8
Q 496 628 496 624 549.95 613 513.7 680.9 512 684 512 688 485.55 678.45 495.2 631.8
M 584 708
L 584 704
Q 602 708 584 708
M 568 776
Q 576 776 582.4 779.2 584 780 584 784 588 784 592 784 592 780 592 776 617.2 774.4 598.4 790.05 596 792 592 792 592 796 590 798 588 800 584 800 584 804 584 808 584 812 583.5 815.95 576.8 868.95 568 816 572 816 574 814 576 812 576 808 572 808 571.75 807.05 568 792 568 776
M 584 764
L 584 760
Q 602 764 584 764
M 632 764
L 632 760
Q 650 764 632 764
M 1000 148
L 1000 144
Q 1018 148 1000 148
M 976 160
Q 988.65 219.9 976.9 167.8 976 164 976 160
M 992 372
L 992 368
Q 1010 372 992 372
M 976 388
L 976 384
Q 994 388 976 388
M 832 36
L 832 32
Q 850 36 832 36
M 856 88
Q 874 92 856 92
L 856 88
M 880.7 95.9
Q 880 92 880 88 892.25 160.8 880.7 95.9
M 831.45 55.95
Q 832 52 832 48 845.9 66.15 840.55 104.05 840 108 840 112 826.15 93.9 831.45 55.95
M 882 150
Q 880 148 880 144 895.4 163.4 882 150
M 952 108
L 952 104
Q 970 108 952 108
M 952 140
L 952 136
Q 970 140 952 140
M 928.7 111.9
Q 928 108 928 104 940.25 176.8 928.7 111.9
M 930 166
Q 928 164 928 160 943.4 179.4 930 166
M 912 100
L 912 96
Q 930 100 912 100
M 784.7 31.9
Q 784 28 784 24 796.25 96.8 784.7 31.9
M 784 12
L 784 8
Q 802 12 784 12
M 784 92
L 784 88
Q 802 92 784 92
M 696 168
Q 730.65 169.95 696.25 192.25
L 698.45 182.7
Q 700 176 696 168
M 752 216
Q 770 220 752 220
L 752 216
M 752 200
Q 770 204 752 204
L 752 200
M 752.7 239.9
Q 752 236 752 232 764.25 304.8 752.7 239.9
M 799.65 247.95
Q 800 244 800 240 813.95 274.05 808.4 328.05 808 332 808 336 794.05 301.95 799.65 247.95
M 704 216
Q 717.2 262.8 705.15 223.65 704 220 704 216
M 728 204
L 728 200
Q 746 204 728 204
M 656 248
Q 671.4 267.4 658 254 656 252 656 248
M 704 256
Q 719.4 275.4 706 262 704 260 704 256
M 728 260
L 728 256
Q 746 260 728 260
M 696 372
L 696 368
Q 714 372 696 372
M 752 296
Q 766 329.4 753.55 303.25 752 300 752 296
M 848 284
L 848 280
Q 866 284 848 284
M 824 284
L 824 280
Q 842 284 824 284
M 849.15 335.65
Q 848 332 848 328 861.2 374.8 849.15 335.65
M 824 332
L 824 328
Q 842 332 824 332
M 850 374
Q 848 372 848 368 863.4 387.4 850 374
M 895.5 343.95
Q 896 340 896 336 909.9 358.15 904.5 400.05 904 404 904 408 890.15 385.9 895.5 343.95
M 896 324
L 896 320
Q 914 324 896 324
M 920 364
L 920 360
Q 938 364 920 364
M 922 382
Q 920 380 920 376 935.4 395.4 922 382
M 970 374
Q 968 372 968 368 983.4 387.4 970 374
M 945.75 350.95
Q 944 348 944 344 965.45 384.25 945.75 350.95
M 848 300
L 848 296
Q 866 300 848 300
M 824 300
L 824 296
Q 842 300 824 300
M 865.9 541.25
Q 864 540 864 536 889.9 557.5 865.9 541.25
M 815.45 519.95
Q 816 516 816 512 829.9 530.15 824.55 568.05 824 572 824 576 810.15 557.9 815.45 519.95
M 817.55 591.25
Q 816 588 816 584 830 617.4 817.55 591.25
M 889.55 575.25
Q 888 572 888 568 902 601.4 889.55 575.25
M 866 566
Q 864 564 864 560 879.4 579.4 866 566
M 911.4 543.95
Q 912 540 912 536 921.3 562.7 924 592
L 920 592
Q 906.2 577.8 911.4 543.95
M 962 574.3
Q 960 572 960 568 985.7 602.3 962 574.3
M 944 588
L 944 584
Q 962 588 944 588
M 768 484
L 768 480
Q 786 484 768 484
M 721.15 439.65
Q 720 436 720 432 733.2 478.8 721.15 439.65
M 674 486
Q 672 484 672 480 687.4 499.4 674 486
M 720.9 479.8
Q 720 476 720 472 732.65 531.9 720.9 479.8
M 696 460
L 696 456
Q 714 460 696 460
M 720 520
Q 734 553.4 721.55 527.25 720 524 720 520
M 674 510
Q 672 508 672 504 687.4 523.4 674 510
M 794 518
Q 792 516 792 512 807.4 531.4 794 518
M 760.95 519.75
Q 760 516 760 512 784.4 488.9 776.4 568.05 776 572 776 576 768 548 760.95 519.75
M 792 556
L 792 552
Q 810 556 792 556
M 792 572
L 792 568
Q 810 572 792 572
M 712 632
Q 708 632 704 632 704 636 702 638 700 640 696 640 694.25 661.75 702.15 673.25 704 676 704 680 721 675 716.5 686.65 716 688 712 688
L 712 692
Q 708 692 704 688 700 688 699.45 686.65 686.4 653.65 680 616 699.8 591.4 716 632
L 712 632
M 672 668
L 672 664
Q 690 668 672 668
M 664 676
L 664 672
Q 682 676 664 676
M 704 720
Q 736.45 736.65 705.4 724.5 704 724 704 720
M 687.4 711.95
Q 688 708 688 704 701.8 718.2 696.65 752.05 696 756 696 760 682.2 745.8 687.4 711.95
M 687.45 783.95
Q 688 780 688 776 719.75 781.75 700.45 838.8 700 840 696 840 682.15 821.9 687.45 783.95
M 712 780
L 712 776
Q 742.8 780 712 780
M 784 740
L 784 736
Q 802 740 784 740
M 735.45 719.95
Q 736 716 736 712 749.9 730.15 744.55 768.05 744 772 744 776 730.15 757.9 735.45 719.95
M 760 772
L 760 768
Q 778 772 760 772
M 783.55 759.95
Q 784 756 784 752 804.45 769.05 792.8 824.2 792 828 792 832 778.15 805.95 783.55 759.95
M 809.15 791.65
Q 808 788 808 784 821.2 830.8 809.15 791.65
M 761.55 743.25
Q 760 740 760 736 774 769.4 761.55 743.25
M 938 622
Q 936 620 936 616 951.4 635.4 938 622
M 959.45 607.95
Q 960 604 960 600 978.4 604.95 968.75 656.15 968 660 968 664 954.15 645.9 959.45 607.95
M 913.55 607.25
Q 912 604 912 600 926 633.4 913.55 607.25
M 914 638
Q 912 636 912 632 927.4 651.4 914 638
M 914 662
Q 912 660 912 656 927.4 675.4 914 662
M 888 604
L 888 600
Q 906 604 888 604
M 864 644
L 864 640
Q 882 644 864 644
M 856 720
Q 874 724 856 724
L 856 720
M 831.65 767.95
Q 832 764 832 760 845.95 794.05 840.4 848.05 840 852 840 856 826.05 821.95 831.65 767.95
M 960 776
Q 978 780 960 780
L 960 776
M 865.55 599.25
Q 864 596 864 592 878 625.4 865.55 599.25
M 992 448
Q 1010 452 992 452
L 992 448
M 992 564
L 992 560
Q 1010 564 992 564
M 984 608
Q 999.4 627.4 986 614 984 612 984 608
M 985.15 639.65
Q 984 636 984 632 997.2 678.8 985.15 639.65
M 984 784
Q 1002 788 984 788
L 984 784
M 1008 772
L 1008 768
Q 1026 772 1008 772
M 992 596
L 992 592
Q 1010 596 992 596
M 945.15 399.65
Q 944 396 944 392 957.2 438.8 945.15 399.65
M 993.3 399.5
Q 992 396 992 392 1009.25 442.3 993.3 399.5
M 1008 804
L 1008 800
Q 1026 804 1008 804
M 976.2 820
Q 976 820 976 816 1007 821.3 976.2 820
M 1009.55 823.25
Q 1008 820 1008 816 1022 849.4 1009.55 823.25
M 1008 860
L 1008 856
Q 1026 860 1008 860
M 1000 876
L 1000 872
Q 1018 876 1000 876
M 976 840
Q 988.25 912.8 976.7 847.9 976 844 976 840
M 1000 980
L 1000 976
Q 1018 980 1000 980
M 978 998
Q 976 996 976 992 991.4 1011.4 978 998
M 952 832
Q 982.15 809.55 952 836
L 952 832
M 904 808
Q 922 812 904 812
L 904 808
M 927.5 807.95
Q 928 804 928 800 950.95 813.05 937 864.25 936 868 936 872 922.15 849.9 927.5 807.95
M 952 856
Q 966 889.4 953.55 863.25 952 860 952 856
M 904 840
Q 922 844 904 844
L 904 840
M 880 796
L 880 792
Q 898 796 880 796
M 881.55 823.25
Q 880 820 880 816 894 849.4 881.55 823.25
M 858 838
Q 856 836 856 832 871.4 851.4 858 838
M 881.4 852.5
Q 880 852 880 848 905.2 861.75 881.4 852.5
M 882 878
Q 880 876 880 872 895.4 891.4 882 878
M 930 982
Q 928 980 928 976 943.4 995.4 930 982
M 952 980
L 952 976
Q 970 980 952 980
M 808 828
L 808 824
Q 826 828 808 828
M 736 792
Q 750 825.4 737.55 799.25 736 796 736 792
M 664 808
Q 660 808 656 808 648 808 640 808 636 808 635.55 809.25 624.8 839.2 656 832 660 832 664 831.75 694.75 830.05 640 848 636 848 633.25 846.15 612.2 831.9 616 792 670.8 756 652 792
L 656 792
Q 693.75 779.15 669.75 806 668 808 664 808
M 656 880
Q 674 884 656 884
L 656 880
M 728 916
L 728 912
Q 746 916 728 916
M 656 904
Q 674 908 656 908
L 656 904
M 655.45 927.95
Q 656 924 656 920 669.9 938.15 664.55 976.05 664 980 664 984 650.15 965.9 655.45 927.95
M 704 968
Q 718 1001.4 705.55 975.25 704 972 704 968
M 704 936
Q 719.4 955.4 706 942 704 940 704 936
M 682 942
Q 680 940 680 936 695.4 955.4 682 942
M 896 992
Q 926.8 996 896 996
L 896 992
M 880 1004
L 880 1000
Q 898 1004 880 1004
M 608.9 887.8
Q 608 884 608 880 620.65 939.9 608.9 887.8
M 504 856
Q 522 860 504 860
L 504 856
M 560 868
L 560 864
Q 578 868 560 868
M 552 920
Q 567.4 939.4 554 926 552 924 552 920
M 504 976
Q 522 980 504 980
L 504 976
M 504 944
Q 522 948 504 948
L 504 944
M 632 932
L 632 928
Q 650 932 632 932
M 608 932
L 608 928
Q 626 932 608 932
M 608 964
L 608 960
Q 626 964 608 964
M 456 868
L 456 864
Q 474 868 456 868
M 352 792
Q 370 796 352 796
L 352 792
M 384 844
L 384 840
Q 415.5 832.05 384 844
M 344 948
L 344 944
Q 362 948 344 948
M 456 924
L 456 920
Q 474 924 456 924
M 328 984
Q 343.4 1003.4 330 990 328 988 328 984
M 296 868
L 296 864
Q 314 868 296 868
M 232 804
L 232 800
Q 250 804 232 804
M 232 836
L 232 832
Q 250 836 232 836
M 232 868
L 232 864
Q 250 868 232 868
M 296 896
Q 314 900 296 900
L 296 896
M 282 918
Q 280 916 280 912 295.4 931.4 282 918
M 280 980
L 280 976
Q 298 980 280 980
M 280 956
L 280 952
Q 298 956 280 956
M 234 894
Q 232 892 232 888 247.4 907.4 234 894 Z"/>

<path fill="#3C95BE" stroke="none" d="
M 232 888
Q 232 892 234 894 247.4 907.4 232 888 Z"/>

<path fill="#3C94BF" stroke="none" d="
M 280 952
L 280 956
Q 298 956 280 952 Z"/>

<path fill="#3994BF" stroke="none" d="
M 280 976
L 280 980
Q 298 980 280 976 Z"/>

<path fill="#3993BD" stroke="none" d="
M 280 912
Q 280 916 282 918 295.4 931.4 280 912 Z"/>

<path fill="#3C98ED" stroke="none" d="
M 296 900
Q 314 900 296 896
L 296 900 Z"/>

<path fill="#4092BE" stroke="none" d="
M 232 864
L 232 868
Q 250 868 232 864 Z"/>

<path fill="#3B92BB" stroke="none" d="
M 232 832
L 232 836
Q 250 836 232 832 Z"/>

<path fill="#388BBA" stroke="none" d="
M 232 800
L 232 804
Q 250 804 232 800 Z"/>

<path fill="#3D9BF0" stroke="none" d="
M 296 864
L 296 868
Q 314 868 296 864 Z"/>

<path fill="#3B91B6" stroke="none" d="
M 330 990
Q 343.4 1003.4 328 984 328 988 330 990 Z"/>

<path fill="#4191BD" stroke="none" d="
M 456 920
L 456 924
Q 474 924 456 920 Z"/>

<path fill="#3B9AEC" stroke="none" d="
M 344 944
L 344 948
Q 362 948 344 944 Z"/>

<path fill="#BED2E0" stroke="none" d="
M 384 840
L 384 844
Q 415.5 832.05 384 840 Z"/>

<path fill="#CAE0E1" stroke="none" d="
M 352 796
Q 370 796 352 792
L 352 796 Z"/>

<path fill="#3B96BF" stroke="none" d="
M 456 864
L 456 868
Q 474 868 456 864 Z"/>

<path fill="#3698E4" stroke="none" d="
M 608 960
L 608 964
Q 626 964 608 960 Z"/>

<path fill="#3993E8" stroke="none" d="
M 608 928
L 608 932
Q 626 932 608 928 Z"/>

<path fill="#3991E4" stroke="none" d="
M 632 928
L 632 932
Q 650 932 632 928 Z"/>

<path fill="#3D95BD" stroke="none" d="
M 504 948
Q 522 948 504 944
L 504 948 Z"/>

<path fill="#3C94BE" stroke="none" d="
M 504 980
Q 522 980 504 976
L 504 980 Z"/>

<path fill="#3994C2" stroke="none" d="
M 554 926
Q 567.4 939.4 552 920 552 924 554 926 Z"/>

<path fill="#3994E6" stroke="none" d="
M 560 864
L 560 868
Q 578 868 560 864 Z"/>

<path fill="#3892C5" stroke="none" d="
M 504 860
Q 522 860 504 856
L 504 860 Z"/>

<path fill="#3891E6" stroke="none" d="
M 608 880
Q 608 884 608.9 887.8 620.65 939.9 608 880 Z"/>

<path fill="#3690E4" stroke="none" d="
M 880 1000
L 880 1004
Q 898 1004 880 1000
M 864 536
Q 864 540 865.9 541.25 889.9 557.5 864 536 Z"/>

<path fill="#338EDF" stroke="none" d="
M 896 996
Q 926.8 996 896 992
L 896 996 Z"/>

<path fill="#3A93E4" stroke="none" d="
M 680 936
Q 680 940 682 942 695.4 955.4 680 936 Z"/>

<path fill="#388EE1" stroke="none" d="
M 706 942
Q 719.4 955.4 704 936 704 940 706 942 Z"/>

<path fill="#3890E5" stroke="none" d="
M 705.55 975.25
Q 718 1001.4 704 968 704 972 705.55 975.25 Z"/>

<path fill="#3992E7" stroke="none" d="
M 656 920
Q 656 924 655.45 927.95 650.15 965.9 664 984 664 980 664.55 976.05 669.9 938.15 656 920 Z"/>

<path fill="#388DE0" stroke="none" d="
M 656 908
Q 674 908 656 904
L 656 908 Z"/>

<path fill="#3C8FC5" stroke="none" d="
M 728 912
L 728 916
Q 746 916 728 912 Z"/>

<path fill="#378CDB" stroke="none" d="
M 656 884
Q 674 884 656 880
L 656 884 Z"/>

<path fill="#D3DDE2" stroke="none" d="
M 664 831.75
Q 660 832 656 832 624.8 839.2 635.55 809.25 636 808 640 808 640 804 640 800 652 800 662.8 803.65 664 804 664 808 668 808 669.75 806 693.75 779.15 656 792
L 652 792
Q 670.8 756 616 792 612.2 831.9 633.25 846.15 636 848 640 848 694.75 830.05 664 831.75 Z"/>

<path fill="#F8FCFC" stroke="none" d="
M 656 808
Q 660 808 664 808 664 804 662.8 803.65 652 800 640 800 640 804 640 808 648 808 656 808 Z"/>

<path fill="#3393E3" stroke="none" d="
M 737.55 799.25
Q 750 825.4 736 792 736 796 737.55 799.25 Z"/>

<path fill="#318FDF" stroke="none" d="
M 808 824
L 808 828
Q 826 828 808 824
M 920 376
Q 920 380 922 382 935.4 395.4 920 376 Z"/>

<path fill="#368CDA" stroke="none" d="
M 952 976
L 952 980
Q 970 980 952 976 Z"/>

<path fill="#388FE1" stroke="none" d="
M 928 976
Q 928 980 930 982 943.4 995.4 928 976 Z"/>

<path fill="#3693E2" stroke="none" d="
M 880 872
Q 880 876 882 878 895.4 891.4 880 872 Z"/>

<path fill="#3495E8" stroke="none" d="
M 880 848
Q 880 852 881.4 852.5 905.2 861.75 880 848 Z"/>

<path fill="#3592E0" stroke="none" d="
M 856 832
Q 856 836 858 838 871.4 851.4 856 832 Z"/>

<path fill="#3490E4" stroke="none" d="
M 880 816
Q 880 820 881.55 823.25 894 849.4 880 816 Z"/>

<path fill="#3A94E6" stroke="none" d="
M 880 792
L 880 796
Q 898 796 880 792 Z"/>

<path fill="#3892E1" stroke="none" d="
M 904 844
Q 922 844 904 840
L 904 844 Z"/>

<path fill="#358EDD" stroke="none" d="
M 953.55 863.25
Q 966 889.4 952 856 952 860 953.55 863.25
M 888 600
L 888 604
Q 906 604 888 600 Z"/>

<path fill="#3591E5" stroke="none" d="
M 928 800
Q 928 804 927.5 807.95 922.15 849.9 936 872 936 868 937 864.25 950.95 813.05 928 800
M 960 600
Q 960 604 959.45 607.95 954.15 645.9 968 664 968 660 968.75 656.15 978.4 604.95 960 600 Z"/>

<path fill="#3A91E3" stroke="none" d="
M 904 812
Q 922 812 904 808
L 904 812 Z"/>

<path fill="#3A94E8" stroke="none" d="
M 952 836
Q 982.15 809.55 952 832
L 952 836
M 168 36
Q 186 36 168 32
L 168 36 Z"/>

<path fill="#3A8EDF" stroke="none" d="
M 976 992
Q 976 996 978 998 991.4 1011.4 976 992 Z"/>

<path fill="#388EDC" stroke="none" d="
M 1000 976
L 1000 980
Q 1018 980 1000 976 Z"/>

<path fill="#3691E1" stroke="none" d="
M 1000 872
L 1000 876
Q 1018 876 1000 872 Z"/>

<path fill="#3D97EB" stroke="none" d="
M 1008 856
L 1008 860
Q 1026 860 1008 856 Z"/>

<path fill="#3B93E8" stroke="none" d="
M 1008 816
Q 1008 820 1009.55 823.25 1022 849.4 1008 816 Z"/>

<path fill="#388FE4" stroke="none" d="
M 976 816
Q 976 820 976.2 820 1007 821.3 976 816 Z"/>

<path fill="#3B8EE0" stroke="none" d="
M 1008 800
L 1008 804
Q 1026 804 1008 800 Z"/>

<path fill="#3290E1" stroke="none" d="
M 944 392
Q 944 396 945.15 399.65 957.2 438.8 944 392 Z"/>

<path fill="#3892E5" stroke="none" d="
M 992 592
L 992 596
Q 1010 596 992 592 Z"/>

<path fill="#3A8EDE" stroke="none" d="
M 1008 768
L 1008 772
Q 1026 772 1008 768 Z"/>

<path fill="#398EDF" stroke="none" d="
M 984 788
Q 1002 788 984 784
L 984 788 Z"/>

<path fill="#3492DF" stroke="none" d="
M 984 632
Q 984 636 985.15 639.65 997.2 678.8 984 632 Z"/>

<path fill="#3792E6" stroke="none" d="
M 986 614
Q 999.4 627.4 984 608 984 612 986 614
M 800 240
Q 800 244 799.65 247.95 794.05 301.95 808 336 808 332 808.4 328.05 813.95 274.05 800 240 Z"/>

<path fill="#378DDF" stroke="none" d="
M 992 560
L 992 564
Q 1010 564 992 560 Z"/>

<path fill="#358ED9" stroke="none" d="
M 992 452
Q 1010 452 992 448
L 992 452 Z"/>

<path fill="#3A93E3" stroke="none" d="
M 864 592
Q 864 596 865.55 599.25 878 625.4 864 592 Z"/>

<path fill="#398BDB" stroke="none" d="
M 960 780
Q 978 780 960 776
L 960 780 Z"/>

<path fill="#3891E5" stroke="none" d="
M 832 760
Q 832 764 831.65 767.95 826.05 821.95 840 856 840 852 840.4 848.05 845.95 794.05 832 760 Z"/>

<path fill="#3A91C5" stroke="none" d="
M 856 724
Q 874 724 856 720
L 856 724 Z"/>

<path fill="#3494DE" stroke="none" d="
M 864 640
L 864 644
Q 882 644 864 640 Z"/>

<path fill="#3490DF" stroke="none" d="
M 912 656
Q 912 660 914 662 927.4 675.4 912 656 Z"/>

<path fill="#328FE0" stroke="none" d="
M 912 632
Q 912 636 914 638 927.4 651.4 912 632 Z"/>

<path fill="#3894E6" stroke="none" d="
M 912 600
Q 912 604 913.55 607.25 926 633.4 912 600
M 672 480
Q 672 484 674 486 687.4 499.4 672 480
M 728 200
L 728 204
Q 746 204 728 200 Z"/>

<path fill="#3690E1" stroke="none" d="
M 936 616
Q 936 620 938 622 951.4 635.4 936 616 Z"/>

<path fill="#3692E5" stroke="none" d="
M 760 736
Q 760 740 761.55 743.25 774 769.4 760 736 Z"/>

<path fill="#3591E3" stroke="none" d="
M 808 784
Q 808 788 809.15 791.65 821.2 830.8 808 784 Z"/>

<path fill="#3691E7" stroke="none" d="
M 784 752
Q 784 756 783.55 759.95 778.15 805.95 792 832 792 828 792.8 824.2 804.45 769.05 784 752 Z"/>

<path fill="#3692E6" stroke="none" d="
M 760 768
L 760 772
Q 778 772 760 768 Z"/>

<path fill="#358FE5" stroke="none" d="
M 736 712
Q 736 716 735.45 719.95 730.15 757.9 744 776 744 772 744.55 768.05 749.9 730.15 736 712 Z"/>

<path fill="#3792E8" stroke="none" d="
M 784 736
L 784 740
Q 802 740 784 736 Z"/>

<path fill="#B7DBE5" stroke="none" d="
M 712 776
L 712 780
Q 742.8 780 712 776 Z"/>

<path fill="#CDDAEC" stroke="none" d="
M 688 776
Q 688 780 687.45 783.95 682.15 821.9 696 840 700 840 700.45 838.8 719.75 781.75 688 776 Z"/>

<path fill="#3691E5" stroke="none" d="
M 688 704
Q 688 708 687.4 711.95 682.2 745.8 696 760 696 756 696.65 752.05 701.8 718.2 688 704 Z"/>

<path fill="#3794E6" stroke="none" d="
M 705.4 724.5
Q 736.45 736.65 704 720 704 724 705.4 724.5 Z"/>

<path fill="#C4DAEE" stroke="none" d="
M 664 672
L 664 676
Q 682 676 664 672 Z"/>

<path fill="#C0D3D8" stroke="none" d="
M 672 664
L 672 668
Q 690 668 672 664 Z"/>

<path fill="#E6F1F0" stroke="none" d="
M 704 688
Q 708 688 712 688 716 688 716.5 686.65 721 675 704 680 704 684 704 688 Z"/>

<path fill="#B8CBE4" stroke="none" d="
M 704 688
Q 708 692 712 692
L 712 688
Q 708 688 704 688 Z"/>

<path fill="#EDF5F4" stroke="none" d="
M 710.4 627.2
Q 704 624 696 624 696 628 698 630 700 632 704 632 708 632 712 632 712 628 710.4 627.2 Z"/>

<path fill="#CAD5E6" stroke="none" d="
M 696 624
Q 704 624 710.4 627.2 712 628 712 632
L 716 632
Q 699.8 591.4 680 616 686.4 653.65 699.45 686.65 700 688 704 688 704 684 704 680 704 676 702.15 673.25 694.25 661.75 696 640 700 640 702 638 704 636 704 632 700 632 698 630 696 628 696 624 Z"/>

<path fill="#3592DE" stroke="none" d="
M 792 568
L 792 572
Q 810 572 792 568 Z"/>

<path fill="#3290DB" stroke="none" d="
M 792 552
L 792 556
Q 810 556 792 552 Z"/>

<path fill="#3793E7" stroke="none" d="
M 760 512
Q 760 516 760.95 519.75 768 548 776 576 776 572 776.4 568.05 784.4 488.9 760 512 Z"/>

<path fill="#3891E3" stroke="none" d="
M 792 512
Q 792 516 794 518 807.4 531.4 792 512
M 944 584
L 944 588
Q 962 588 944 584
M 896 320
L 896 324
Q 914 324 896 320 Z"/>

<path fill="#3593E3" stroke="none" d="
M 672 504
Q 672 508 674 510 687.4 523.4 672 504 Z"/>

<path fill="#3493E6" stroke="none" d="
M 721.55 527.25
Q 734 553.4 720 520 720 524 721.55 527.25 Z"/>

<path fill="#3A91E2" stroke="none" d="
M 696 456
L 696 460
Q 714 460 696 456 Z"/>

<path fill="#3793E6" stroke="none" d="
M 720 472
Q 720 476 720.9 479.8 732.65 531.9 720 472 Z"/>

<path fill="#3B92E5" stroke="none" d="
M 720 432
Q 720 436 721.15 439.65 733.2 478.8 720 432 Z"/>

<path fill="#388EE3" stroke="none" d="
M 768 480
L 768 484
Q 786 484 768 480 Z"/>

<path fill="#3791E5" stroke="none" d="
M 960 568
Q 960 572 962 574.3 985.7 602.3 960 568 Z"/>

<path fill="#3790E3" stroke="none" d="
M 912 536
Q 912 540 911.4 543.95 906.2 577.8 920 592
L 924 592
Q 921.3 562.7 912 536
M 888 568
Q 888 572 889.55 575.25 902 601.4 888 568 Z"/>

<path fill="#3D91E6" stroke="none" d="
M 864 560
Q 864 564 866 566 879.4 579.4 864 560 Z"/>

<path fill="#3495E6" stroke="none" d="
M 816 584
Q 816 588 817.55 591.25 830 617.4 816 584 Z"/>

<path fill="#3792E7" stroke="none" d="
M 816 512
Q 816 516 815.45 519.95 810.15 557.9 824 576 824 572 824.55 568.05 829.9 530.15 816 512 Z"/>

<path fill="#3391E3" stroke="none" d="
M 824 296
L 824 300
Q 842 300 824 296 Z"/>

<path fill="#3A92E4" stroke="none" d="
M 848 296
L 848 300
Q 866 300 848 296 Z"/>

<path fill="#3B91E7" stroke="none" d="
M 944 344
Q 944 348 945.75 350.95 965.45 384.25 944 344 Z"/>

<path fill="#3A95E6" stroke="none" d="
M 968 368
Q 968 372 970 374 983.4 387.4 968 368 Z"/>

<path fill="#3991E2" stroke="none" d="
M 920 360
L 920 364
Q 938 364 920 360 Z"/>

<path fill="#3790E4" stroke="none" d="
M 896 336
Q 896 340 895.5 343.95 890.15 385.9 904 408 904 404 904.5 400.05 909.9 358.15 896 336 Z"/>

<path fill="#3594E1" stroke="none" d="
M 848 368
Q 848 372 850 374 863.4 387.4 848 368 Z"/>

<path fill="#328EDB" stroke="none" d="
M 824 328
L 824 332
Q 842 332 824 328 Z"/>

<path fill="#3493E4" stroke="none" d="
M 848 328
Q 848 332 849.15 335.65 861.2 374.8 848 328 Z"/>

<path fill="#3693DF" stroke="none" d="
M 824 280
L 824 284
Q 842 284 824 280 Z"/>

<path fill="#3893E1" stroke="none" d="
M 848 280
L 848 284
Q 866 284 848 280 Z"/>

<path fill="#328FE3" stroke="none" d="
M 753.55 303.25
Q 766 329.4 752 296 752 300 753.55 303.25 Z"/>

<path fill="#3E91C0" stroke="none" d="
M 696 368
L 696 372
Q 714 372 696 368 Z"/>

<path fill="#3692DE" stroke="none" d="
M 728 256
L 728 260
Q 746 260 728 256 Z"/>

<path fill="#3691E4" stroke="none" d="
M 706 262
Q 719.4 275.4 704 256 704 260 706 262 Z"/>

<path fill="#2E97EC" stroke="none" d="
M 658 254
Q 671.4 267.4 656 248 656 252 658 254 Z"/>

<path fill="#3295E6" stroke="none" d="
M 705.15 223.65
Q 717.2 262.8 704 216 704 220 705.15 223.65 Z"/>

<path fill="#3593E8" stroke="none" d="
M 752 232
Q 752 236 752.7 239.9 764.25 304.8 752 232 Z"/>

<path fill="#3A8DDE" stroke="none" d="
M 752 204
Q 770 204 752 200
L 752 204 Z"/>

<path fill="#3692E2" stroke="none" d="
M 752 220
Q 770 220 752 216
L 752 220 Z"/>

<path fill="#3996E9" stroke="none" d="
M 696.25 192.25
Q 730.65 169.95 696 168 700 176 698.45 182.7
L 696.25 192.25 Z"/>

<path fill="#3692E4" stroke="none" d="
M 784 88
L 784 92
Q 802 92 784 88 Z"/>

<path fill="#3C93E6" stroke="none" d="
M 784 8
L 784 12
Q 802 12 784 8 Z"/>

<path fill="#3792E4" stroke="none" d="
M 784 24
Q 784 28 784.7 31.9 796.25 96.8 784 24 Z"/>

<path fill="#3B97EA" stroke="none" d="
M 912 96
L 912 100
Q 930 100 912 96 Z"/>

<path fill="#3591E1" stroke="none" d="
M 928 160
Q 928 164 930 166 943.4 179.4 928 160 Z"/>

<path fill="#3794E7" stroke="none" d="
M 928 104
Q 928 108 928.7 111.9 940.25 176.8 928 104 Z"/>

<path fill="#3893E2" stroke="none" d="
M 952 136
L 952 140
Q 970 140 952 136 Z"/>

<path fill="#3292E2" stroke="none" d="
M 880 144
Q 880 148 882 150 895.4 163.4 880 144 Z"/>

<path fill="#3491E5" stroke="none" d="
M 832 48
Q 832 52 831.45 55.95 826.15 93.9 840 112 840 108 840.55 104.05 845.9 66.15 832 48 Z"/>

<path fill="#3391E5" stroke="none" d="
M 880 88
Q 880 92 880.7 95.9 892.25 160.8 880 88 Z"/>

<path fill="#3693E0" stroke="none" d="
M 856 92
Q 874 92 856 88
L 856 92 Z"/>

<path fill="#398FE0" stroke="none" d="
M 832 32
L 832 36
Q 850 36 832 32 Z"/>

<path fill="#3E96EB" stroke="none" d="
M 976 384
L 976 388
Q 994 388 976 384 Z"/>

<path fill="#3994E7" stroke="none" d="
M 992 368
L 992 372
Q 1010 372 992 368 Z"/>

<path fill="#3490E1" stroke="none" d="
M 976.9 167.8
Q 988.65 219.9 976 160 976 164 976.9 167.8 Z"/>

<path fill="#3893E5" stroke="none" d="
M 1000 144
L 1000 148
Q 1018 148 1000 144 Z"/>

<path fill="#3D8EBC" stroke="none" d="
M 632 760
L 632 764
Q 650 764 632 760 Z"/>

<path fill="#4093B9" stroke="none" d="
M 584 760
L 584 764
Q 602 764 584 760 Z"/>

<path fill="#CFDAEC" stroke="none" d="
M 583.5 815.95
Q 584 812 584 808 580 808 576 808 576 812 574 814 572 816 568 816 576.8 868.95 583.5 815.95 Z"/>

<path fill="#BCDDEA" stroke="none" d="
M 592 776
Q 592 780 592 784 592 788 592 792 596 792 598.4 790.05 617.2 774.4 592 776 Z"/>

<path fill="#DEE7EE" stroke="none" d="
M 584 784
Q 580 784 576 784 576 792 576 800 576 804 576 808 580 808 584 808 584 804 584 800 588 800 590 798 592 796 592 792 592 788 592 784 588 784 584 784 Z"/>

<path fill="#CECEE8" stroke="none" d="
M 576 784
Q 580 784 584 784 584 780 582.4 779.2 576 776 568 776 568 792 571.75 807.05 572 808 576 808 576 804 576 800 576 792 576 784 Z"/>

<path fill="#3C93BE" stroke="none" d="
M 584 704
L 584 708
Q 602 708 584 704 Z"/>

<path fill="#C7DBE7" stroke="none" d="
M 496 624
Q 496 628 495.2 631.8 485.55 678.45 512 688 512 684 513.7 680.9 549.95 613 496 624
M 504 632
Q 522 636 504 636
L 504 632 Z"/>

<path fill="#F0F4F9" stroke="none" d="
M 504 636
Q 522 636 504 632
L 504 636 Z"/>

<path fill="#F6F3F6" stroke="none" d="
M 648 684
L 648 680
Q 644 680 640 680 644 684 648 684 Z"/>

<path fill="#D3D6E2" stroke="none" d="
M 626 654
Q 624 652 624 648 644 648 663.25 651.9 664 652 664 656 668 656 668.05 655.45 676.4 597.45 616 632 610.8 677.2 633.45 694.05 636 696 640 696 671.9 692.45 654.9 681.8 652 680 648 680
L 648 684
Q 644 684 640 680 636 680 635.65 678.8 632 668 632 656 628 656 626 654
M 632 628
L 632 624
Q 650 628 632 628 Z"/>

<path fill="#F4F2F5" stroke="none" d="
M 632 624
L 632 628
Q 650 628 632 624 Z"/>

<path fill="#F6F5F7" stroke="none" d="
M 624 648
Q 624 652 626 654 628 656 632 656 644 656 656 656 660 656 664 656 664 652 663.25 651.9 644 648 624 648 Z"/>

<path fill="#CCDCEC" stroke="none" d="
M 584 632
L 588 632
Q 573.75 609.65 544 624 544 628 543.65 631.95 539.45 672.55 552 696 556 696 556.15 695.4 560 672 560 648 560 644 561.5 643.3 577.25 636.25 584 632 Z"/>

<path fill="#D2D4E7" stroke="none" d="
M 592 632
Q 592 636 592 640 592 660 592 680
L 592 684
Q 629.9 660 592 632 Z"/>

<path fill="#A8C8B8" stroke="none" d="
M 456 832
Q 456 836 456 840 460 840 462 838 464 836 464 832 460 832 456 832 Z"/>

<path fill="#D3D7E4" stroke="none" d="
M 454.05 785.55
Q 441.8 770.2 408 776 408 816 408 856 408 860 408 864 421.95 845.95 455.75 844 456 844 456 840 456 836 456 832 460 832 464 832 464 828 465.65 824.8 486.3 783.3 472 832
L 472 836
Q 497 833 504 808 504 812 503.55 815.95 499.3 856.7 544 848 548 848 548.95 846.3 577.75 794.45 536 776 532 776 529.4 777.95 483 811.95 488 752
L 488 748
Q 479.25 775.25 456 792 456 788 454.05 785.55
M 515.55 808.8
Q 512 808 512 792 576.3 823.05 515.55 808.8
M 427.95 831.65
Q 425.75 810.25 416 800 461.45 788.05 444.55 830.65 444 832 440 832 436 832 432 832 428 832 427.95 831.65 Z"/>

<path fill="#6D93C6" stroke="none" d="
M 432 824
Q 432 828 432 832 436 832 440 832 440 828 438.4 824.8 436 820 432 816 432 820 432 824 Z"/>

<path fill="#82A6D1" stroke="none" d="
M 416 800
Q 425.75 810.25 427.95 831.65 428 832 432 832 432 828 432 824 432 820 432 816 436 820 438.4 824.8 440 828 440 832 444 832 444.55 830.65 461.45 788.05 416 800 Z"/>

<path fill="#7EA5D4" stroke="none" d="
M 512 792
Q 512 808 515.55 808.8 576.3 823.05 512 792 Z"/>

<path fill="#BFD7DA" stroke="none" d="
M 392 784
Q 388 784 386 786 360 812 336 840
L 336 844
Q 356.45 844.45 368 832 372 832 372.5 830.7 374.45 825.65 392 784 Z"/>

<path fill="#B9DAE3" stroke="none" d="
M 344 784
L 344 788
Q 362 788 344 784 Z"/>

<path fill="#3A91BB" stroke="none" d="
M 360 704
Q 360 708 362 710 375.4 723.4 360 704 Z"/>

<path fill="#3E91BA" stroke="none" d="
M 360 728
Q 360 732 362 734 375.4 747.4 360 728 Z"/>

<path fill="#D4D7E5" stroke="none" d="
M 392 624
Q 392 620 391.05 616.25 387.55 601.7 360 640 360 644 360 648 360 672 360 696 364 696 364.25 695 380.7 633.55 384 688 388 688 391.9 688.75 434.8 697.2 392 680 392 676 393.75 673.05 422.55 624.8 392 624 Z"/>

<path fill="#D1E5E4" stroke="none" d="
M 480 672
L 480 676
Q 498 676 480 672 Z"/>

<path fill="#D0E1E4" stroke="none" d="
M 440 680
Q 440 684 440 688
L 440 692
Q 512.95 688 440 680 Z"/>

<path fill="#E0E6ED" stroke="none" d="
M 432 656
Q 432 660 432 664 432 676 435.65 686.8 436 688 440 688 440 684 440 680 440 676 440 672 440 668 440 664 461.75 665.75 473.3 657.9 476 656 480 656 480 652 479.4 651.9 456 648 432 648 432 652 432 656 Z"/>

<path fill="#C9CFD4" stroke="none" d="
M 462.4 628.9
Q 447 637 448 624 444 624 443.3 625.5 437.65 637.65 424 640 424 652 427.65 662.8 428 664 432 664 432 660 432 656 432 652 432 648 456 648 479.4 651.9 480 652 480 656 484 656 484.3 654.95 493.5 622.5 464 624 464 628 462.4 628.9 Z"/>

<path fill="#F8F8EA" stroke="none" d="
M 456 624
Q 452 624 448 624 447 637 462.4 628.9 464 628 464 624 460 624 456 624 Z"/>

<path fill="#4094B9" stroke="none" d="
M 440 536
L 440 540
Q 458 540 440 536 Z"/>

<path fill="#379DEA" stroke="none" d="
M 480 400
L 480 404
Q 498 404 480 400 Z"/>

<path fill="#3E92BF" stroke="none" d="
M 568 496
Q 568 500 570 502 583.4 515.4 568 496 Z"/>

<path fill="#3493B9" stroke="none" d="
M 488 576
L 488 580
Q 506 580 488 576 Z"/>

<path fill="#3799E9" stroke="none" d="
M 496 452
Q 526.75 452 496 448
L 496 452 Z"/>

<path fill="#2F8DD3" stroke="none" d="
M 520 416
Q 520 420 522 422 535.4 435.4 520 416 Z"/>

<path fill="#2992DA" stroke="none" d="
M 488 420
Q 528.8 411.45 488 416
L 488 420 Z"/>

<path fill="#3186C3" stroke="none" d="
M 568 472
L 568 476
Q 586 476 568 472 Z"/>

<path fill="#328FD9" stroke="none" d="
M 592 456
L 592 460
Q 610 460 592 456 Z"/>

<path fill="#3694E3" stroke="none" d="
M 568 416
L 568 420
Q 586 420 568 416 Z"/>

<path fill="#3693E3" stroke="none" d="
M 592 424
L 592 428
Q 610 428 592 424 Z"/>

<path fill="#518AB5" stroke="none" d="
M 312 776
L 312 780
Q 330 780 312 776 Z"/>

<path fill="#DADEE8" stroke="none" d="
M 264 760
Q 264 764 264 768 264 808 264 848 268 848 272 848 300 848 328 848 328 844 327.3 843.9 294.15 837.9 280 816 280 812 280.25 812 314.75 809.9 304 784 300 784 296 783.7 263.25 781 320 760
L 324 760
Q 297.05 741.3 264 760 Z"/>

<path fill="#358FE1" stroke="none" d="
M 232 728
L 232 732
Q 250 732 232 728 Z"/>

<path fill="#C9D5D2" stroke="none" d="
M 272 688
Q 268 688 264 688 264 692 266 694 268 696 272 696 272 692 272 688 Z"/>

<path fill="#CACBC6" stroke="none" d="
M 272 616
Q 272 612 272 608 272 604 272 600 268 600 264 600 264 608 267.2 614.4 268 616 272 616 Z"/>

<path fill="#CDDEE9" stroke="none" d="
M 272 608
Q 272 612 272 616 279.3 658.3 273.05 680.3 272 684 272 688 272 692 272 696 288 696 289.4 691.5 291.55 684.45 295.95 665.9 312.45 595.4 272 600 272 604 272 608 Z"/>

<path fill="#DCE6EC" stroke="none" d="
M 320 624
Q 320 632 323.2 638.4 324 640 328 640 332 640 335.75 639 385.15 626.15 320 624 Z"/>

<path fill="#CECDC9" stroke="none" d="
M 320 624
Q 316 624 312.8 625.65 308 628 304 632 306.3 667.2 320 692
L 320 688
Q 314.25 658.25 326 646.05 328 644 328 640 324 640 323.2 638.4 320 632 320 624 Z"/>

<path fill="#378CE6" stroke="none" d="
M 152 688
Q 152 692 154 694 167.4 707.4 152 688 Z"/>

<path fill="#3C97EA" stroke="none" d="
M 152 656
L 152 660
Q 170 660 152 656 Z"/>

<path fill="#3392E7" stroke="none" d="
M 104 608
L 104 612
Q 122 612 104 608 Z"/>

<path fill="#349AE8" stroke="none" d="
M 104 504
Q 104 508 106 510 119.4 523.4 104 504 Z"/>

<path fill="#3892E0" stroke="none" d="
M 312 544
L 312 548
Q 330 548 312 544 Z"/>

<path fill="#3C93BB" stroke="none" d="
M 264 544
L 264 548
Q 282 548 264 544 Z"/>

<path fill="#3C97BA" stroke="none" d="
M 216 540
Q 234 540 216 536
L 216 540 Z"/>

<path fill="#3D96E9" stroke="none" d="
M 232 512
L 232 516
Q 250 516 232 512 Z"/>

<path fill="#3D96B7" stroke="none" d="
M 216 504
L 216 508
Q 234 508 216 504 Z"/>

<path fill="#4576CA" stroke="none" d="
M 313.55 423.25
Q 332.4 462.75 312 416 312 420 313.55 423.25 Z"/>

<path fill="#3593E1" stroke="none" d="
M 168 272
L 168 276
Q 186 276 168 272 Z"/>

<path fill="#3D93BB" stroke="none" d="
M 296 288
Q 296 292 298 294 311.4 307.4 296 288 Z"/>

<path fill="#3A93BE" stroke="none" d="
M 298 262
Q 311.4 275.4 296 256 296 260 298 262 Z"/>

<path fill="#3C97B7" stroke="none" d="
M 248 252
Q 266 252 248 248
L 248 252 Z"/>

<path fill="#3994EB" stroke="none" d="
M 264 232
L 264 236
Q 282 236 264 232 Z"/>

<path fill="#3B94B5" stroke="none" d="
M 248 220
Q 266 220 248 216
L 248 220 Z"/>

<path fill="#3697E7" stroke="none" d="
M 88 176
L 88 180
Q 106 180 88 176 Z"/>

<path fill="#378FC3" stroke="none" d="
M 248 156
Q 266 156 248 152
L 248 156 Z"/>

<path fill="#3D93BE" stroke="none" d="
M 248 184
L 248 188
Q 266 188 248 184 Z"/>

<path fill="#369AEA" stroke="none" d="
M 216 48
Q 216 52 218 54 231.4 67.4 216 48 Z"/>

<path fill="#368FE4" stroke="none" d="
M 168 8
L 168 12
Q 186 12 168 8 Z"/>

<path fill="#339CE7" stroke="none" d="
M 608 192
Q 608 196 610 198 623.4 211.4 608 192 Z"/>

<path fill="#2E9AE3" stroke="none" d="
M 496 216
Q 496 220 498 222 511.4 235.4 496 216 Z"/>

<path fill="#3ABAEC" stroke="none" d="
M 512 216
L 512 220
Q 530 220 512 216 Z"/>

<path fill="#4BD4E3" stroke="none" d="
M 640 288
L 640 292
Q 658 292 640 288 Z"/>

<path fill="#8CE9EB" stroke="none" d="
M 608 264
Q 608 268 610 270 636 296 608 264 Z"/>

<path fill="#47D3E5" stroke="none" d="
M 632 264
Q 632 268 633.55 268.75 661.4 282 632 264 Z"/>

<path fill="#40C8E4" stroke="none" d="
M 576 284
Q 594 284 576 280
L 576 284 Z"/>

<path fill="#2E93E7" stroke="none" d="
M 416 312
L 416 316
Q 434 316 416 312 Z"/>

<path fill="#369EEA" stroke="none" d="
M 448 332
Q 466 332 448 328
L 448 332 Z"/>

<path fill="#3594E2" stroke="none" d="
M 448 304
Q 448 308 450 310 463.4 323.4 448 304 Z"/>

<path fill="#3E47A6" stroke="none" d="
M 344 320
Q 344 316 344 312 344 308 344 304 340 304 336 304 336 312 339.2 318.4 340 320 344 320 Z"/>

<path fill="#B79EB1" stroke="none" d="
M 344 312
Q 344 316 344 320 344 324 342.4 327.2 340 332 336 336 344 359.25 354.5 345.95 356 344 360 344 360 340 360 336 360 316 360 296 356 296 352.8 297.65 348 300 344 304 344 308 344 312 Z"/>

<path fill="#4168C8" stroke="none" d="
M 384 256
Q 380 256 376 256 376 260 376 264 380 264 382 262 384 260 384 256 Z"/>

<path fill="#6051BB" stroke="none" d="
M 360 280
Q 360 284 360 288 364 288 368 288 368 284 368 280 364 280 360 280 Z"/>

<path fill="#BD8FBE" stroke="none" d="
M 360 288
Q 360 292 360 296 364 296 366 294 368 292 368 288 364 288 360 288 Z"/>

<path fill="#4E4AC1" stroke="none" d="
M 344 288
Q 344 292 344 296 344 300 344 304 348 300 352.8 297.65 356 296 360 296 360 292 360 288 356 288 352 288 348 288 344 288 Z"/>

<path fill="#447EE3" stroke="none" d="
M 336 288
Q 336 292 336 296 336 300 336 304 340 304 344 304 344 300 344 296 344 292 344 288 340 288 336 288 Z"/>

<path fill="#366FE4" stroke="none" d="
M 360 272
Q 360 268 360 264 364 260 366.4 255.2 368 252 368 248 364 248 360.4 249.2 352 252 344 256 344 268 344 280 344 284 344 288 348 288 352 288 356 288 360 288 360 284 360 280 360 276 360 272 Z"/>

<path fill="#244DCE" stroke="none" d="
M 360 264
Q 360 268 360 272 360 276 360 280 364 280 368 280 368 276 368 272 372 272 374 270 376 268 376 264 376 260 376 256 380 256 384 256 384 252 384 248 380 248 376 248 372 248 368 248 368 252 366.4 255.2 364 260 360 264 Z"/>

<path fill="#3581DC" stroke="none" d="
M 389.55 246.05
Q 424.5 202.8 368 240 368 244 368 248 372 248 376 248 380 248 384 248 388 248 389.55 246.05 Z"/>

<path fill="#D4D6D8" stroke="none" d="
M 448 240
L 452 240
Q 415.75 228.4 368 288 368 292 366 294 364 296 360 296 360 316 360 336 360 340 360 344 384.25 320.25 398.55 287.4 400 284 400 280 427.75 275.75 435.7 249.15 436 248 440 248 440 244 440 240 444 240 448 240 Z"/>

<path fill="#AADFEC" stroke="none" d="
M 446 246
Q 448 244 448 240 444 240 440 240 440 244 440 248 444 248 446 246 Z"/>

<path fill="#9BDFED" stroke="none" d="
M 464 216
L 464 220
Q 482 220 464 216 Z"/>

<path fill="#3F94B6" stroke="none" d="
M 328 96
Q 328 100 330 102 343.4 115.4 328 96 Z"/>

<path fill="#3093E9" stroke="none" d="
M 424 192
Q 424 196 425.7 196.95 460.75 216.4 496 200 500 200 500.75 198.45 509.2 180.45 488 152 484 152 482.9 153.8 464.15 184.15 424 192 Z"/>

<path fill="#3695C4" stroke="none" d="
M 424 160
L 424 164
Q 442 164 424 160 Z"/>

<path fill="#3D96B9" stroke="none" d="
M 376 152
L 376 156
Q 394 156 376 152 Z"/>

<path fill="#3B93B9" stroke="none" d="
M 376 120
L 376 124
Q 394 124 376 120 Z"/>

<path fill="#3C92BF" stroke="none" d="
M 376 88
L 376 92
Q 394 92 376 88 Z"/>

<path fill="#3C95B5" stroke="none" d="
M 328 72
L 328 76
Q 346 76 328 72 Z"/>

<path fill="#3595E8" stroke="none" d="
M 608 160
Q 608 164 610 166 623.4 179.4 608 160 Z"/>

<path fill="#3093EA" stroke="none" d="
M 624 136
Q 624 140 626 142.3 651.7 172.45 672 232 676 232 676.8 230.4 703.05 178.55 680 152
L 680 156
Q 670.8 122.25 624 136 Z"/>

<path fill="#2E73C2" stroke="none" d="
M 374.4 500.9
L 360.25 496.25
Q 355.4 444.4 336 488 367.75 542.3 446.55 508.65 448 508 448 504 444 504 440.8 502.4 436 500 432 496 396.25 508.05 374.4 500.9 Z"/>

<path fill="#0B27A4" stroke="none" d="
M 472 472
Q 468 472 464 472 462.4 497.2 478.05 478.4 480 476 480 472 476 472 472 472 Z"/>

<path fill="#0E23A8" stroke="none" d="
M 426 462
Q 428 464 432 464 432 460 432 456 428 456 424 456 424 460 426 462 Z"/>

<path fill="#3B92E4" stroke="none" d="
M 496 500
L 496 496
Q 492 496 488 496 492 500 496 500 Z"/>

<path fill="#2454C8" stroke="none" d="
M 552 472
Q 548 472 544 471.95 514.25 471.45 480 472 480 476 478.05 478.4 462.4 497.2 464 472 460 472 459.25 470.45 453.45 458.55 432 464 428 464 426 462 424 460 424 456 428 456 432 456 432 452 430.45 448.75 399.55 383.3 368 416 376 424 382.15 433.25 384 436 384 440 414.5 465.5 436 496
L 432 496
Q 436 500 440.8 502.4 444 504 448 504 458.25 494.25 480 495.75 484 496 488 496 492 496 496 496 500 496 503.9 496.75 549.75 505.75 552 472
M 448 472
Q 466 476 448 476
L 448 472
M 400 452
L 400 448
Q 430.75 452 400 452 Z"/>

<path fill="#0F28A7" stroke="none" d="
M 400 448
L 400 452
Q 430.75 452 400 448 Z"/>

<path fill="#05249A" stroke="none" d="
M 448 476
Q 466 476 448 472
L 448 476 Z"/>

<path fill="#339BEB" stroke="none" d="
M 632 384
Q 632 388 631.55 388.05 610.25 390.25 600 400 624.65 439.7 633.4 446.05 636 448 640 448 652.45 459 664 428
L 664 432
Q 673.65 466.05 678 461.9 680 460 680 456 692.75 414 661.7 378 660 376 656 376 652 376 651.8 376.9 649 389 632 384 Z"/>

<path fill="#0C5ED1" stroke="none" d="
M 632 356
L 632 352
Q 628 352 624 352 628 356 632 356 Z"/>

<path fill="#165ED9" stroke="none" d="
M 598.5 356.65
Q 600 356 600 352 596 352 592 352 584 352 576 352 578.55 365.45 598.5 356.65 Z"/>

<path fill="#4CD4E8" stroke="none" d="
M 632 304
Q 639.75 312.25 643.75 327 644 328 648 328 648 324 650 321.95 663.9 307.55 632 304 Z"/>

<path fill="#51D3EC" stroke="none" d="
M 640 248
Q 640 252 640 256
L 644 256
Q 644 252 640 248 Z"/>

<path fill="#50D9E7" stroke="none" d="
M 570 262
Q 572 264 576 264 576 260 574 258 572 256 568 256 568 260 570 262 Z"/>

<path fill="#54DAE8" stroke="none" d="
M 574 246
Q 576 244 576 240 572 240 568 240 568 244 568 248 572 248 574 246 Z"/>

<path fill="#2E7FE3" stroke="none" d="
M 392 328
Q 388 328 387.75 329 375.55 374 344 376 354.55 413.45 378.05 438 380 440 384 440 384 436 382.15 433.25 376 424 368 416 399.55 383.3 430.45 448.75 432 452 432 456 432 460 432 464 453.45 458.55 459.25 470.45 460 472 464 472 468 472 472 472 476 472 480 472 480 468 480 464 480 452 480 440 476 440 475.5 438.7 462 402 456 368 512 368 568 368 572 368 576 368 558.55 390.55 538 410.15 536 412 536 416 579.7 399.05 615 389
L 632 384
Q 649 389 651.8 376.9 652 376 656 376 656 372 657.65 371.15 700.8 348.25 632 352
L 632 356
Q 628 356 624 352 620 352 616 352 608 352 600 352 600 356 598.5 356.65 578.55 365.45 576 352 572 352 568 352 564 352 560 352 556 352 552 352 548 352 544.15 352.65 476.7 363.3 448 336 444 336 443.95 336.55 434.2 406.25 424 328 420 328 418.2 330 409.65 339.55 392 328
M 584 372
L 584 368
Q 602 372 584 372
M 416 420
L 416 416
Q 434 420 416 420 Z"/>

<path fill="#1B68E6" stroke="none" d="
M 416 416
L 416 420
Q 434 420 416 416 Z"/>

<path fill="#529FF2" stroke="none" d="
M 584 368
L 584 372
Q 602 372 584 368 Z"/>

<path fill="#37B8E8" stroke="none" d="
M 552 192
Q 548 192 545.2 193.8 527.3 205.2 544 224 544 228 542.2 229.2 510.3 250.3 472 264 556.65 273.45 513.95 329.5 512 332 512 336 522.25 349.75 552 348
L 552 352
Q 556 352 560 352 560 348 560 344 645 353.05 652 328
L 648 328
Q 644 328 643.75 327 639.75 312.25 632 304 628 304 625.15 305.8 579.75 334.45 560 272 568 272 574.4 268.8 576 268 576 264 572 264 570 262 568 260 568 256 568 252 568 248 568 244 568 240 572 240 576 240 610.25 241.75 632.95 254.3 636 256 640 256 640 252 640 248 640 244 638.5 243.3 626.4 237.65 624 224
L 624 220
Q 602.4 225.65 600 216 600 212 599.25 211.9 581.45 208.4 552 192
M 562 294
Q 560 292 560 288 575.4 307.4 562 294 Z"/>

<path fill="#0C4DE2" stroke="none" d="
M 560 288
Q 560 292 562 294 575.4 307.4 560 288 Z"/>

<path fill="#3C92BA" stroke="none" d="
M 504 28
Q 522 28 504 24
L 504 28 Z"/>

<path fill="#3592E3" stroke="none" d="
M 608 80
Q 608 84 610 86 623.4 99.4 608 80 Z"/>

<path fill="#3887D6" stroke="none" d="
M 608 8
Q 608 12 610 14 623.4 27.4 608 8 Z"/>

<path fill="#223267" stroke="none" d="
M 64 0
Q 60 0 56 0 56 72 60 143.75 60 144 64 144 64 140 64 136 64 68 64 0 Z"/>

<path fill="#0B0F27" fill-opacity="0.996078431372549" stroke="none" d="
M 56 0
Q 52 0 48 0 24 0 0 0 0 508.05 0 1016 0 1020 0 1024 28 1024 56 1024 60 1024 64 1024 64 1020 64 1016 64 960 64 904 68 904 72 904 72 900 72 896 72 892 72 888 68 888 67.95 887.55 64 852 64 816 64 812 64 808 64 592.05 64 376 64 372 64 368 64 352 64 336 60 336 58 334 56 332 56 328 60 328 64 328 64 324 64 320 64 316 64 312 60 312 59.95 311.55 56 276 56 240 60 240 64 240 64 236 64 232 64 228 64 224 60 224 59.2 222.4 56 216 56 208 60 208 64 208 64 204 64 200 60 200 59.9 199.4 56 176 56 152 60 152 64 152 64 148 64 144 60 144 60 143.75 56 72 56 0 Z"/>
</g>

<g id="Layer1_0_FILL">
<path fill="#ACADB0" stroke="none" d="
M 92.2 19.1
L 90.55 19.1 90.55 24.75 92.2 24.75 92.2 19.1
M 95.3 16
L 93.65 16 93.65 24.75 95.3 24.75 95.3 22.6 95.65 22.25
Q 96.6 23.25 97.1 24.75
L 98.95 24.75
Q 98.6 23.8 98.05 22.85 97.45 21.95 96.8 21.15
L 98.9 19.1 96.9 19.1 95.3 20.65 95.3 16
M 82.15 24.4
Q 82.8 23.9 82.8 22.95 82.8 21.55 81.05 21.25
L 80.75 21.2
Q 80.2 21.1 79.95 21 79.7 20.85 79.7 20.65 79.7 20.45 79.95 20.35 80.15 20.2 80.4 20.2 80.75 20.2 81.05 20.35 81.35 20.55 81.55 20.8
L 82.65 19.9
Q 82.25 19.45 81.75 19.2 81.25 18.95 80.5 18.95 79.5 18.95 78.85 19.4 78.2 19.85 78.2 20.75 78.2 21.5 78.65 21.9 79.1 22.3 79.9 22.45
L 80.3 22.5
Q 80.8 22.6 81 22.75 81.2 22.95 81.2 23.15 81.2 23.4 81 23.5 80.8 23.65 80.5 23.65 80 23.65 79.7 23.45 79.35 23.25 79.1 22.85
L 78 23.75
Q 78.35 24.35 79 24.65 79.65 24.9 80.4 24.9 81.5 24.9 82.15 24.4
M 85.5 16
L 83.85 16 83.85 24.75 85.5 24.75 85.5 21.05
Q 85.65 20.75 85.9 20.55 86.2 20.35 86.6 20.35 87 20.35 87.2 20.6 87.4 20.8 87.4 21.25
L 87.4 24.75 89.05 24.75 89.05 21
Q 89.05 20.1 88.55 19.5 88.05 18.95 87.15 18.95 86.55 18.95 86.15 19.2 85.75 19.5 85.5 19.9
L 85.5 16
M 90.65 16.5
Q 90.4 16.75 90.4 17.25 90.4 17.7 90.65 17.95 90.9 18.2 91.35 18.2 91.85 18.2 92.1 17.95 92.35 17.7 92.35 17.25 92.35 16.75 92.1 16.5 91.85 16.25 91.35 16.25 90.9 16.25 90.65 16.5
M 120.3 19.1
L 118.65 19.1 118.65 24.75 120.3 24.75 120.3 19.1
M 113.6 16
L 111.95 16 111.95 24.75 113.6 24.75 113.6 21.05
Q 113.75 20.75 114 20.55 114.3 20.35 114.7 20.35 115.1 20.35 115.3 20.6 115.5 20.8 115.5 21.25
L 115.5 24.75 117.15 24.75 117.15 21
Q 117.15 20.1 116.65 19.5 116.15 18.95 115.25 18.95 114.65 18.95 114.25 19.2 113.85 19.5 113.6 19.9
L 113.6 16
M 120.2 17.95
Q 120.45 17.7 120.45 17.25 120.45 16.75 120.2 16.5 119.95 16.25 119.45 16.25 119 16.25 118.75 16.5 118.5 16.75 118.5 17.25 118.5 17.7 118.75 17.95 119 18.2 119.45 18.2 119.95 18.2 120.2 17.95
M 110.75 19.9
Q 110.35 19.45 109.85 19.2 109.35 18.95 108.6 18.95 107.6 18.95 106.95 19.4 106.3 19.85 106.3 20.75 106.3 21.5 106.75 21.9 107.2 22.3 108 22.45
L 108.4 22.5
Q 108.9 22.6 109.1 22.75 109.3 22.95 109.3 23.15 109.3 23.4 109.1 23.5 108.9 23.65 108.6 23.65 108.1 23.65 107.8 23.45 107.45 23.25 107.2 22.85
L 106.1 23.75
Q 106.45 24.35 107.1 24.65 107.75 24.9 108.5 24.9 109.6 24.9 110.25 24.4 110.9 23.9 110.9 22.95 110.9 21.55 109.15 21.25
L 108.85 21.2
Q 108.3 21.1 108.05 21 107.8 20.85 107.8 20.65 107.8 20.45 108.05 20.35 108.25 20.2 108.5 20.2 108.85 20.2 109.15 20.35 109.45 20.55 109.65 20.8
L 110.75 19.9
M 104.9 20.3
Q 104.5 19.6 103.85 19.3 103.25 18.95 102.45 18.95 101.65 18.95 101.05 19.3 100.4 19.6 100 20.3 99.6 20.95 99.6 21.95 99.6 22.9 100 23.55 100.4 24.25 101.05 24.6 101.65 24.9 102.45 24.9 103.25 24.9 103.85 24.6 104.5 24.25 104.9 23.55 105.3 22.9 105.3 21.95 105.3 20.95 104.9 20.3
M 102.45 20.35
Q 103 20.35 103.35 20.75 103.65 21.15 103.65 21.95 103.65 22.7 103.35 23.1 103 23.5 102.45 23.5 101.9 23.5 101.6 23.1 101.25 22.7 101.25 21.95 101.25 21.15 101.6 20.75 101.9 20.35 102.45 20.35
M 123.4 16
L 121.75 16 121.75 24.75 123.15 24.75 123.25 24.2
Q 123.55 24.55 123.95 24.75 124.3 24.9 124.75 24.9 125.45 24.9 126 24.55 126.6 24.2 126.9 23.55 127.25 22.85 127.25 21.95 127.25 21 126.9 20.3 126.6 19.65 126 19.3 125.45 18.95 124.75 18.95 123.95 18.95 123.4 19.4
L 123.4 16
M 124.3 20.35
Q 124.9 20.35 125.25 20.8 125.6 21.2 125.6 21.95 125.6 22.65 125.25 23.05 124.9 23.5 124.3 23.5 123.75 23.5 123.4 23.05
L 123.4 20.8
Q 123.75 20.35 124.3 20.35 Z"/>

<path fill="#00A8FC" stroke="none" d="
M 158.5 26.2
L 159.3 26.2 162.65 16 161.85 16 158.5 26.2
M 171.1 19.1
L 170.25 19.1 170.25 24.75 171.1 24.75 171.1 19.1
M 166.25 18.95
Q 165.65 18.95 165.05 19.2 164.45 19.45 164.1 19.85
L 164.6 20.4
Q 164.95 20.05 165.35 19.85 165.8 19.65 166.25 19.65 166.9 19.65 167.25 19.95 167.6 20.3 167.6 20.9
L 167.6 21.3
Q 165.8 21.3 164.85 21.8 163.95 22.25 163.95 23.25 163.95 24.1 164.45 24.5 165 24.9 165.75 24.9 166.3 24.9 166.8 24.6 167.35 24.35 167.6 23.9
L 167.7 24.75 168.4 24.75 168.4 20.9
Q 168.4 19.95 167.85 19.45 167.3 18.95 166.25 18.95
M 165.05 24
Q 164.75 23.75 164.75 23.25 164.75 22.6 165.45 22.25 166.1 21.95 167.6 21.95
L 167.6 23.15
Q 166.9 24.2 165.9 24.2 165.35 24.2 165.05 24
M 170.65 17.7
Q 170.9 17.7 171.05 17.55 171.2 17.4 171.2 17.15 171.2 16.9 171.05 16.75 170.9 16.6 170.65 16.6 170.45 16.6 170.25 16.75 170.1 16.9 170.1 17.15 170.1 17.4 170.25 17.55 170.45 17.7 170.65 17.7 Z"/>

<path fill="#B5BAC1" stroke="none" d="
M 140.45 19.85
Q 140.8 20.05 141.1 20.45
L 141.65 20
Q 141.25 19.45 140.8 19.2 140.35 18.95 139.65 18.95 138.75 18.95 138.25 19.35 137.7 19.8 137.7 20.55 137.7 21.3 138.15 21.65 138.6 22 139.35 22.15
L 139.65 22.25
Q 140.1 22.35 140.4 22.45 140.65 22.55 140.8 22.75 140.95 22.9 140.95 23.2 140.95 23.65 140.6 23.95 140.3 24.2 139.75 24.2 139.2 24.2 138.8 24 138.4 23.75 138.15 23.25
L 137.5 23.8
Q 137.85 24.35 138.45 24.6 139 24.9 139.7 24.9 140.6 24.9 141.2 24.45 141.75 23.95 141.75 23.15 141.75 22.4 141.35 22.1 140.9 21.75 140.2 21.6
L 139.9 21.55
Q 139.1 21.35 138.75 21.15 138.45 20.95 138.45 20.55 138.45 20.1 138.8 19.9 139.1 19.65 139.65 19.65 140.1 19.65 140.45 19.85
M 131.6 19.1
L 131.6 22.95
Q 131.6 23.9 132.1 24.4 132.55 24.9 133.45 24.9 134 24.9 134.45 24.65 134.9 24.4 135.2 24
L 135.35 24.75 136.05 24.75 136.05 19.1 135.2 19.1 135.2 23.2
Q 134.85 23.75 134.5 24 134.1 24.25 133.65 24.25 132.45 24.25 132.45 22.95
L 132.45 19.1 131.6 19.1
M 151.45 18.95
Q 150.85 18.95 150.25 19.3 149.7 19.65 149.35 20.3 149 21 149 21.95 149 22.9 149.35 23.55 149.7 24.2 150.25 24.55 150.85 24.9 151.45 24.9 152.1 24.9 152.55 24.65 153.05 24.4 153.35 24
L 153.4 24.75 154.15 24.75 154.15 16 153.3 16 153.3 19.8
Q 153.05 19.4 152.55 19.2 152.05 18.95 151.45 18.95
M 150.1 20.6
Q 150.35 20.1 150.75 19.85 151.15 19.65 151.65 19.65 152.65 19.65 153.3 20.7
L 153.3 23.15
Q 152.65 24.2 151.65 24.2 151.15 24.2 150.75 24 150.35 23.75 150.1 23.25 149.85 22.7 149.85 21.95 149.85 21.15 150.1 20.6
M 144.15 19.35
Q 143.55 19.7 143.25 20.4 142.9 21.1 142.9 21.9 142.9 22.75 143.25 23.4 143.55 24.1 144.1 24.5 144.7 24.9 145.55 24.9 146.35 24.9 146.9 24.65 147.45 24.35 147.9 23.7
L 147.25 23.3
Q 146.7 24.2 145.6 24.2 144.8 24.2 144.3 23.65 143.8 23.1 143.75 22.1
L 147.85 22.1
Q 147.85 21.95 147.85 21.7 147.85 20.35 147.2 19.65 146.55 18.95 145.5 18.95 144.7 18.95 144.15 19.35
M 144.35 20.1
Q 144.8 19.65 145.45 19.65 146.15 19.65 146.6 20.05 147.1 20.5 147.1 21.4
L 143.8 21.4
Q 143.9 20.55 144.35 20.1 Z"/>
</g>

<g id="Layer0_0_FILL">
<path fill="#DBDEE1" stroke="none" d="
M 214.5 58.95
L 213.5 58.95 213.5 63.75
Q 213.1 64.4 212.65 64.7 212.25 64.95 211.65 64.95 210.25 64.95 210.25 63.45
L 210.25 58.95 209.3 58.95 209.3 63.45
Q 209.3 64.55 209.85 65.15 210.45 65.75 211.45 65.75 212.1 65.75 212.65 65.45 213.2 65.15 213.5 64.7
L 213.65 65.55 214.5 65.55 214.5 58.95
M 223.55 59.8
L 223.55 58.95 221.4 58.95 221.4 56.7 220.45 57.05 220.45 58.95 219.05 58.95 219.05 59.8 220.45 59.8 220.45 63.8
Q 220.45 64.8 220.9 65.25 221.35 65.75 222.2 65.75 222.95 65.75 223.55 65.4
L 223.55 64.6
Q 223.2 64.8 222.95 64.85 222.75 64.95 222.4 64.95 221.4 64.95 221.4 63.85
L 221.4 59.8 223.55 59.8
M 230.4 60.4
Q 230 59.6 229.3 59.2 228.65 58.8 227.75 58.8 226.9 58.8 226.2 59.2 225.5 59.6 225.1 60.4 224.7 61.2 224.7 62.25 224.7 63.3 225.1 64.1 225.5 64.9 226.2 65.3 226.9 65.75 227.75 65.75 228.65 65.75 229.35 65.3 230 64.9 230.4 64.1 230.8 63.3 230.8 62.25 230.8 61.2 230.4 60.4
M 226.25 60.3
Q 226.85 59.6 227.75 59.6 228.7 59.6 229.25 60.3 229.85 61 229.85 62.25 229.85 63.55 229.25 64.25 228.7 64.95 227.75 64.95 226.85 64.95 226.25 64.25 225.7 63.55 225.7 62.25 225.7 60.95 226.25 60.3
M 235 58.8
Q 234.25 58.8 233.55 59.2 232.9 59.6 232.5 60.35 232.1 61.15 232.1 62.25 232.1 63.35 232.5 64.15 232.9 64.95 233.55 65.35 234.25 65.75 235 65.75 235.7 65.75 236.25 65.45 236.85 65.15 237.15 64.7
L 237.25 65.55 238.05 65.55 238.05 55.35 237.1 55.35 237.1 59.8
Q 236.8 59.35 236.25 59.05 235.65 58.8 235 58.8
M 235.15 59.6
Q 236.35 59.6 237.1 60.8
L 237.1 63.7
Q 236.35 64.95 235.15 64.95 234.65 64.95 234.15 64.65 233.7 64.4 233.4 63.8 233.1 63.2 233.1 62.25 233.1 61.35 233.4 60.75 233.7 60.15 234.15 59.85 234.65 59.6 235.15 59.6
M 201.45 62.25
Q 201.45 63.3 201.85 64.1 202.25 64.9 202.95 65.3 203.65 65.75 204.5 65.75 205.4 65.75 206.1 65.3 206.75 64.9 207.15 64.1 207.55 63.3 207.55 62.25 207.55 61.2 207.15 60.4 206.75 59.6 206.05 59.2 205.4 58.8 204.5 58.8 203.65 58.8 202.95 59.2 202.25 59.6 201.85 60.4 201.45 61.2 201.45 62.25
M 204.5 59.6
Q 205.45 59.6 206 60.3 206.6 61 206.6 62.25 206.6 63.55 206 64.25 205.45 64.95 204.5 64.95 203.6 64.95 203 64.25 202.45 63.55 202.45 62.25 202.45 60.95 203 60.3 203.6 59.6 204.5 59.6
M 195.55 58.95
L 194.55 58.95 197.05 65.6 196.85 66.1
Q 196.55 66.85 196.2 67.2 195.9 67.55 195.3 67.55 194.95 67.55 194.5 67.35
L 194.5 68.2
Q 194.9 68.35 195.35 68.35 196.2 68.35 196.7 67.9 197.2 67.4 197.6 66.5
L 200.5 58.95 199.55 58.95 197.5 64.35 195.55 58.95
M 256.35 64.2
Q 256 64.2 255.8 64.4 255.6 64.6 255.6 64.9 255.6 65.25 255.8 65.45 256 65.65 256.35 65.65 256.65 65.65 256.85 65.45 257.1 65.25 257.1 64.9 257.1 64.6 256.85 64.4 256.65 64.2 256.35 64.2
M 247.7 58.95
L 246.7 58.95 249.2 65.6 249 66.1
Q 248.7 66.85 248.35 67.2 248.05 67.55 247.45 67.55 247.1 67.55 246.65 67.35
L 246.65 68.2
Q 247.05 68.35 247.5 68.35 248.35 68.35 248.85 67.9 249.35 67.4 249.75 66.5
L 252.65 58.95 251.7 58.95 249.65 64.35 247.7 58.95
M 244.3 61.1
L 244.3 61.5
Q 242.2 61.55 241.15 62.1 240.05 62.65 240.05 63.85 240.05 64.8 240.65 65.25 241.3 65.75 242.15 65.75 242.8 65.75 243.4 65.4 244 65.05 244.3 64.55
L 244.45 65.55 245.25 65.55 245.25 61.1
Q 245.25 59.95 244.6 59.35 243.95 58.8 242.75 58.8 242.05 58.8 241.35 59.1 240.7 59.4 240.25 59.85
L 240.8 60.5
Q 241.2 60.05 241.75 59.8 242.25 59.6 242.75 59.6 243.55 59.6 243.9 59.95 244.3 60.35 244.3 61.1
M 244.3 62.25
L 244.3 63.7
Q 243.55 64.95 242.35 64.95 241.7 64.95 241.35 64.65 241 64.35 241 63.8 241 63.05 241.8 62.65 242.6 62.3 244.3 62.25
M 257.55 57.1
Q 258 57.6 258 58.4 258 59.3 257.45 59.8 256.85 60.35 255.9 60.55
L 255.95 62.55 256.75 62.55 256.8 61.05
Q 257.35 60.95 257.85 60.55 258.35 60.2 258.7 59.6 259 59 259 58.3 259 57.55 258.65 56.95 258.3 56.35 257.7 56.05 257.1 55.7 256.3 55.7 255.3 55.7 254.6 56.2 253.85 56.7 253.5 57.5
L 254.4 57.9
Q 254.7 57.2 255.15 56.9 255.6 56.6 256.25 56.6 257.1 56.6 257.55 57.1
M 151.05 65.55
L 152.05 65.55 152.05 55.9 151.05 55.9 151.05 65.55
M 142.3 59.85
Q 142.7 59.55 143.25 59.55 144.65 59.55 144.65 61.05
L 144.65 65.55 145.65 65.55 145.65 61.05
Q 145.65 59.95 145.05 59.35 144.5 58.8 143.45 58.8 142.8 58.8 142.3 59.05 141.75 59.35 141.4 59.85
L 141.3 58.95 140.45 58.95 140.45 65.55 141.4 65.55 141.4 60.75
Q 141.85 60.15 142.3 59.85
M 162.4 65.55
L 162.4 61.1
Q 162.4 59.95 161.75 59.35 161.1 58.8 159.9 58.8 159.2 58.8 158.5 59.1 157.85 59.4 157.4 59.85
L 157.95 60.5
Q 158.35 60.05 158.9 59.8 159.4 59.6 159.9 59.6 160.7 59.6 161.05 59.95 161.45 60.35 161.45 61.1
L 161.45 61.5
Q 159.35 61.55 158.3 62.1 157.2 62.65 157.2 63.85 157.2 64.8 157.8 65.25 158.45 65.75 159.3 65.75 159.95 65.75 160.55 65.4 161.15 65.05 161.45 64.55
L 161.6 65.55 162.4 65.55
M 161.45 63.7
Q 160.7 64.95 159.5 64.95 158.85 64.95 158.5 64.65 158.15 64.35 158.15 63.8 158.15 63.05 158.95 62.65 159.75 62.3 161.45 62.25
L 161.45 63.7
M 166.95 61.8
Q 166 61.6 165.6 61.35 165.25 61.15 165.25 60.65 165.25 60.15 165.65 59.85 166.05 59.6 166.65 59.6 167.15 59.6 167.55 59.8 168 60.05 168.3 60.55
L 169 60
Q 168.55 59.4 168 59.1 167.45 58.8 166.6 58.8 165.65 58.8 165 59.25 164.35 59.75 164.35 60.7 164.35 61.55 164.9 61.95 165.4 62.35 166.3 62.55
L 166.65 62.6
Q 167.2 62.75 167.5 62.9 167.8 63 168 63.2 168.15 63.4 168.15 63.75 168.15 64.3 167.8 64.6 167.4 64.95 166.8 64.95 166.15 64.95 165.65 64.65 165.2 64.4 164.85 63.85
L 164.15 64.4
Q 164.55 65.05 165.25 65.4 165.9 65.75 166.7 65.75 167.8 65.75 168.45 65.2 169.1 64.65 169.1 63.7 169.1 62.85 168.6 62.45 168.1 62.1 167.3 61.9
L 166.95 61.8
M 178.25 58.95
L 177.3 58.95 177.3 65.55 178.25 65.55 178.25 58.95
M 178.45 56.7
Q 178.45 56.4 178.25 56.25 178.05 56.05 177.8 56.05 177.5 56.05 177.35 56.25 177.15 56.4 177.15 56.7 177.15 56.95 177.35 57.15 177.5 57.35 177.8 57.35 178.05 57.35 178.25 57.15 178.45 56.95 178.45 56.7
M 173 59.6
Q 173.5 59.6 173.9 59.8 174.35 60.05 174.65 60.55
L 175.35 60
Q 174.9 59.4 174.35 59.1 173.8 58.8 172.95 58.8 172 58.8 171.35 59.25 170.7 59.75 170.7 60.7 170.7 61.55 171.25 61.95 171.75 62.35 172.65 62.55
L 173 62.6
Q 173.55 62.75 173.85 62.9 174.15 63 174.35 63.2 174.5 63.4 174.5 63.75 174.5 64.3 174.15 64.6 173.75 64.95 173.15 64.95 172.5 64.95 172 64.65 171.55 64.4 171.2 63.85
L 170.5 64.4
Q 170.9 65.05 171.6 65.4 172.25 65.75 173.05 65.75 174.15 65.75 174.8 65.2 175.45 64.65 175.45 63.7 175.45 62.85 174.95 62.45 174.45 62.1 173.65 61.9
L 173.3 61.8
Q 172.35 61.6 171.95 61.35 171.6 61.15 171.6 60.65 171.6 60.15 172 59.85 172.4 59.6 173 59.6
M 186.1 58.95
L 186.1 59.8 187.5 59.8 187.5 63.8
Q 187.5 64.8 187.95 65.25 188.4 65.75 189.25 65.75 190 65.75 190.6 65.4
L 190.6 64.6
Q 190.25 64.8 190 64.85 189.8 64.95 189.45 64.95 188.45 64.95 188.45 63.85
L 188.45 59.8 190.6 59.8 190.6 58.95 188.45 58.95 188.45 56.7 187.5 57.05 187.5 58.95 186.1 58.95
M 182.55 59.6
Q 183.05 59.6 183.45 59.8 183.9 60.05 184.2 60.55
L 184.9 60
Q 184.45 59.4 183.9 59.1 183.35 58.8 182.5 58.8 181.55 58.8 180.9 59.25 180.25 59.75 180.25 60.7 180.25 61.55 180.8 61.95 181.3 62.35 182.2 62.55
L 182.55 62.6
Q 183.1 62.75 183.4 62.9 183.7 63 183.9 63.2 184.05 63.4 184.05 63.75 184.05 64.3 183.7 64.6 183.3 64.95 182.7 64.95 182.05 64.95 181.55 64.65 181.1 64.4 180.75 63.85
L 180.05 64.4
Q 180.45 65.05 181.15 65.4 181.8 65.75 182.6 65.75 183.7 65.75 184.35 65.2 185 64.65 185 63.7 185 62.85 184.5 62.45 184 62.1 183.2 61.9
L 182.85 61.8
Q 181.9 61.6 181.5 61.35 181.15 61.15 181.15 60.65 181.15 60.15 181.55 59.85 181.95 59.6 182.55 59.6
M 134.75 59.8
Q 135.25 59.6 135.75 59.6 136.55 59.6 136.9 59.95 137.3 60.35 137.3 61.1
L 137.3 61.5
Q 135.2 61.55 134.15 62.1 133.05 62.65 133.05 63.85 133.05 64.8 133.65 65.25 134.3 65.75 135.15 65.75 135.8 65.75 136.4 65.4 137 65.05 137.3 64.55
L 137.45 65.55 138.25 65.55 138.25 61.1
Q 138.25 59.95 137.6 59.35 136.95 58.8 135.75 58.8 135.05 58.8 134.35 59.1 133.7 59.4 133.25 59.85
L 133.8 60.5
Q 134.2 60.05 134.75 59.8
M 137.3 62.25
L 137.3 63.7
Q 136.55 64.95 135.35 64.95 134.7 64.95 134.35 64.65 134 64.35 134 63.8 134 63.05 134.8 62.65 135.6 62.3 137.3 62.25
M 127.4 60.3
Q 128 59.6 128.9 59.6 129.6 59.6 130.05 59.95 130.5 60.25 130.8 60.95
L 131.6 60.45
Q 131.25 59.65 130.55 59.2 129.85 58.8 128.95 58.8 128.1 58.8 127.4 59.2 126.65 59.6 126.25 60.4 125.8 61.2 125.8 62.25 125.8 63.3 126.25 64.1 126.65 64.9 127.35 65.3 128.05 65.75 128.9 65.75 130.75 65.75 131.65 63.95
L 130.9 63.5
Q 130.6 64.15 130.1 64.55 129.65 64.9 128.9 64.9 128 64.9 127.4 64.2 126.8 63.5 126.8 62.25 126.8 61 127.4 60.3
M 117.65 58.95
L 116.55 58.95 114.95 64.55 113.45 58.95 112.5 58.95 114.4 65.55 115.55 65.55 117.1 60 118.7 65.55 119.85 65.55 121.75 58.95 120.75 58.95 119.25 64.55 117.65 58.95
M 106.95 59.2
Q 106.25 59.6 105.85 60.4 105.45 61.2 105.45 62.25 105.45 63.3 105.85 64.1 106.25 64.9 106.95 65.3 107.65 65.75 108.5 65.75 109.4 65.75 110.1 65.3 110.75 64.9 111.15 64.1 111.55 63.3 111.55 62.25 111.55 61.2 111.15 60.4 110.75 59.6 110.05 59.2 109.4 58.8 108.5 58.8 107.65 58.8 106.95 59.2
M 107 60.3
Q 107.6 59.6 108.5 59.6 109.45 59.6 110 60.3 110.6 61 110.6 62.25 110.6 63.55 110 64.25 109.45 64.95 108.5 64.95 107.6 64.95 107 64.25 106.45 63.55 106.45 62.25 106.45 60.95 107 60.3
M 102.6 65.55
L 103.6 65.55 103.6 55.9 102.6 55.9 102.6 60.05 97.6 60.05 97.6 55.9 96.6 55.9 96.6 65.55 97.6 65.55 97.6 61 102.6 61 102.6 65.55
M 90.2 62.55
L 91.05 62.55 91.15 55.9 90.15 55.9 90.2 62.55
M 90.65 64.2
Q 90.3 64.2 90.1 64.4 89.9 64.6 89.9 64.9 89.9 65.25 90.1 65.45 90.3 65.65 90.65 65.65 91 65.65 91.15 65.45 91.4 65.25 91.4 64.9 91.4 64.6 91.15 64.4 91 64.2 90.65 64.2
M 87.95 60.4
Q 87.55 59.6 86.85 59.2 86.2 58.8 85.3 58.8 84.45 58.8 83.75 59.2 83.05 59.6 82.65 60.4 82.25 61.2 82.25 62.25 82.25 63.3 82.65 64.1 83.05 64.9 83.75 65.3 84.45 65.75 85.3 65.75 86.2 65.75 86.9 65.3 87.55 64.9 87.95 64.1 88.35 63.3 88.35 62.25 88.35 61.2 87.95 60.4
M 83.8 60.3
Q 84.4 59.6 85.3 59.6 86.25 59.6 86.8 60.3 87.4 61 87.4 62.25 87.4 63.55 86.8 64.25 86.25 64.95 85.3 64.95 84.4 64.95 83.8 64.25 83.25 63.55 83.25 62.25 83.25 60.95 83.8 60.3
M 81.25 65.55
L 81.25 64.7
Q 81.05 64.85 80.75 64.85 80.4 64.85 80.25 64.7 80.1 64.55 80.1 64.15
L 80.1 55.35 79.15 55.35 79.15 64.2
Q 79.15 64.9 79.55 65.3 79.9 65.65 80.6 65.65 80.8 65.65 80.95 65.65 81.1 65.6 81.25 65.55
M 76.55 55.35
L 75.6 55.35 75.6 64.2
Q 75.6 64.9 76 65.3 76.35 65.65 77.05 65.65 77.25 65.65 77.4 65.65 77.55 65.6 77.7 65.55
L 77.7 64.7
Q 77.5 64.85 77.2 64.85 76.85 64.85 76.7 64.7 76.55 64.55 76.55 64.15
L 76.55 55.35
M 73.05 59.6
Q 72.3 58.8 71.1 58.8 70.15 58.8 69.45 59.25 68.8 59.7 68.45 60.5 68.05 61.25 68.05 62.25 68.05 63.2 68.45 64 68.75 64.8 69.45 65.25 70.15 65.75 71.15 65.75 72.1 65.75 72.7 65.45 73.35 65.1 73.85 64.3
L 73.15 63.85
Q 72.45 64.95 71.15 64.95 70.25 64.95 69.65 64.25 69.1 63.6 69.05 62.45
L 73.85 62.45
Q 73.85 62.3 73.85 61.95 73.85 60.4 73.05 59.6
M 72.4 60.1
Q 72.9 60.6 72.95 61.65
L 69.05 61.65
Q 69.2 60.65 69.7 60.1 70.25 59.6 71 59.6 71.85 59.6 72.4 60.1
M 65.2 61
L 65.2 65.55 66.2 65.55 66.2 55.9 65.2 55.9 65.2 60.05 60.2 60.05 60.2 55.9 59.2 55.9 59.2 65.55 60.2 65.55 60.2 61 65.2 61 Z"/>
</g>

<path id="mipper_0_Layer0_1_MEMBER_0_MEMBER_0_MEMBER_1_MEMBER_0_1_STROKES" stroke="#000000" stroke-width="2.95" stroke-linejoin="round" stroke-linecap="round" fill="none" d="
M 282.7 284.25
Q 287.1 297.75 293 309.9
L 304.45 309.9
Q 309.2 308.55 313.4 303.05 313.35 289.8 319.55 284.1
L 328.05 284.1
Q 332.7 287.25 334.75 290.8
L 334.75 304.95
Q 327.35 319.95 320.6 323.9 313.85 327.85 310.15 327.5
L 288.35 327.5
Q 279.1 321.95 274.4 310.65 269.7 299.3 273.3 287.6 276.9 275.8 282.7 284.25 Z"/>

<path id="mipper_0_Layer0_1_MEMBER_0_MEMBER_0_MEMBER_2_MEMBER_0_1_STROKES" stroke="#000000" stroke-width="14.9" stroke-linejoin="round" stroke-linecap="round" fill="none" d="
M 145.45 130.4
L 455 130.4
Q 470.1 130.4 470.1 145.5
L 470.1 455.05
Q 470.1 470.15 455 470.15
L 145.45 470.15
Q 130.35 470.15 130.35 455.05
L 130.35 145.5
Q 130.35 130.4 145.45 130.4 Z"/>

<path id="Layer4_0_1_STROKES" stroke="#4E5058" stroke-width="1" stroke-linejoin="round" stroke-linecap="round" fill="none" d="
M 25.45 31.5
L 25.45 26.5
Q 25.45 20.5 31.45 20.5
L 55.45 20.5"/>
</defs>

<g transform="matrix( 1, 0, 0, 1, 0,0) ">
<use xlink:href="#Layer9_0_FILL"/>
</g>

<mask id="Mask_Mask_1">
<g transform="matrix( 1, 0, 0, 1, 0,0) ">
<use xlink:href="#Mask_7_MASK_0_FILL"/>
</g>
</mask>

<g mask="url(#Mask_Mask_1)">
<g transform="matrix( 0.062286376953125, 0, 0, 0.062286376953125, 7.3,33.05) ">
<g transform="matrix( 1, 0, 0, 1, -2,-2) ">
<mask id="Mask_Mask_2">
<g transform="matrix( 1, 0, 0, 1, 0,0) ">
<use xlink:href="#Mask_mipper_svg_Layer_1__Clip_Group__0_2_MASK_0_FILL"/>
</g>
</mask>

<g mask="url(#Mask_Mask_2)">
<g transform="matrix( -1, 0, 0, -1, 604,604) ">
<use xlink:href="#mipper_svg_Layer_1__Clip_Group__0_Layer2_0_MEMBER_0_MEMBER_0_MEMBER_0_MEMBER_0_FILL"/>
</g>
</g>
</g>

<g transform="matrix( 1, 0, 0, 1, 0,0) ">
<use xlink:href="#mipper_0_Layer0_1_MEMBER_0_MEMBER_0_MEMBER_0_MEMBER_0_MEMBER_0_FILL"/>
</g>

<g transform="matrix( 1, 0, 0, 1, 0,0) ">
<use xlink:href="#mipper_0_Layer0_1_MEMBER_0_MEMBER_0_MEMBER_1_MEMBER_0_1_STROKES"/>
</g>

<g transform="matrix( 1, 0, 0, 1, 0,0) ">
<use xlink:href="#mipper_0_Layer0_1_MEMBER_0_MEMBER_0_MEMBER_2_MEMBER_0_1_STROKES"/>
</g>

<g transform="matrix( 1, 0, 0, 1, 0,0) ">
<use xlink:href="#mipper_0_Layer0_1_MEMBER_1_MEMBER_0_MEMBER_0_MEMBER_0_MEMBER_0_MEMBER_0_FILL"/>
</g>

<g transform="matrix( 1, 0, 0, 1, 0,0) ">
<use xlink:href="#mipper_0_Layer0_1_MEMBER_1_MEMBER_1_MEMBER_0_MEMBER_0_MEMBER_0_MEMBER_0_FILL"/>
</g>
</g>
</g>

<g transform="matrix( 1, 0, 0, 1, 0,0) ">
<use xlink:href="#Layer5_0_FILL"/>
</g>

<g transform="matrix( 1, 0, 0, 1, 118,41) ">
<g transform="matrix( 1, 0, 0, 1, 0,0) ">
<use xlink:href="#_______1_0_Layer1_0_FILL"/>
</g>

<g transform="matrix( 1, 0, 0, 1, -8.05,-3.25) ">
<g transform="matrix( 1, 0, 0, 1, 0,0) ">
<use xlink:href="#bot_tag_text_0_Layer0_0_FILL"/>
</g>
</g>
</g>

<g transform="matrix( 1, 0, 0, 1, 0,0) ">
<use xlink:href="#Layer4_0_FILL"/>

<use xlink:href="#Layer4_0_1_STROKES"/>
</g>

<mask id="Mask_Mask_3">
<g transform="matrix( 1, 0, 0, 1, 0,0) ">
<use xlink:href="#Mask_3_MASK_0_FILL"/>
</g>
</mask>

<g mask="url(#Mask_Mask_3)">
<g transform="matrix( 0.014617919921875, 0, 0, 0.0146026611328125, 59,13) ">
<g transform="matrix( 1, 0, 0, 1, 0,0) ">
<use xlink:href="#pfp_0_Layer0_0_FILL"/>
</g>
</g>
</g>

<g transform="matrix( 1, 0, 0, 1, 0,0) ">
<use xlink:href="#Layer1_0_FILL"/>
</g>

<g transform="matrix( 1, 0, 0, 1, 0,0) ">
<use xlink:href="#Layer0_0_FILL"/>
</g>
</svg>
