
<svg xmlns="http://www.w3.org/2000/svg" version="1.1" xmlns:xlink="http://www.w3.org/1999/xlink" preserveAspectRatio="none" x="0px" y="0px" width="266px" height="92px" viewBox="0 0 266 92">
<defs>
<linearGradient id="Gradient_1" gradientUnits="userSpaceOnUse" x1="302" y1="602" x2="302" y2="2" spreadMethod="pad">
<stop  offset="0%" stop-color="#A7A7FF"/>

<stop  offset="49.80392156862745%" stop-color="#8180FF"/>

<stop  offset="100%" stop-color="#5959FF"/>
</linearGradient>

<g id="Layer8_0_FILL">
<path fill="#313338" stroke="none" d="
M 492 -40
L -43.95 -40 -43.95 132 492 132 492 -40 Z"/>
</g>

<g id="light_gray_0_Layer0_0_FILL">
<path fill="#383A40" stroke="none" d="
M 478.15 33.3
L 478.15 0 0 0 0 25.3
Q 0 33.3 8 33.3
L 478.15 33.3 Z"/>
</g>

<g id="dark_gray_0_Layer0_0_FILL">
<path fill="#2B2D31" stroke="none" d="
M 469.3 33.3
L 469.3 0 8 0
Q 0 0 0 8
L 0 33.3 469.3 33.3 Z"/>
</g>

<g id="Mask_5_MASK_0_FILL">
<path fill="#FFFFFF" stroke="none" d="
M 28.15 70.8
Q 31.4 74 36 74 40.55 74 43.75 70.8 47 67.6 47 63 47 58.45 43.75 55.2 40.55 52 36 52 31.4 52 28.15 55.2 25 58.45 25 63 25 67.6 28.15 70.8 Z"/>
</g>

<g id="Mask_mipper_svg_Layer_1__Clip_Group__0_2_MASK_0_FILL">
<path fill="#FFFFFF" stroke="none" d="
M 766.3 -103.2
Q 766.3 -111.2 758.3 -111.2
L -144.5 -111.2
Q -152.5 -111.2 -152.5 -103.2
L -152.5 799.6
Q -152.5 807.6 -144.5 807.6
L 758.3 807.6
Q 766.3 807.6 766.3 799.6
L 766.3 -103.2 Z"/>
</g>

<g id="mipper_svg_Layer_1__Clip_Group__0_Layer2_0_MEMBER_0_MEMBER_0_MEMBER_0_MEMBER_0_FILL">
<path fill="url(#Gradient_1)" stroke="none" d="
M 602 602
L 602 2 2 2 2 602 602 602 Z"/>
</g>

<g id="mipper_0_Layer0_1_MEMBER_0_MEMBER_0_MEMBER_0_MEMBER_0_MEMBER_0_FILL">
<path fill="#000000" stroke="none" d="
M 192.25 226.2
Q 178.05 226.2 167.95 236.2 157.95 246.35 157.95 260.5 157.95 274.65 167.95 284.7 178.05 294.8 192.25 294.8 206.5 294.8 216.45 284.7 226.6 274.65 226.6 260.5 226.6 246.35 216.45 236.2 206.55 226.2 192.25 226.2
M 334.75 290.8
Q 332.7 287.25 328.05 284.1
L 319.55 284.1
Q 313.35 289.8 313.4 303.05 309.2 308.55 304.45 309.9
L 293 309.9
Q 287.1 297.75 282.7 284.25 276.9 275.85 273.3 287.5 269.7 299.4 274.35 310.65 279.1 322 288.35 327.5
L 310.15 327.5
Q 313.85 327.85 320.6 323.9 327.35 319.95 334.75 304.95
L 334.75 290.8
M 432.2 232
Q 420.8 217.7 405.8 217.4 390.6 217.1 380.55 231.1 370.4 245.15 372.65 259.9 374.75 274.7 384.75 284.7 394.85 294.8 409.05 294.8 423.25 294.8 433.25 284.7 443.35 274.7 443.35 260.5 443.35 246.3 432.2 232 Z"/>
</g>

<g id="mipper_0_Layer0_1_MEMBER_1_MEMBER_0_MEMBER_0_MEMBER_0_MEMBER_0_MEMBER_0_FILL">
<path fill="#FFFFFF" stroke="none" d="
M 198.4 236.05
Q 192.65 236.05 188.55 240.05 184.5 244.1 184.5 249.9 184.5 255.8 188.55 259.75 192.6 263.8 198.4 263.8 204.2 263.8 208.25 259.75 212.25 255.75 212.25 249.9 212.25 244.15 208.25 240.05 204.2 236.05 198.4 236.05 Z"/>
</g>

<g id="mipper_0_Layer0_1_MEMBER_1_MEMBER_1_MEMBER_0_MEMBER_0_MEMBER_0_MEMBER_0_FILL">
<path fill="#FFFFFF" stroke="none" d="
M 426.35 245.15
Q 426.35 239.4 422.35 235.3 418.3 231.25 412.5 231.25 406.7 231.25 402.65 235.3 398.6 239.35 398.6 245.15 398.6 250.95 402.65 255 406.75 259 412.5 259 418.3 259 422.35 255 426.35 250.95 426.35 245.15 Z"/>
</g>

<g id="Layer3_1_FILL">
<path fill="#111214" stroke="none" d="
M 97.5 51.55
Q 94.5 51.55 94.5 54.4
L 94.5 70.55
Q 94.5 73.45 97.5 73.45
L 160 73.45 160 51.55 97.5 51.55 Z"/>

<path fill="#232428" stroke="none" d="
M 257.5 73.45
Q 260.5 73.45 260.5 70.55
L 260.5 54.4
Q 260.5 51.55 257.5 51.55
L 160 51.55 160 73.45 257.5 73.45 Z"/>
</g>

<g id="Layer2_0_FILL">
<path fill="#333765" stroke="none" d="
M 251 71.95
Q 253 71.95 253 69.95
L 253 53.95
Q 253 51.95 251 51.95
L 169.9 51.95
Q 167.9 51.95 167.9 53.95
L 167.9 69.95
Q 167.9 71.95 169.9 71.95
L 251 71.95 Z"/>
</g>

<g id="Layer1_0_FILL">
<path fill="#C8CCFA" stroke="none" d="
M 214.25 60.2
Q 213.6 59.8 212.85 59.8 212.5640625 59.8 212.3 59.85 211.980078125 59.8880859375 211.7 60 211.25 60.25 210.9 60.7
L 210.8 59.95 209.45 59.95 209.45 69.2 211 69.2 211 66.05
Q 211.5306640625 66.5806640625 212.3 66.7 212.571875 66.75 212.85 66.75 213.6 66.75 214.25 66.35 214.95 65.95 215.3 65.15 215.7 64.35 215.7 63.25 215.7 62.15 215.3 61.35 214.95 60.6 214.25 60.2
M 211.95 61.15
Q 212.1861328125 61.1 212.45 61.1 213.15 61.1 213.65 61.65 214.15 62.2 214.15 63.25 214.15 64.3 213.65 64.85 213.15 65.45 212.45 65.45 212.1708984375 65.45 211.9 65.35 211.3794921875 65.201953125 211 64.65
L 211 61.9
Q 211.413671875 61.3484375 211.95 61.15
M 223 63.65
Q 223.05 63.3 223.05 63.1 223.05 61.6 222.25 60.7 221.5 59.8 220.05 59.8 219.7994140625 59.8 219.55 59.8 218.955078125 59.911328125 218.45 60.2 217.75 60.6 217.3 61.4 216.9 62.2 216.9 63.25 216.9 64.35 217.3 65.1 217.7 65.9 218.45 66.3 219.0529296875 66.6392578125 219.75 66.7 220.0037109375 66.75 220.25 66.75 221.15 66.75 221.8 66.45 222.4 66.15 222.9 65.6
L 222 64.65
Q 221.7416015625 64.9453125 221.45 65.1 221.3546875 65.19765625 221.25 65.25 220.85 65.5 220.3 65.5 220.0291015625 65.5 219.8 65.45 219.3306640625 65.3306640625 219 65 218.55 64.5 218.4 63.65
L 223 63.65
M 220.05 61
Q 220.75 61 221.15 61.4 221.6 61.8 221.65 62.55
L 218.45 62.55
Q 218.55 61.8 219 61.4 219.2384765625 61.1615234375 219.55 61.05 219.7876953125 61 220.05 61
M 226.8 61.5
Q 227.028125 61.32890625 227.3 61.25 227.4634765625 61.205859375 227.65 61.2
L 227.7 61.2
Q 228.2 61.2 228.65 61.35
L 228.65 59.9
Q 228.4 59.8 227.95 59.8 227.6703125 59.8 227.45 59.85 227.090234375 59.8998046875 226.85 60.05 226.4 60.35 226.1 60.9
L 225.95 60 225.95 59.95 224.55 59.95 224.55 66.55 226.1 66.55 226.1 62.35
Q 226.4 61.8 226.8 61.5
M 237.6 60.2
Q 236.9 60.6 236.45 61.35 236.05 62.15 236.05 63.25 236.05 64.35 236.45 65.15 236.9 65.95 237.6 66.35 238.1357421875 66.6357421875 238.75 66.7 238.99296875 66.75 239.25 66.75 240.15 66.75 240.85 66.35 241.6 65.95 242.05 65.15 242.45 64.35 242.45 63.25 242.45 62.15 242.05 61.35 241.6 60.6 240.85 60.2 240.15 59.8 239.25 59.8 238.99296875 59.8 238.75 59.8 238.1357421875 59.9142578125 237.6 60.2
M 239.25 61.1
Q 240 61.1 240.45 61.65 240.9 62.2 240.9 63.25 240.9 64.3 240.45 64.9 240 65.45 239.25 65.45 238.9697265625 65.45 238.75 65.35 238.309765625 65.2572265625 238.05 64.9 237.6 64.3 237.6 63.25 237.6 62.2 238.05 61.65 238.309765625 61.2927734375 238.75 61.15 238.9697265625 61.1 239.25 61.1
M 234.75 60.9
Q 234.35 60.35 233.8 60.05 233.2 59.8 232.35 59.8 232.1 59.8 231.85 59.8 231.0908203125 59.913671875 230.55 60.3 229.85 60.8 229.85 61.8 229.85 62.65 230.35 63.1 230.9 63.55 231.8 63.7
L 232.2 63.8
Q 232.85 63.95 233.15 64.15 233.45 64.35 233.45 64.7 233.45 65.1 233.15 65.3 232.85 65.55 232.4 65.55 232.0869140625 65.55 231.8 65.45 231.59140625 65.41953125 231.4 65.3 230.95 65.05 230.65 64.55
L 229.6 65.4
Q 230 66.05 230.75 66.4 231.2443359375 66.6470703125 231.8 66.7 232.0501953125 66.75 232.3 66.75 233.5 66.75 234.2 66.15 234.95 65.6 234.95 64.55 234.95 63 233 62.65
L 232.65 62.55
Q 231.9 62.4 231.55 62.25 231.25 62.05 231.25 61.7 231.25 61.35 231.55 61.2 231.6646484375 61.1236328125 231.8 61.05 232.021875 61 232.3 61 232.840234375 61 233.25 61.3 233.5314453125 61.50859375 233.75 61.8
L 234.75 60.9
M 176.5 56.3
Q 176.2484375 56.3 176 56.3 174.5927734375 56.4109375 173.4 57.05 172 57.8 171.2 59.25 170.4 60.65 170.4 62.6 170.4 64.25 171 65.55 171.6 66.85 172.9 67.65 173.9833984375 68.3 175.55 68.35 175.796875 68.4 176.05 68.4 177.15 68.4 178.2 68.15 179.3 67.9 180 67.45
L 179.55 66.3
Q 179.1828125 66.5142578125 178.7 66.7 178.39921875 66.8029296875 178.05 66.9 177.15 67.15 176.15 67.15 175.8990234375 67.15 175.65 67.1 174.4826171875 67.049609375 173.65 66.55 172.65 65.9 172.2 64.9 171.75 63.9 171.75 62.65 171.75 61.1 172.4 59.95 173 58.8 174.1 58.15 174.9904296875 57.6642578125 176.05 57.55 176.2927734375 57.55 176.55 57.55 177.7 57.55 178.6 58 179.55 58.5 180.05 59.35 180.55 60.25 180.55 61.4 180.55 62.2 180.35 62.85 180.1 63.5 179.75 63.85 179.35 64.2 178.95 64.2 178.6666015625 64.2 178.55 64 178.45 63.859765625 178.45 63.6 178.45 63.45 178.45 63.4
L 179 59.45 177.9 59.45 177.65 60.15
Q 177.45 59.75 177.05 59.5 177.0076171875 59.4734375 176.95 59.45 176.5810546875 59.25 176 59.25 175.7390625 59.25 175.5 59.3 174.9880859375 59.38046875 174.55 59.65 173.95 60.1 173.6 60.85 173.2 61.65 173.2 62.65 173.2 63.9 173.8 64.65 174.25 65.175 174.9 65.3 175.1501953125 65.35 175.4 65.35 176.05 65.35 176.6 65.1 176.6611328125 65.06328125 176.7 65 177.13046875 64.7388671875 177.35 64.3 177.45 64.8 177.8 65.1 177.99453125 65.2388671875 178.25 65.3 178.4556640625 65.35 178.7 65.35 179.6 65.35 180.35 64.85 181.05 64.35 181.45 63.45 181.85 62.5 181.85 61.35 181.85 59.85 181.15 58.7 180.5 57.55 179.3 56.9 178.05 56.3 176.5 56.3
M 175.05 61.05
Q 175.3158203125 60.695703125 175.65 60.55 175.883984375 60.45 176.15 60.45 176.7 60.45 177.05 60.85 177.35 61.25 177.35 62.05 177.35 63 176.9 63.6 176.45 64.2 175.75 64.2 175.488671875 64.2 175.25 64.1 175.057421875 63.9861328125 174.9 63.75 174.6 63.35 174.6 62.55 174.6 61.6 175.05 61.05
M 185 56.35
L 183.45 56.35 183.45 66.55 184.8 66.55 184.9 65.85
Q 185.25 66.25 185.7 66.5 185.99140625 66.645703125 186.3 66.7 186.57890625 66.75 186.85 66.75 187.6 66.75 188.25 66.35 188.95 65.95 189.3 65.15 189.7 64.35 189.7 63.25 189.7 62.15 189.3 61.35 188.95 60.6 188.25 60.2 187.6 59.8 186.85 59.8 186.571875 59.8 186.3 59.85 185.5306640625 59.9693359375 185 60.5
L 185 56.35
M 185.9 61.15
Q 186.1767578125 61.1 186.45 61.1 187.15 61.1 187.65 61.65 188.15 62.2 188.15 63.25 188.15 64.3 187.65 64.85 187.15 65.45 186.45 65.45 186.1802734375 65.45 185.9 65.35 185.4095703125 65.1962890625 185 64.65
L 185 61.9
Q 185.3830078125 61.3427734375 185.9 61.15
M 199.65 60.2
Q 198.95 60.6 198.6 61.35 198.2 62.15 198.2 63.25 198.2 64.35 198.6 65.15 198.95 65.95 199.65 66.35 200.08359375 66.616796875 200.55 66.7 200.800390625 66.75 201.05 66.75 201.662109375 66.75 202.1 66.5 202.123828125 66.5146484375 202.15 66.5 202.65 66.25 203 65.85
L 203.1 66.55 204.4 66.55 204.4 56.35 202.9 56.35 202.9 60.5
Q 202.55 60.15 202.1 59.95 202.003515625 59.9177734375 201.9 59.9 201.5212890625 59.8 201.05 59.8 200.8234375 59.8 200.6 59.8 200.1037109375 59.9208984375 199.65 60.2
M 200.25 61.65
Q 200.535546875 61.3009765625 200.95 61.15 201.17578125 61.1 201.45 61.1 202.3 61.1 202.9 61.9
L 202.9 64.65
Q 202.3 65.45 201.45 65.45 201.18203125 65.45 200.95 65.35 200.5392578125 65.235546875 200.25 64.85 199.75 64.3 199.75 63.25 199.75 62.2 200.25 61.65
M 193.75 61.05
Q 194.4 61.05 194.75 61.4 195.1 61.7 195.1 62.35
L 195.1 62.5
Q 191.05 62.55 191.05 64.75 191.05 65.7 191.65 66.25 192.069921875 66.6 192.6 66.7 192.844921875 66.75 193.1 66.75 193.728125 66.75 194.2 66.5 194.2486328125 66.480859375 194.3 66.45 194.85 66.15 195.1 65.7
L 195.2 66.55 196.65 66.55 196.65 62.35
Q 196.65 59.8 193.85 59.8 193.603125 59.8 193.35 59.8 192.833984375 59.8771484375 192.35 60.05 191.7 60.35 191.2 60.85
L 191.95 61.8
Q 192.35 61.4 192.85 61.25 193.048046875 61.1619140625 193.25 61.1 193.498046875 61.05 193.75 61.05
M 195.1 63.55
L 195.1 64.65
Q 194.4 65.5 193.5 65.5 193.2466796875 65.5 193 65.4 192.91015625 65.3734375 192.8 65.3 192.55 65.1 192.55 64.7 192.55 64.15 193.2 63.85 193.5384765625 63.708984375 194.1 63.6 194.53359375 63.571875 195.1 63.55
M 245.4 60.05
L 245.4 59.95 244 59.95 244 66.55 245.55 66.55 245.55 62.05
Q 245.85 61.6 246.2 61.35 246.3705078125 61.2220703125 246.55 61.15 246.791796875 61.05 247.05 61.05 247.6 61.05 247.85 61.4 248.1 61.7 248.1 62.3
L 248.1 66.55 249.65 66.55 249.65 62.05
Q 249.65 61 249.15 60.4 248.6 59.8 247.55 59.8 247.2923828125 59.8 247.05 59.85 246.666015625 59.9103515625 246.35 60.1 245.85 60.4 245.55 60.85
L 245.4 60.05 Z"/>
</g>

<g id="Layer0_0_FILL">
<path fill="#D1D4D8" stroke="none" d="
M 66.4 56.35
L 64.45 56.35 60.7 68.25 62.6 68.25 66.4 56.35
M 73.55 61.4
Q 73.15 60.6 72.5 60.2 71.85 59.8 71.05 59.8 70.1 59.8 69.45 60.3
L 69.45 56.35 67.5 56.35 67.5 66.55 69.15 66.55 69.3 65.9
Q 69.65 66.3 70.05 66.55 70.5 66.75 71.05 66.75 71.85 66.75 72.5 66.35 73.15 65.95 73.55 65.15 73.95 64.35 73.95 63.25 73.95 62.15 73.55 61.4
M 70.5 65.1
Q 69.9 65.1 69.45 64.55
L 69.45 61.95
Q 69.85 61.4 70.5 61.4 71.2 61.4 71.6 61.95 72 62.45 72 63.25 72 64.1 71.6 64.6 71.2 65.1 70.5 65.1
M 81 66.55
L 81 62.5
Q 81 59.8 78.05 59.8 77.2 59.8 76.5 60.05 75.8 60.3 75.3 60.8
L 76.2 62
Q 76.6 61.65 77.05 61.5 77.5 61.35 77.9 61.35 78.4 61.35 78.75 61.65 79.1 61.95 79.1 62.5 77.25 62.55 76.2 63.1 75.2 63.6 75.2 64.75 75.2 65.65 75.75 66.2 76.3 66.75 77.2 66.75 78.4 66.75 79.1 65.85
L 79.2 66.55 81 66.55
M 79.1 63.7
L 79.1 64.6
Q 78.8 64.9 78.5 65.05 78.15 65.25 77.75 65.25 77.45 65.25 77.25 65.1 77.1 64.95 77.1 64.65 77.1 63.8 79.1 63.7
M 85.2 61.65
Q 85.55 61.4 85.95 61.4 86.35 61.4 86.55 61.7 86.8 61.95 86.8 62.4
L 86.8 66.55 88.75 66.55 88.75 62.05
Q 88.75 61 88.2 60.4 87.7 59.8 86.65 59.8 85.95 59.8 85.45 60.1 85 60.4 84.7 60.9
L 84.55 59.95 82.75 59.95 82.75 66.55 84.7 66.55 84.7 62.2
Q 84.85 61.9 85.2 61.65 Z"/>

<path fill="#FFFFFF" stroke="none" d="
M 27.15 27.8
Q 27.35 27.35 27.75 27.05 28.1 26.8 28.55 26.8 29.05 26.8 29.5 26.95
L 29.5 25.1
Q 29.3 25.05 28.9 25.05 28.25 25.05 27.85 25.3 27.4 25.6 27.15 26.2
L 26.95 25.2 25.2 25.2 25.2 31.8 27.15 31.8 27.15 27.8
M 36.95 29.05
Q 37 28.7 37 28.4 37 26.9 36.2 25.95 35.45 25.05 33.85 25.05 33 25.05 32.25 25.4 31.5 25.8 31.05 26.55 30.6 27.35 30.6 28.55 30.6 30.25 31.55 31.1 32.55 32 34.1 32 35 32 35.6 31.75 36.25 31.45 36.75 31
L 35.75 29.75
Q 35.4 30.1 35 30.25 34.65 30.45 34.15 30.45 33.5 30.45 33.05 30.05 32.65 29.7 32.5 29.05
L 36.95 29.05
M 33.85 26.55
Q 35.1 26.55 35.25 27.75
L 32.5 27.75
Q 32.65 27.15 32.95 26.85 33.3 26.55 33.85 26.55
M 44 27.75
Q 44 25.05 41.05 25.05 40.2 25.05 39.5 25.3 38.8 25.55 38.3 26.05
L 39.2 27.25
Q 39.6 26.9 40.05 26.75 40.5 26.6 40.9 26.6 41.4 26.6 41.75 26.9 42.1 27.2 42.1 27.75 40.25 27.8 39.2 28.35 38.2 28.85 38.2 30 38.2 30.9 38.75 31.45 39.3 32 40.2 32 41.4 32 42.1 31.1
L 42.2 31.8 44 31.8 44 27.75
M 42.1 28.95
L 42.1 29.85
Q 41.8 30.15 41.5 30.3 41.15 30.5 40.75 30.5 40.45 30.5 40.25 30.35 40.1 30.2 40.1 29.9 40.1 29.05 42.1 28.95
M 48.85 27.75
L 48.55 27.65
Q 47.85 27.55 47.6 27.4 47.3 27.25 47.3 27 47.3 26.8 47.55 26.65 47.8 26.5 48.1 26.5 48.5 26.5 48.85 26.7 49.2 26.85 49.45 27.2
L 50.7 26.15
Q 50.3 25.6 49.7 25.3 49.1 25.05 48.25 25.05 47.05 25.05 46.3 25.55 45.55 26.1 45.55 27.15 45.55 28 46.1 28.45 46.6 28.9 47.55 29.1
L 47.95 29.2
Q 48.55 29.3 48.8 29.5 49.05 29.65 49.05 29.95 49.05 30.2 48.8 30.35 48.55 30.5 48.2 30.5 47.65 30.5 47.25 30.3 46.9 30.05 46.55 29.6
L 45.3 30.65
Q 45.75 31.3 46.45 31.65 47.2 32 48.1 32 49.35 32 50.1 31.4 50.9 30.8 50.9 29.75 50.9 28.05 48.85 27.75
M 59.8 25.2
L 59.8 31.8 61.75 31.8 61.75 27.45
Q 61.9 27.15 62.25 26.9 62.6 26.65 63 26.65 63.4 26.65 63.6 26.95 63.85 27.2 63.85 27.65
L 63.85 31.8 65.8 31.8 65.8 27.3
Q 65.8 26.25 65.25 25.65 64.75 25.05 63.7 25.05 63 25.05 62.5 25.35 62.05 25.65 61.75 26.15
L 61.6 25.2 59.8 25.2
M 57.95 30.45
Q 58.4 29.65 58.4 28.5 58.4 27.4 57.95 26.6 57.5 25.8 56.75 25.4 56 25.05 55.1 25.05 54.2 25.05 53.45 25.4 52.7 25.8 52.25 26.6 51.8 27.4 51.8 28.5 51.8 29.65 52.25 30.45 52.7 31.2 53.45 31.6 54.2 32 55.1 32 56 32 56.75 31.6 57.5 31.2 57.95 30.45
M 56.1 27.15
Q 56.5 27.6 56.5 28.5 56.5 29.4 56.1 29.9 55.75 30.35 55.1 30.35 54.45 30.35 54.1 29.9 53.7 29.4 53.7 28.5 53.7 27.6 54.1 27.15 54.45 26.65 55.1 26.65 55.75 26.65 56.1 27.15 Z"/>

<path fill="#B5BAC1" stroke="none" d="
M 77.7 23
L 76.1 23 72.85 31.55 74.45 31.55 75.1 29.65 78.7 29.65 79.4 31.55 80.95 31.55 77.7 23
M 78.25 28.3
L 75.6 28.3 76.9 24.55 78.25 28.3
M 103.8 26.8
Q 104.1 26.65 104.5 26.65 105.25 26.65 105.8 27.35
L 106.65 26.55
Q 106.3 26.05 105.8 25.8 105.3 25.55 104.55 25.55 103.55 25.55 102.9 26 102.3 26.45 102.3 27.35 102.3 28.1 102.75 28.5 103.25 28.9 104.05 29.05
L 104.4 29.1
Q 105 29.25 105.25 29.4 105.5 29.6 105.5 29.95 105.5 30.25 105.25 30.45 105 30.65 104.55 30.65 104.05 30.65 103.7 30.45 103.3 30.2 103 29.8
L 102.1 30.55
Q 102.45 31.15 103.1 31.45 103.75 31.75 104.5 31.75 105.55 31.75 106.2 31.2 106.8 30.7 106.8 29.8 106.8 28.4 105.1 28.1
L 104.8 28.05
Q 104.1 27.9 103.85 27.75 103.55 27.55 103.55 27.25 103.55 26.95 103.8 26.8
M 113.1 30.3
Q 113.5 29.6 113.5 28.65 113.5 27.65 113.1 26.95 112.75 26.25 112.1 25.9 111.45 25.55 110.65 25.55 109.85 25.55 109.2 25.9 108.6 26.25 108.2 26.95 107.8 27.65 107.8 28.65 107.8 29.6 108.2 30.3 108.6 31 109.2 31.35 109.85 31.75 110.65 31.75 111.45 31.75 112.1 31.35 112.75 31 113.1 30.3
M 111.75 27.2
Q 112.15 27.7 112.15 28.65 112.15 29.6 111.75 30.05 111.35 30.55 110.65 30.55 110 30.55 109.6 30.05 109.2 29.6 109.2 28.65 109.2 27.7 109.6 27.2 110 26.7 110.65 26.7 111.35 26.7 111.75 27.2
M 116.8 26.95
Q 117.1 26.7 117.55 26.7 118 26.7 118.25 27 118.5 27.25 118.5 27.75
L 118.5 31.55 119.85 31.55 119.85 27.6
Q 119.85 26.65 119.4 26.1 118.9 25.55 117.95 25.55 117.4 25.55 116.95 25.8 116.5 26.1 116.2 26.5
L 116.1 25.7 114.85 25.7 114.85 31.55 116.2 31.55 116.2 27.55
Q 116.45 27.15 116.8 26.95
M 87.7 25.55
Q 87.1 25.55 86.7 25.8 86.35 26.05 86.05 26.55
L 85.9 25.7 84.7 25.7 84.7 31.55 86.05 31.55 86.05 27.8
Q 86.3 27.35 86.65 27.05 87 26.8 87.45 26.8 87.95 26.8 88.3 26.95
L 88.3 25.65
Q 88.1 25.55 87.7 25.55
M 92.25 30.6
Q 91.6 30.6 91.15 30.2 90.7 29.75 90.6 29
L 94.7 29
Q 94.7 28.65 94.7 28.5 94.7 27.15 94.05 26.35 93.35 25.55 92.05 25.55 91.3 25.55 90.65 25.9 90 26.3 89.65 27 89.25 27.7 89.25 28.65 89.25 29.6 89.65 30.3 90 31 90.65 31.35 91.35 31.75 92.25 31.75 93.05 31.75 93.6 31.45 94.15 31.2 94.6 30.7
L 93.8 29.85
Q 93.5 30.2 93.15 30.4 92.75 30.6 92.25 30.6
M 92.05 26.65
Q 92.7 26.65 93.05 27 93.4 27.3 93.45 28
L 90.65 28
Q 90.75 27.35 91.1 27 91.5 26.65 92.05 26.65
M 99.15 26.95
Q 99.45 27.25 99.45 27.8
L 99.45 28
Q 95.85 28 95.85 30 95.85 30.8 96.4 31.25 96.9 31.75 97.7 31.75 98.3 31.75 98.75 31.45 99.2 31.2 99.45 30.8
L 99.55 31.55 100.8 31.55 100.8 27.8
Q 100.8 25.55 98.35 25.55 97.65 25.55 97.05 25.8 96.45 26.05 96 26.5
L 96.7 27.35
Q 97.05 27 97.45 26.85 97.85 26.7 98.25 26.7 98.8 26.7 99.15 26.95
M 98.05 30.65
Q 97.65 30.65 97.45 30.45 97.2 30.25 97.2 29.9 97.2 29.45 97.75 29.2 98.3 28.9 99.45 28.9
L 99.45 29.85
Q 98.85 30.65 98.05 30.65
M 154.75 27.8
Q 154.75 25.55 152.3 25.55 151.6 25.55 151 25.8 150.4 26.05 149.95 26.5
L 150.65 27.35
Q 151 27 151.4 26.85 151.8 26.7 152.2 26.7 152.75 26.7 153.1 26.95 153.4 27.25 153.4 27.8
L 153.4 28
Q 149.8 28 149.8 30 149.8 30.8 150.35 31.25 150.85 31.75 151.65 31.75 152.25 31.75 152.7 31.45 153.15 31.2 153.4 30.8
L 153.5 31.55 154.75 31.55 154.75 27.8
M 153.4 28.9
L 153.4 29.85
Q 152.8 30.65 152 30.65 151.6 30.65 151.4 30.45 151.15 30.25 151.15 29.9 151.15 29.45 151.7 29.2 152.25 28.9 153.4 28.9
M 161.45 27.6
Q 161.45 26.65 161 26.1 160.5 25.55 159.55 25.55 159 25.55 158.55 25.8 158.1 26.1 157.8 26.5
L 157.7 25.7 156.45 25.7 156.45 31.55 157.8 31.55 157.8 27.55
Q 158.05 27.15 158.4 26.95 158.7 26.7 159.15 26.7 159.6 26.7 159.85 27 160.1 27.25 160.1 27.75
L 160.1 31.55 161.45 31.55 161.45 27.6
M 133.7 30.3
Q 134.1 29.6 134.1 28.65 134.1 27.65 133.7 26.95 133.35 26.25 132.7 25.9 132.05 25.55 131.25 25.55 130.45 25.55 129.8 25.9 129.2 26.25 128.8 26.95 128.4 27.65 128.4 28.65 128.4 29.6 128.8 30.3 129.2 31 129.8 31.35 130.45 31.75 131.25 31.75 132.05 31.75 132.7 31.35 133.35 31 133.7 30.3
M 132.35 27.2
Q 132.75 27.7 132.75 28.65 132.75 29.6 132.35 30.05 131.95 30.55 131.25 30.55 130.6 30.55 130.2 30.05 129.8 29.6 129.8 28.65 129.8 27.7 130.2 27.2 130.6 26.7 131.25 26.7 131.95 26.7 132.35 27.2
M 136.8 27.8
Q 137.05 27.35 137.4 27.05 137.75 26.8 138.2 26.8 138.7 26.8 139.05 26.95
L 139.05 25.65
Q 138.85 25.55 138.45 25.55 137.85 25.55 137.45 25.8 137.1 26.05 136.8 26.55
L 136.65 25.7 135.45 25.7 135.45 31.55 136.8 31.55 136.8 27.8
M 126.1 24.35
Q 126.1 23.95 126.25 23.7 126.45 23.5 126.9 23.5 127.3 23.5 127.75 23.7
L 127.75 22.5
Q 127.25 22.3 126.75 22.3 125.75 22.3 125.25 22.85 124.7 23.35 124.7 24.35
L 124.7 25.7 123.65 25.7 123.65 26.9 124.7 26.9 124.7 31.55 126.1 31.55 126.1 26.9 127.55 26.9 127.55 25.7 126.1 25.7 126.1 24.35
M 144.45 22.5
L 143.1 22.5 143.1 31.55 144.3 31.55 144.35 30.9
Q 144.65 31.3 145.1 31.5 145.55 31.75 146.1 31.75 146.8 31.75 147.35 31.35 147.95 31 148.3 30.3 148.65 29.6 148.65 28.65 148.65 27.65 148.3 26.95 147.95 26.25 147.35 25.9 146.8 25.55 146.1 25.55 145.1 25.55 144.45 26.2
L 144.45 22.5
M 145.75 30.55
Q 145 30.55 144.45 29.85
L 144.45 27.4
Q 144.95 26.7 145.75 26.7 146.4 26.7 146.8 27.2 147.25 27.7 147.25 28.65 147.25 29.55 146.8 30.05 146.4 30.55 145.75 30.55
M 193.5 31.55
L 193.5 27.8
Q 193.5 25.55 191.05 25.55 190.35 25.55 189.75 25.8 189.15 26.05 188.7 26.5
L 189.4 27.35
Q 189.75 27 190.15 26.85 190.55 26.7 190.95 26.7 191.5 26.7 191.85 26.95 192.15 27.25 192.15 27.8
L 192.15 28
Q 188.55 28 188.55 30 188.55 30.8 189.1 31.25 189.6 31.75 190.4 31.75 191 31.75 191.45 31.45 191.9 31.2 192.15 30.8
L 192.25 31.55 193.5 31.55
M 190.75 30.65
Q 190.35 30.65 190.15 30.45 189.9 30.25 189.9 29.9 189.9 29.45 190.45 29.2 191 28.9 192.15 28.9
L 192.15 29.85
Q 191.55 30.65 190.75 30.65
M 168.15 27.6
Q 168.15 26.65 167.7 26.1 167.2 25.55 166.25 25.55 165.7 25.55 165.25 25.8 164.8 26.1 164.5 26.5
L 164.4 25.7 163.15 25.7 163.15 31.55 164.5 31.55 164.5 27.55
Q 164.75 27.15 165.1 26.95 165.4 26.7 165.85 26.7 166.3 26.7 166.55 27 166.8 27.25 166.8 27.75
L 166.8 31.55 168.15 31.55 168.15 27.6
M 171.2 25.7
L 169.85 25.7 169.85 31.55 171.2 31.55 171.2 25.7
M 177.95 27.6
Q 177.95 26.65 177.5 26.1 177 25.55 176.05 25.55 175.5 25.55 175.05 25.8 174.6 26.1 174.3 26.5
L 174.2 25.7 172.95 25.7 172.95 31.55 174.3 31.55 174.3 27.55
Q 174.55 27.15 174.9 26.95 175.2 26.7 175.65 26.7 176.1 26.7 176.35 27 176.6 27.25 176.6 27.75
L 176.6 31.55 177.95 31.55 177.95 27.6
M 181.9 25.55
Q 180.8 25.55 180.2 26.15 179.6 26.7 179.6 27.6 179.6 28.05 179.75 28.45 179.9 28.8 180.2 29.1 179.4 29.5 179.4 30.25 179.4 30.85 179.8 31.2 179.1 31.6 179.1 32.35 179.1 33.15 179.85 33.65 180.6 34.1 181.9 34.1 183.2 34.1 183.95 33.55 184.7 33.05 184.7 32.05 184.7 31.3 184.2 30.95 183.65 30.55 183 30.55
L 181.4 30.55
Q 180.95 30.55 180.75 30.4 180.55 30.25 180.55 30 180.55 29.7 180.85 29.5 181.3 29.7 181.85 29.7 182.9 29.7 183.5 29.1 184.15 28.5 184.15 27.6 184.15 27 183.8 26.5
L 184.85 25.65 184 24.8 183.1 25.85
Q 182.6 25.55 181.9 25.55
M 181.15 26.85
Q 181.4 26.55 181.9 26.55 182.35 26.55 182.6 26.85 182.85 27.1 182.85 27.6 182.85 28.1 182.6 28.4 182.35 28.7 181.85 28.7 181.4 28.7 181.15 28.4 180.85 28.1 180.85 27.6 180.85 27.1 181.15 26.85
M 181.9 33.1
Q 181.1 33.1 180.7 32.85 180.3 32.6 180.3 32.15 180.3 31.8 180.55 31.55 180.8 31.65 181.2 31.65
L 182.8 31.65
Q 183.1 31.65 183.3 31.8 183.5 31.9 183.5 32.2 183.5 33.1 181.9 33.1
M 170.55 24.6
Q 170.9 24.6 171.15 24.35 171.4 24.1 171.4 23.75 171.4 23.35 171.15 23.15 170.9 22.9 170.55 22.9 170.15 22.9 169.95 23.15 169.7 23.35 169.7 23.75 169.7 24.1 169.95 24.35 170.15 24.6 170.55 24.6
M 234.25 30.6
Q 233.6 30.6 233.15 30.2 232.7 29.75 232.6 29
L 236.7 29
Q 236.7 28.65 236.7 28.5 236.7 27.15 236.05 26.35 235.35 25.55 234.05 25.55 233.3 25.55 232.65 25.9 232 26.3 231.65 27 231.25 27.7 231.25 28.65 231.25 29.6 231.65 30.3 232 31 232.65 31.35 233.35 31.75 234.25 31.75 235.05 31.75 235.6 31.45 236.15 31.2 236.6 30.7
L 235.8 29.85
Q 235.5 30.2 235.15 30.4 234.75 30.6 234.25 30.6
M 234.05 26.65
Q 234.7 26.65 235.05 27 235.4 27.3 235.45 28
L 232.65 28
Q 232.75 27.35 233.1 27 233.5 26.65 234.05 26.65
M 240.8 26.8
Q 241.3 26.8 241.65 26.95
L 241.65 25.65
Q 241.45 25.55 241.05 25.55 240.45 25.55 240.05 25.8 239.7 26.05 239.4 26.55
L 239.25 25.7 238.05 25.7 238.05 31.55 239.4 31.55 239.4 27.8
Q 239.65 27.35 240 27.05 240.35 26.8 240.8 26.8
M 204.55 25.55
Q 203.95 25.55 203.45 25.8 202.95 26.1 202.65 26.55 202.45 26.1 202.05 25.8 201.65 25.55 201 25.55 200.4 25.55 200 25.8 199.6 26.05 199.3 26.45
L 199.2 25.7 197.95 25.7 197.95 31.55 199.3 31.55 199.3 27.5
Q 199.75 26.7 200.5 26.7 200.95 26.7 201.2 27 201.5 27.3 201.5 27.75
L 201.5 31.55 202.85 31.55 202.85 27.5
Q 203.3 26.7 204.05 26.7 204.5 26.7 204.75 27 205.05 27.3 205.05 27.75
L 205.05 31.55 206.4 31.55 206.4 27.55
Q 206.4 26.65 205.9 26.1 205.4 25.55 204.55 25.55
M 213.2 29
Q 213.2 28.65 213.2 28.5 213.2 27.15 212.55 26.35 211.85 25.55 210.55 25.55 209.8 25.55 209.15 25.9 208.5 26.3 208.15 27 207.75 27.7 207.75 28.65 207.75 29.6 208.15 30.3 208.5 31 209.15 31.35 209.85 31.75 210.75 31.75 211.55 31.75 212.1 31.45 212.65 31.2 213.1 30.7
L 212.3 29.85
Q 212 30.2 211.65 30.4 211.25 30.6 210.75 30.6 210.1 30.6 209.65 30.2 209.2 29.75 209.1 29
L 213.2 29
M 210.55 26.65
Q 211.2 26.65 211.55 27 211.9 27.3 211.95 28
L 209.15 28
Q 209.25 27.35 209.6 27 210 26.65 210.55 26.65
M 221.15 25.55
Q 220.55 25.55 220.05 25.8 219.55 26.1 219.25 26.55 219.05 26.1 218.65 25.8 218.25 25.55 217.6 25.55 217 25.55 216.6 25.8 216.2 26.05 215.9 26.45
L 215.8 25.7 214.55 25.7 214.55 31.55 215.9 31.55 215.9 27.5
Q 216.35 26.7 217.1 26.7 217.55 26.7 217.8 27 218.1 27.3 218.1 27.75
L 218.1 31.55 219.45 31.55 219.45 27.5
Q 219.9 26.7 220.65 26.7 221.1 26.7 221.35 27 221.65 27.3 221.65 27.75
L 221.65 31.55 223 31.55 223 27.55
Q 223 26.65 222.5 26.1 222 25.55 221.15 25.55
M 226.05 22.5
L 224.7 22.5 224.7 31.55 225.9 31.55 225.95 30.9
Q 226.25 31.3 226.7 31.5 227.15 31.75 227.7 31.75 228.4 31.75 228.95 31.35 229.55 31 229.9 30.3 230.25 29.6 230.25 28.65 230.25 27.65 229.9 26.95 229.55 26.25 228.95 25.9 228.4 25.55 227.7 25.55 226.7 25.55 226.05 26.2
L 226.05 22.5
M 228.4 27.2
Q 228.85 27.7 228.85 28.65 228.85 29.55 228.4 30.05 228 30.55 227.35 30.55 226.6 30.55 226.05 29.85
L 226.05 27.4
Q 226.55 26.7 227.35 26.7 228 26.7 228.4 27.2 Z"/>

<path fill="#D4D7DA" stroke="none" d="
M 124.55 61.2
Q 125.15 61.2 125.55 61.55 125.9 61.9 125.9 62.55
L 125.9 67.15 127.2 67.15 127.2 62.25
Q 127.85 61.2 128.8 61.2 129.4 61.2 129.75 61.55 130.1 61.9 130.1 62.55
L 130.1 67.15 131.4 67.15 131.4 62.4
Q 131.4 61.35 130.8 60.7 130.2 60.1 129.2 60.1 128.5 60.1 127.9 60.4 127.35 60.75 127 61.3 126.75 60.75 126.25 60.4 125.75 60.1 125 60.1 123.7 60.1 123 61.15
L 122.85 60.3 121.7 60.3 121.7 67.15 123 67.15 123 62.25
Q 123.55 61.2 124.55 61.2
M 139.55 61.75
Q 139.15 60.95 138.45 60.5 137.75 60.1 136.95 60.1 136.3 60.1 135.75 60.35 135.25 60.6 134.9 61
L 134.9 56.5 133.6 56.5 133.6 67.15 134.7 67.15 134.8 66.3
Q 135.15 66.8 135.7 67.05 136.25 67.35 136.95 67.35 137.75 67.35 138.45 66.95 139.15 66.5 139.55 65.7 139.95 64.85 139.95 63.7 139.95 62.6 139.55 61.75
M 136.65 61.2
Q 137.5 61.2 138.05 61.85 138.6 62.5 138.6 63.7 138.6 64.95 138.05 65.6 137.5 66.25 136.65 66.25 135.6 66.25 134.9 65.2
L 134.9 62.25
Q 135.6 61.2 136.65 61.2
M 146.65 61
Q 145.85 60.1 144.5 60.1 143.55 60.1 142.8 60.55 142.1 61 141.65 61.8 141.25 62.65 141.25 63.7 141.25 64.75 141.65 65.6 142.05 66.4 142.8 66.9 143.55 67.35 144.6 67.35 145.6 67.35 146.25 67.05 146.9 66.75 147.4 66
L 146.55 65.25
Q 145.85 66.25 144.65 66.25 143.75 66.25 143.2 65.65 142.65 65.05 142.55 64.05
L 147.45 64.05
Q 147.5 63.65 147.5 63.45 147.5 61.9 146.65 61
M 143.2 61.65
Q 143.7 61.15 144.45 61.15 145.25 61.15 145.75 61.6 146.2 62.05 146.3 63
L 142.6 63
Q 142.7 62.1 143.2 61.65
M 152.25 61.25
Q 152.5 61.25 152.8 61.35 153.1 61.4 153.3 61.45
L 153.3 60.25
Q 152.95 60.1 152.45 60.1 151.75 60.1 151.25 60.4 150.8 60.7 150.5 61.25
L 150.3 60.3 149.2 60.3 149.2 67.15 150.5 67.15 150.5 62.6
Q 151.2 61.25 152.25 61.25
M 105.15 61.2
Q 105.75 61.2 106.15 61.55 106.5 61.9 106.5 62.55
L 106.5 67.15 107.8 67.15 107.8 62.25
Q 108.45 61.2 109.4 61.2 110 61.2 110.35 61.55 110.7 61.9 110.7 62.55
L 110.7 67.15 112 67.15 112 62.4
Q 112 61.35 111.4 60.7 110.8 60.1 109.8 60.1 109.1 60.1 108.5 60.4 107.95 60.75 107.6 61.3 107.35 60.75 106.85 60.4 106.35 60.1 105.6 60.1 104.3 60.1 103.6 61.15
L 103.45 60.3 102.3 60.3 102.3 67.15 103.6 67.15 103.6 62.25
Q 104.15 61.2 105.15 61.2
M 119.15 61
Q 118.35 60.1 117 60.1 116.05 60.1 115.3 60.55 114.6 61 114.15 61.8 113.75 62.65 113.75 63.7 113.75 64.75 114.15 65.6 114.55 66.4 115.3 66.9 116.05 67.35 117.1 67.35 118.1 67.35 118.75 67.05 119.4 66.75 119.9 66
L 119.05 65.25
Q 118.35 66.25 117.15 66.25 116.25 66.25 115.7 65.65 115.15 65.05 115.05 64.05
L 119.95 64.05
Q 120 63.65 120 63.45 120 61.9 119.15 61
M 115.7 61.65
Q 116.2 61.15 116.95 61.15 117.75 61.15 118.25 61.6 118.7 62.05 118.8 63
L 115.1 63
Q 115.2 62.1 115.7 61.65 Z"/>
</g>

<path id="mipper_0_Layer0_1_MEMBER_0_MEMBER_0_MEMBER_1_MEMBER_0_1_STROKES" stroke="#000000" stroke-width="2.95" stroke-linejoin="round" stroke-linecap="round" fill="none" d="
M 282.7 284.25
Q 287.1 297.75 293 309.9
L 304.45 309.9
Q 309.2 308.55 313.4 303.05 313.35 289.8 319.55 284.1
L 328.05 284.1
Q 332.7 287.25 334.75 290.8
L 334.75 304.95
Q 327.35 319.95 320.6 323.9 313.85 327.85 310.15 327.5
L 288.35 327.5
Q 279.1 321.95 274.4 310.65 269.7 299.3 273.3 287.6 276.9 275.8 282.7 284.25 Z"/>

<path id="mipper_0_Layer0_1_MEMBER_0_MEMBER_0_MEMBER_2_MEMBER_0_1_STROKES" stroke="#000000" stroke-width="14.9" stroke-linejoin="round" stroke-linecap="round" fill="none" d="
M 145.45 130.4
L 455 130.4
Q 470.1 130.4 470.1 145.5
L 470.1 455.05
Q 470.1 470.15 455 470.15
L 145.45 470.15
Q 130.35 470.15 130.35 455.05
L 130.35 145.5
Q 130.35 130.4 145.45 130.4 Z"/>

<path id="Layer3_0_1_STROKES" stroke="#1E1F22" stroke-width="2" stroke-linejoin="round" stroke-linecap="round" fill="none" d="
M 97.5 51.55
L 257.5 51.55
Q 260.5 51.55 260.5 54.4
L 260.5 70.55
Q 260.5 73.45 257.5 73.45
L 97.5 73.45
Q 94.5 73.45 94.5 70.55
L 94.5 54.4
Q 94.5 51.55 97.5 51.55 Z"/>
</defs>

<g transform="matrix( 1, 0, 0, 1, 0,0) ">
<use xlink:href="#Layer8_0_FILL"/>
</g>

<g transform="matrix( 1, 0, 0, 1.67266845703125, 10,26.35) ">
<g transform="matrix( 1, 0, 0, 1, 0,0) ">
<use xlink:href="#light_gray_0_Layer0_0_FILL"/>
</g>
</g>

<g transform="matrix( 1, 0, 0, 1, 10,9.65) ">
<g transform="matrix( 1, 0, 0, 1, 0,0) ">
<use xlink:href="#dark_gray_0_Layer0_0_FILL"/>
</g>
</g>

<mask id="Mask_Mask_1">
<g transform="matrix( 1, 0, 0, 1, 0,0) ">
<use xlink:href="#Mask_5_MASK_0_FILL"/>
</g>
</mask>

<g mask="url(#Mask_Mask_1)">
<g transform="matrix( 0.039306640625, 0, 0, 0.039306640625, 24.2,51.15) ">
<g transform="matrix( 1, 0, 0, 1, -2,-2) ">
<mask id="Mask_Mask_2">
<g transform="matrix( 1, 0, 0, 1, 0,0) ">
<use xlink:href="#Mask_mipper_svg_Layer_1__Clip_Group__0_2_MASK_0_FILL"/>
</g>
</mask>

<g mask="url(#Mask_Mask_2)">
<g transform="matrix( -1, 0, 0, -1, 604,604) ">
<use xlink:href="#mipper_svg_Layer_1__Clip_Group__0_Layer2_0_MEMBER_0_MEMBER_0_MEMBER_0_MEMBER_0_FILL"/>
</g>
</g>
</g>

<g transform="matrix( 1, 0, 0, 1, 0,0) ">
<use xlink:href="#mipper_0_Layer0_1_MEMBER_0_MEMBER_0_MEMBER_0_MEMBER_0_MEMBER_0_FILL"/>
</g>

<g transform="matrix( 1, 0, 0, 1, 0,0) ">
<use xlink:href="#mipper_0_Layer0_1_MEMBER_0_MEMBER_0_MEMBER_1_MEMBER_0_1_STROKES"/>
</g>

<g transform="matrix( 1, 0, 0, 1, 0,0) ">
<use xlink:href="#mipper_0_Layer0_1_MEMBER_0_MEMBER_0_MEMBER_2_MEMBER_0_1_STROKES"/>
</g>

<g transform="matrix( 1, 0, 0, 1, 0,0) ">
<use xlink:href="#mipper_0_Layer0_1_MEMBER_1_MEMBER_0_MEMBER_0_MEMBER_0_MEMBER_0_MEMBER_0_FILL"/>
</g>

<g transform="matrix( 1, 0, 0, 1, 0,0) ">
<use xlink:href="#mipper_0_Layer0_1_MEMBER_1_MEMBER_1_MEMBER_0_MEMBER_0_MEMBER_0_MEMBER_0_FILL"/>
</g>
</g>
</g>

<g transform="matrix( 1, 0, 0, 1, 0,0) ">
<use xlink:href="#Layer3_0_1_STROKES"/>
</g>

<g transform="matrix( 1, 0, 0, 1, 0,0) ">
<use xlink:href="#Layer3_1_FILL"/>
</g>

<g transform="matrix( 1, 0, 0, 1, 0,0) ">
<use xlink:href="#Layer2_0_FILL"/>
</g>

<g transform="matrix( 1, 0, 0, 1, 0,0) ">
<use xlink:href="#Layer1_0_FILL"/>
</g>

<g transform="matrix( 1, 0, 0, 1, 0,0) ">
<use xlink:href="#Layer0_0_FILL"/>
</g>
</svg>
