
<svg xmlns="http://www.w3.org/2000/svg" version="1.1" xmlns:xlink="http://www.w3.org/1999/xlink" preserveAspectRatio="none" x="0px" y="0px" width="258px" height="142px" viewBox="0 0 258 142">
<defs>
<linearGradient id="Gradient_1" gradientUnits="userSpaceOnUse" x1="302" y1="602" x2="302" y2="2" spreadMethod="pad">
<stop  offset="0%" stop-color="#A7A7FF"/>

<stop  offset="49.80392156862745%" stop-color="#8180FF"/>

<stop  offset="100%" stop-color="#5959FF"/>
</linearGradient>

<g id="Layer8_0_FILL">
<path fill="#313338" stroke="none" d="
M 396 -72.95
L -152.95 -72.95 -152.95 222 396 222 396 -72.95 Z"/>
</g>

<g id="Mask_7_MASK_0_FILL">
<path fill="#FFFFFF" stroke="none" d="
M 39.35 23.55
Q 34.25 18.45 27.05 18.45 19.75 18.45 14.6 23.55 9.6 28.7 9.6 35.9 9.6 43.2 14.6 48.25 19.75 53.3 27.05 53.3 34.25 53.3 39.35 48.25 44.5 43.2 44.5 35.9 44.5 28.7 39.35 23.55 Z"/>
</g>

<g id="Mask_mipper_svg_Layer_1__Clip_Group__0_2_MASK_0_FILL">
<path fill="#FFFFFF" stroke="none" d="
M 766.3 -103.2
Q 766.3 -111.2 758.3 -111.2
L -144.5 -111.2
Q -152.5 -111.2 -152.5 -103.2
L -152.5 799.6
Q -152.5 807.6 -144.5 807.6
L 758.3 807.6
Q 766.3 807.6 766.3 799.6
L 766.3 -103.2 Z"/>
</g>

<g id="mipper_svg_Layer_1__Clip_Group__0_Layer2_0_MEMBER_0_MEMBER_0_MEMBER_0_MEMBER_0_FILL">
<path fill="url(#Gradient_1)" stroke="none" d="
M 602 602
L 602 2 2 2 2 602 602 602 Z"/>
</g>

<g id="mipper_0_Layer0_1_MEMBER_0_MEMBER_0_MEMBER_0_MEMBER_0_MEMBER_0_FILL">
<path fill="#000000" stroke="none" d="
M 192.25 226.2
Q 178.05 226.2 167.95 236.2 157.95 246.35 157.95 260.5 157.95 274.65 167.95 284.7 178.05 294.8 192.25 294.8 206.5 294.8 216.45 284.7 226.6 274.65 226.6 260.5 226.6 246.35 216.45 236.2 206.55 226.2 192.25 226.2
M 334.75 290.8
Q 332.7 287.25 328.05 284.1
L 319.55 284.1
Q 313.35 289.8 313.4 303.05 309.2 308.55 304.45 309.9
L 293 309.9
Q 287.1 297.75 282.7 284.25 276.9 275.85 273.3 287.5 269.7 299.4 274.35 310.65 279.1 322 288.35 327.5
L 310.15 327.5
Q 313.85 327.85 320.6 323.9 327.35 319.95 334.75 304.95
L 334.75 290.8
M 432.2 232
Q 420.8 217.7 405.8 217.4 390.6 217.1 380.55 231.1 370.4 245.15 372.65 259.9 374.75 274.7 384.75 284.7 394.85 294.8 409.05 294.8 423.25 294.8 433.25 284.7 443.35 274.7 443.35 260.5 443.35 246.3 432.2 232 Z"/>
</g>

<g id="mipper_0_Layer0_1_MEMBER_1_MEMBER_0_MEMBER_0_MEMBER_0_MEMBER_0_MEMBER_0_FILL">
<path fill="#FFFFFF" stroke="none" d="
M 198.4 236.05
Q 192.65 236.05 188.55 240.05 184.5 244.1 184.5 249.9 184.5 255.8 188.55 259.75 192.6 263.8 198.4 263.8 204.2 263.8 208.25 259.75 212.25 255.75 212.25 249.9 212.25 244.15 208.25 240.05 204.2 236.05 198.4 236.05 Z"/>
</g>

<g id="mipper_0_Layer0_1_MEMBER_1_MEMBER_1_MEMBER_0_MEMBER_0_MEMBER_0_MEMBER_0_FILL">
<path fill="#FFFFFF" stroke="none" d="
M 426.35 245.15
Q 426.35 239.4 422.35 235.3 418.3 231.25 412.5 231.25 406.7 231.25 402.65 235.3 398.6 239.35 398.6 245.15 398.6 250.95 402.65 255 406.75 259 412.5 259 418.3 259 422.35 255 426.35 250.95 426.35 245.15 Z"/>
</g>

<g id="Layer5_0_FILL">
<path fill="#807FFF" stroke="none" d="
M 63.05 38
L 62 38
Q 60 38 60 40
L 60 124
Q 60 126 62 126
L 63.05 126 63.05 38 Z"/>

<path fill="#2B2D31" stroke="none" d="
M 249 40
Q 249 38 247 38
L 63.05 38 63.05 126 247 126
Q 249 126 249 124
L 249 40 Z"/>
</g>

<g id="Layer4_0_FILL">
<path fill="#F2F3F5" stroke="none" d="
M 74.3 24.8
L 72.75 24.8 72.75 31.4 74.3 31.4 74.3 24.8
M 72.85 23.25
Q 73.1 23.55 73.55 23.55 73.95 23.55 74.25 23.25 74.5 23 74.5 22.6 74.5 22.15 74.25 21.9 73.95 21.65 73.55 21.65 73.1 21.65 72.85 21.9 72.6 22.15 72.6 22.6 72.6 23 72.85 23.25
M 63.95 21.75
L 61.6 21.75 60.5 31.4 62.15 31.4 62.95 23.7 64.95 29.95 66.7 29.95 68.7 23.7 69.5 31.4 71.15 31.4 70.05 21.75 67.8 21.75 65.85 28.05 63.95 21.75
M 82.05 26.2
Q 81.7 25.45 81 25.05 80.35 24.65 79.6 24.65 78.95 24.65 78.45 24.85 78 25.1 77.65 25.55
L 77.55 24.8 76.2 24.8 76.2 34.05 77.75 34.05 77.75 30.9
Q 78.45 31.6 79.6 31.6 80.35 31.6 81 31.2 81.7 30.8 82.05 30 82.45 29.2 82.45 28.1 82.45 27 82.05 26.2
M 79.2 25.95
Q 79.9 25.95 80.4 26.5 80.9 27.05 80.9 28.1 80.9 29.15 80.4 29.7 79.9 30.3 79.2 30.3 78.3 30.3 77.75 29.5
L 77.75 26.75
Q 78.35 25.95 79.2 25.95
M 89.85 26.2
Q 89.5 25.45 88.8 25.05 88.15 24.65 87.4 24.65 86.75 24.65 86.25 24.85 85.8 25.1 85.45 25.55
L 85.35 24.8 84 24.8 84 34.05 85.55 34.05 85.55 30.9
Q 86.25 31.6 87.4 31.6 88.15 31.6 88.8 31.2 89.5 30.8 89.85 30 90.25 29.2 90.25 28.1 90.25 27 89.85 26.2
M 87 25.95
Q 87.7 25.95 88.2 26.5 88.7 27.05 88.7 28.1 88.7 29.15 88.2 29.7 87.7 30.3 87 30.3 86.1 30.3 85.55 29.5
L 85.55 26.75
Q 86.15 25.95 87 25.95
M 97.55 28.5
Q 97.6 28.15 97.6 27.95 97.6 26.45 96.8 25.55 96.05 24.65 94.6 24.65 93.7 24.65 93 25.05 92.3 25.45 91.85 26.25 91.45 27.05 91.45 28.1 91.45 29.2 91.85 29.95 92.25 30.75 93 31.15 93.8 31.6 94.8 31.6 95.7 31.6 96.35 31.3 96.95 31 97.45 30.45
L 96.55 29.5
Q 96.2 29.9 95.8 30.1 95.4 30.35 94.85 30.35 94.05 30.35 93.55 29.85 93.1 29.35 92.95 28.5
L 97.55 28.5
M 94.6 25.85
Q 95.3 25.85 95.7 26.25 96.15 26.65 96.2 27.4
L 93 27.4
Q 93.1 26.65 93.55 26.25 93.95 25.85 94.6 25.85
M 100.5 24.8
L 99.1 24.8 99.1 31.4 100.65 31.4 100.65 27.2
Q 100.95 26.65 101.35 26.35 101.75 26.05 102.25 26.05 102.75 26.05 103.2 26.2
L 103.2 24.75
Q 102.95 24.65 102.5 24.65 101.8 24.65 101.4 24.9 100.95 25.2 100.65 25.75
L 100.5 24.8
M 127.45 60.6
L 126.2 60.6 126.2 61.95 127.45 61.95 127.45 65.2
Q 127.45 66.3 127.95 66.85 128.45 67.4 129.45 67.4 130.25 67.4 130.8 67.05
L 130.8 65.75
Q 130.55 65.95 130.35 66 130.15 66.1 129.85 66.1 129.35 66.1 129.15 65.8 129 65.5 129 65.05
L 129 61.95 130.8 61.95 130.8 60.6 129 60.6 129 58.35 127.45 58.85 127.45 60.6
M 136.65 60.6
L 135.3 60.6 135.3 69.85 136.85 69.85 136.85 66.7
Q 137.55 67.4 138.7 67.4 139.45 67.4 140.1 67 140.8 66.6 141.15 65.8 141.55 65 141.55 63.9 141.55 62.8 141.15 62 140.8 61.25 140.1 60.85 139.45 60.45 138.7 60.45 138.05 60.45 137.55 60.65 137.1 60.9 136.75 61.35
L 136.65 60.6
M 139.5 62.3
Q 140 62.85 140 63.9 140 64.95 139.5 65.5 139 66.1 138.3 66.1 137.4 66.1 136.85 65.3
L 136.85 62.55
Q 137.45 61.75 138.3 61.75 139 61.75 139.5 62.3
M 151.7 61.05
Q 151.15 60.45 150.1 60.45 149.4 60.45 148.9 60.75 148.4 61.05 148.1 61.5
L 147.95 60.6 146.55 60.6 146.55 67.2 148.1 67.2 148.1 62.7
Q 148.4 62.25 148.75 62 149.15 61.7 149.6 61.7 150.15 61.7 150.4 62.05 150.65 62.35 150.65 62.95
L 150.65 67.2 152.2 67.2 152.2 62.7
Q 152.2 61.65 151.7 61.05
M 144.65 60.6
L 143.1 60.6 143.1 67.2 144.65 67.2 144.65 60.6
M 144.85 58.4
Q 144.85 57.95 144.6 57.7 144.3 57.45 143.9 57.45 143.45 57.45 143.2 57.7 142.95 57.95 142.95 58.4 142.95 58.8 143.2 59.05 143.45 59.35 143.9 59.35 144.3 59.35 144.6 59.05 144.85 58.8 144.85 58.4
M 156.6 60.45
Q 155.45 60.45 154.75 61.1 154.05 61.75 154.05 62.75 154.05 63.25 154.2 63.7 154.4 64.1 154.75 64.45 153.85 64.85 153.85 65.75 153.85 66.4 154.3 66.8 153.5 67.25 153.5 68.1 153.5 69.05 154.35 69.55 155.2 70.05 156.65 70.05 158.1 70.05 158.95 69.45 159.8 68.85 159.8 67.75 159.8 66.9 159.25 66.5 158.65 66.1 157.85 66.1
L 156.1 66.1
Q 155.55 66.1 155.35 65.9 155.1 65.75 155.1 65.45 155.1 65.1 155.45 64.9 156 65.1 156.6 65.1 157.8 65.1 158.5 64.45 159.15 63.8 159.15 62.75 159.15 62.05 158.8 61.5
L 160 60.55 159.05 59.55 158 60.8
Q 157.4 60.45 156.6 60.45
M 155.8 61.85
Q 156.1 61.55 156.6 61.55 157.15 61.55 157.45 61.85 157.75 62.2 157.75 62.75 157.75 63.3 157.45 63.65 157.15 64 156.6 64 156.1 64 155.8 63.65 155.45 63.3 155.45 62.75 155.45 62.2 155.8 61.85
M 157.7 67.3
Q 158 67.3 158.25 67.45 158.45 67.6 158.45 67.95 158.45 68.95 156.65 68.95 155.75 68.95 155.3 68.65 154.85 68.4 154.85 67.85 154.85 67.5 155.1 67.2 155.4 67.3 155.85 67.3
L 157.7 67.3
M 121.05 65.2
L 120 66.05
Q 120.4 66.7 121.15 67.05 121.85 67.4 122.7 67.4 123.9 67.4 124.6 66.8 125.35 66.25 125.35 65.2 125.35 63.65 123.4 63.3
L 123.05 63.2
Q 122.3 63.05 121.95 62.9 121.65 62.7 121.65 62.35 121.65 62 121.95 61.85 122.25 61.65 122.7 61.65 123.55 61.65 124.15 62.45
L 125.15 61.55
Q 124.75 61 124.2 60.7 123.6 60.45 122.75 60.45 121.65 60.45 120.95 60.95 120.25 61.45 120.25 62.45 120.25 63.3 120.75 63.75 121.3 64.2 122.2 64.35
L 122.6 64.45
Q 123.25 64.6 123.55 64.8 123.85 65 123.85 65.35 123.85 65.75 123.55 65.95 123.25 66.2 122.8 66.2 122.2 66.2 121.8 65.95 121.35 65.7 121.05 65.2
M 108.7 60.45
Q 108 60.45 107.5 60.75 107 61.05 106.7 61.55
L 106.7 57 105.15 57 105.15 67.2 106.7 67.2 106.7 62.7
Q 106.95 62.25 107.35 62 107.75 61.7 108.25 61.7 108.8 61.7 109.1 62.05 109.4 62.35 109.4 62.95
L 109.4 67.2 110.95 67.2 110.95 62.8
Q 110.95 61.7 110.35 61.05 109.75 60.45 108.7 60.45
M 103.3 59.35
Q 102.75 58.4 101.85 57.85 100.9 57.35 99.7 57.35 98.35 57.35 97.3 57.95 96.25 58.55 95.7 59.7 95.1 60.85 95.1 62.35 95.1 63.9 95.65 65.05 96.2 66.15 97.15 66.8 98.1 67.4 99.25 67.4 100.1 67.4 100.8 67.1 101.45 66.8 101.85 66.2
L 102.05 67.2 103.4 67.2 103.4 61.9 99.3 61.9 99.3 63.4 101.8 63.4 101.8 64.9
Q 101.5 65.35 100.9 65.65 100.3 65.9 99.65 65.9 98.3 65.9 97.5 64.95 96.75 64 96.75 62.35 96.75 61.25 97.15 60.45 97.5 59.65 98.15 59.25 98.8 58.85 99.7 58.85 100.45 58.85 101.05 59.2 101.65 59.6 102.05 60.3
L 103.3 59.35
M 115.7 60.45
Q 114.8 60.45 114.05 60.85 113.35 61.25 112.9 62 112.5 62.8 112.5 63.9 112.5 65 112.9 65.8 113.35 66.6 114.05 67 114.8 67.4 115.7 67.4 116.6 67.4 117.3 67 118.05 66.6 118.5 65.8 118.9 65 118.9 63.9 118.9 62.8 118.5 62 118.05 61.25 117.3 60.85 116.6 60.45 115.7 60.45
M 117.35 63.9
Q 117.35 64.95 116.9 65.55 116.45 66.1 115.7 66.1 114.9 66.1 114.5 65.55 114.05 64.95 114.05 63.9 114.05 62.85 114.5 62.3 114.9 61.75 115.7 61.75 116.45 61.75 116.9 62.3 117.35 62.85 117.35 63.9
M 163 65.5
Q 162.7 65.2 162.25 65.2 161.8 65.2 161.5 65.5 161.2 65.8 161.2 66.25 161.2 66.7 161.5 67 161.75 67.3 162.25 67.3 162.7 67.3 163 67 163.3 66.7 163.3 66.25 163.3 65.8 163 65.5
M 162.85 64
L 163.1 57.55 161.4 57.55 161.6 64 162.85 64 Z"/>

<path fill="#DBDEE1" stroke="none" d="
M 91.4 105
Q 91.4 104.65 91.4 104.5 91.4 103.2 90.75 102.4 90.1 101.65 88.85 101.65 88.1 101.65 87.5 102 86.85 102.35 86.5 103.05 86.15 103.7 86.15 104.65 86.15 105.55 86.5 106.25 86.85 106.9 87.5 107.25 88.15 107.6 89 107.6 89.8 107.6 90.35 107.35 90.9 107.15 91.3 106.6
L 90.55 105.8
Q 90.25 106.15 89.9 106.35 89.55 106.55 89.05 106.55 88.4 106.55 87.95 106.15 87.55 105.7 87.45 105
L 91.4 105
M 87.5 104
Q 87.6 103.4 87.95 103.05 88.3 102.7 88.85 102.7 89.45 102.7 89.8 103.05 90.15 103.35 90.2 104
L 87.5 104
M 95.85 101.9
Q 95.35 101.65 94.65 101.65 93.65 101.65 93.1 102.1 92.5 102.55 92.5 103.4 92.5 104.15 92.95 104.5 93.4 104.85 94.15 105
L 94.5 105.1
Q 95.1 105.2 95.35 105.4 95.6 105.55 95.6 105.9 95.6 106.2 95.35 106.4 95.1 106.6 94.7 106.6 94.2 106.6 93.8 106.35 93.45 106.15 93.2 105.75
L 92.3 106.45
Q 92.65 107.05 93.25 107.35 93.85 107.6 94.6 107.6 95.6 107.6 96.25 107.15 96.85 106.65 96.85 105.75 96.85 104.4 95.2 104.1
L 94.9 104.05
Q 94.25 103.9 93.95 103.75 93.7 103.6 93.7 103.3 93.7 103 93.95 102.85 94.2 102.7 94.6 102.7 95.35 102.7 95.85 103.35
L 96.7 102.65
Q 96.35 102.15 95.85 101.9
M 101.3 103.35
L 102.15 102.65
Q 101.8 102.15 101.3 101.9 100.8 101.65 100.1 101.65 99.1 101.65 98.55 102.1 97.95 102.55 97.95 103.4 97.95 104.15 98.4 104.5 98.85 104.85 99.6 105
L 99.95 105.1
Q 100.55 105.2 100.8 105.4 101.05 105.55 101.05 105.9 101.05 106.2 100.8 106.4 100.55 106.6 100.15 106.6 99.65 106.6 99.25 106.35 98.9 106.15 98.65 105.75
L 97.75 106.45
Q 98.1 107.05 98.7 107.35 99.3 107.6 100.05 107.6 101.05 107.6 101.7 107.15 102.3 106.65 102.3 105.75 102.3 104.4 100.65 104.1
L 100.35 104.05
Q 99.7 103.9 99.4 103.75 99.15 103.6 99.15 103.3 99.15 103 99.4 102.85 99.65 102.7 100.05 102.7 100.8 102.7 101.3 103.35
M 106.55 103
Q 106.85 103.3 106.85 103.85
L 106.85 104
Q 103.4 104.05 103.4 105.95 103.4 106.75 103.9 107.15 104.4 107.6 105.15 107.6 105.75 107.6 106.2 107.35 106.65 107.1 106.85 106.75
L 106.95 107.45 108.2 107.45 108.2 103.85
Q 108.2 101.65 105.8 101.65 105.1 101.65 104.55 101.9 103.95 102.1 103.55 102.55
L 104.2 103.4
Q 104.55 103.05 104.95 102.9 105.35 102.75 105.7 102.75 106.25 102.75 106.55 103
M 105.5 106.55
Q 105.15 106.55 104.9 106.4 104.7 106.2 104.7 105.85 104.7 105.4 105.2 105.15 105.75 104.9 106.85 104.85
L 106.85 105.8
Q 106.3 106.55 105.5 106.55
M 114.8 101.75
L 114 100.9 113.1 101.95
Q 112.6 101.65 111.95 101.65 110.9 101.65 110.3 102.2 109.7 102.75 109.7 103.65 109.7 104.05 109.85 104.45 110 104.8 110.3 105.1 109.55 105.45 109.55 106.2 109.55 106.75 109.95 107.1 109.25 107.5 109.25 108.2 109.25 109 110 109.45 110.7 109.9 111.95 109.9 113.2 109.9 113.9 109.4 114.65 108.9 114.65 107.9 114.65 107.2 114.15 106.85 113.65 106.5 113 106.5
L 111.45 106.5
Q 111 106.5 110.85 106.35 110.65 106.2 110.65 105.95 110.65 105.65 110.95 105.45 111.4 105.65 111.9 105.65 112.95 105.65 113.5 105.1 114.1 104.5 114.1 103.65 114.1 103.05 113.8 102.55
L 114.8 101.75
M 112.9 103.65
Q 112.9 104.15 112.65 104.4 112.35 104.7 111.9 104.7 111.45 104.7 111.2 104.4 110.95 104.15 110.95 103.65 110.95 103.15 111.2 102.9 111.45 102.6 111.95 102.6 112.35 102.6 112.65 102.9 112.9 103.15 112.9 103.65
M 113.5 108.1
Q 113.5 108.95 111.95 108.95 111.2 108.95 110.8 108.7 110.4 108.45 110.4 108 110.4 107.7 110.6 107.45 110.9 107.55 111.3 107.55
L 112.85 107.55
Q 113.15 107.55 113.3 107.7 113.5 107.8 113.5 108.1
M 118.3 101.65
Q 117.55 101.65 116.95 102 116.3 102.35 115.95 103.05 115.6 103.7 115.6 104.65 115.6 105.55 115.95 106.25 116.3 106.9 116.95 107.25 117.6 107.6 118.45 107.6 119.25 107.6 119.8 107.35 120.35 107.15 120.75 106.6
L 120 105.8
Q 119.7 106.15 119.35 106.35 119 106.55 118.5 106.55 117.85 106.55 117.4 106.15 117 105.7 116.9 105
L 120.85 105
Q 120.85 104.65 120.85 104.5 120.85 103.2 120.2 102.4 119.55 101.65 118.3 101.65
M 117.4 103.05
Q 117.75 102.7 118.3 102.7 118.9 102.7 119.25 103.05 119.6 103.35 119.65 104
L 116.95 104
Q 117.05 103.4 117.4 103.05
M 127.25 102.8
Q 127.75 102.8 128.05 103 128.35 103.25 128.6 103.65
L 129.6 102.95
Q 128.9 101.65 127.25 101.65 126.5 101.65 125.85 102 125.2 102.35 124.85 103 124.45 103.65 124.45 104.6 124.45 105.55 124.85 106.25 125.2 106.9 125.85 107.25 126.45 107.6 127.25 107.6 128.05 107.6 128.65 107.25 129.3 106.9 129.65 106.3
L 128.7 105.55
Q 128.45 106 128.1 106.25 127.8 106.5 127.25 106.5 126.6 106.5 126.2 106 125.8 105.5 125.8 104.6 125.8 103.75 126.2 103.25 126.6 102.8 127.25 102.8
M 136.05 104.65
Q 136.05 103.7 135.7 103 135.3 102.35 134.7 102 134.05 101.65 133.3 101.65 132.55 101.65 131.9 102 131.3 102.35 130.9 103 130.55 103.7 130.55 104.65 130.55 105.6 130.9 106.25 131.3 106.9 131.9 107.25 132.55 107.6 133.3 107.6 134.05 107.6 134.7 107.25 135.3 106.9 135.7 106.25 136.05 105.6 136.05 104.65
M 134.35 103.25
Q 134.75 103.7 134.75 104.65 134.75 105.55 134.35 106 133.95 106.5 133.3 106.5 132.65 106.5 132.25 106 131.85 105.55 131.85 104.65 131.85 103.7 132.25 103.25 132.65 102.75 133.3 102.75 133.95 102.75 134.35 103.25
M 142.2 103.6
Q 142.2 102.7 141.75 102.15 141.3 101.65 140.4 101.65 139.85 101.65 139.4 101.9 138.95 102.15 138.7 102.6
L 138.6 101.8 137.4 101.8 137.4 107.45 138.7 107.45 138.7 103.6
Q 138.95 103.2 139.25 103 139.55 102.75 139.95 102.75 140.45 102.75 140.65 103.05 140.9 103.3 140.9 103.8
L 140.9 107.45 142.2 107.45 142.2 103.6
M 147.3 102.95
L 147.3 101.8 145.75 101.8 145.75 99.85 144.4 100.25 144.4 101.8 143.35 101.8 143.35 102.95 144.4 102.95 144.4 105.7
Q 144.4 106.7 144.85 107.15 145.3 107.6 146.15 107.6 146.85 107.6 147.3 107.35
L 147.3 106.25
Q 147.05 106.35 146.9 106.45 146.7 106.5 146.5 106.5 146.05 106.5 145.9 106.25 145.75 106 145.75 105.65
L 145.75 102.95 147.3 102.95
M 153.4 104.5
Q 153.4 103.2 152.75 102.4 152.1 101.65 150.85 101.65 150.1 101.65 149.5 102 148.85 102.35 148.5 103.05 148.15 103.7 148.15 104.65 148.15 105.55 148.5 106.25 148.85 106.9 149.5 107.25 150.15 107.6 151 107.6 151.8 107.6 152.35 107.35 152.9 107.15 153.3 106.6
L 152.55 105.8
Q 152.25 106.15 151.9 106.35 151.55 106.55 151.05 106.55 150.4 106.55 149.95 106.15 149.55 105.7 149.45 105
L 153.4 105
Q 153.4 104.65 153.4 104.5
M 150.85 102.7
Q 151.45 102.7 151.8 103.05 152.15 103.35 152.2 104
L 149.5 104
Q 149.6 103.4 149.95 103.05 150.3 102.7 150.85 102.7
M 157.25 102.75
Q 157.75 102.75 157.95 103.05 158.2 103.3 158.2 103.8
L 158.2 107.45 159.5 107.45 159.5 103.6
Q 159.5 102.7 159.05 102.15 158.6 101.65 157.7 101.65 157.15 101.65 156.7 101.9 156.25 102.15 156 102.6
L 155.9 101.8 154.7 101.8 154.7 107.45 156 107.45 156 103.6
Q 156.25 103.2 156.55 103 156.85 102.75 157.25 102.75
M 75.9 107.45
L 77.35 107.45 78 100.85 79.75 106.2 81.2 106.2 82.9 100.85 83.6 107.45 85.05 107.45 84.1 99.15 82.15 99.15 80.5 104.6 78.85 99.15 76.85 99.15 75.9 107.45
M 166.45 105.75
Q 166.2 105.75 166 105.85 165.9 105.9 165.8 106 165.55 106.25 165.55 106.65 165.55 107.05 165.8 107.3 165.9 107.4 166 107.45 166.2 107.55 166.45 107.55 166.85 107.55 167.1 107.3 167.35 107.05 167.35 106.65 167.35 106.25 167.1 106 166.85 105.75 166.45 105.75
M 163.05 101.8
L 163.05 99.85 161.7 100.25 161.7 101.8 160.65 101.8 160.65 102.95 161.7 102.95 161.7 105.7
Q 161.7 106.7 162.15 107.15 162.6 107.6 163.45 107.6 164.15 107.6 164.6 107.35
L 164.6 106.25
Q 164.35 106.35 164.2 106.45 164 106.5 163.8 106.5 163.35 106.5 163.2 106.25 163.05 106 163.05 105.65
L 163.05 102.95 164.6 102.95 164.6 101.8 163.05 101.8
M 167.35 102.6
Q 167.35 102.2 167.1 101.95 166.85 101.7 166.45 101.7 166.2 101.7 166 101.8 165.9 101.85 165.8 101.95 165.55 102.2 165.55 102.6 165.55 103 165.8 103.25 165.9 103.35 166 103.4 166.2 103.5 166.45 103.5 166.85 103.5 167.1 103.25 167.35 103 167.35 102.6
M 160.6 91.9
Q 161 91.9 161.25 91.65 161.5 91.4 161.5 91 161.5 90.6 161.25 90.35 161 90.1 160.6 90.1 160.2 90.1 159.95 90.35 159.7 90.6 159.7 91 159.7 91.4 159.95 91.65 160.2 91.9 160.6 91.9
M 151.1 86
Q 150.35 86 149.7 86.35 149.1 86.7 148.7 87.35 148.35 88.05 148.35 89 148.35 89.95 148.7 90.6 149.1 91.25 149.7 91.6 150.35 91.95 151.1 91.95 151.85 91.95 152.5 91.6 153.1 91.25 153.5 90.6 153.85 89.95 153.85 89 153.85 88.05 153.5 87.35 153.1 86.7 152.5 86.35 151.85 86 151.1 86
M 149.65 89
Q 149.65 88.05 150.05 87.6 150.45 87.1 151.1 87.1 151.75 87.1 152.15 87.6 152.55 88.05 152.55 89 152.55 89.9 152.15 90.35 151.75 90.85 151.1 90.85 150.45 90.85 150.05 90.35 149.65 89.9 149.65 89
M 143.4 83.05
L 142.1 83.05 142.1 91.8 143.4 91.8 143.4 87.95
Q 143.6 87.55 143.95 87.35 144.3 87.1 144.7 87.1 145.2 87.1 145.45 87.4 145.7 87.65 145.7 88.15
L 145.7 91.8 147 91.8 147 88
Q 147 87.1 146.5 86.55 146 86 145.1 86 144.55 86 144.1 86.25 143.65 86.55 143.4 86.95
L 143.4 83.05
M 158.65 86.1
Q 158.45 86 158.05 86 157.5 86 157.1 86.25 156.75 86.5 156.5 87
L 156.35 86.15 155.2 86.15 155.2 91.8 156.5 91.8 156.5 88.2
Q 156.75 87.7 157.05 87.45 157.4 87.2 157.85 87.2 158.3 87.2 158.65 87.35
L 158.65 86.1
M 161.25 86.3
Q 161 86.05 160.6 86.05 160.2 86.05 159.95 86.3 159.7 86.55 159.7 86.95 159.7 87.35 159.95 87.6 160.2 87.85 160.6 87.85 161 87.85 161.25 87.6 161.5 87.35 161.5 86.95 161.5 86.55 161.25 86.3
M 127 86
Q 126.3 86 125.75 86.25 125.15 86.45 124.75 86.9
L 125.4 87.75
Q 125.75 87.4 126.15 87.25 126.55 87.1 126.9 87.1 127.45 87.1 127.75 87.35 128.05 87.65 128.05 88.2
L 128.05 88.35
Q 124.6 88.4 124.6 90.3 124.6 91.1 125.1 91.5 125.6 91.95 126.35 91.95 126.95 91.95 127.4 91.7 127.85 91.45 128.05 91.1
L 128.15 91.8 129.4 91.8 129.4 88.2
Q 129.4 86 127 86
M 128.05 90.15
Q 127.5 90.9 126.7 90.9 126.35 90.9 126.1 90.75 125.9 90.55 125.9 90.2 125.9 89.75 126.4 89.5 126.95 89.25 128.05 89.2
L 128.05 90.15
M 135.8 86.15
L 134.5 86.15 134.5 90
Q 134.25 90.4 133.95 90.65 133.6 90.85 133.2 90.85 132.75 90.85 132.55 90.6 132.3 90.3 132.3 89.8
L 132.3 86.15 131 86.15 131 90
Q 131 90.95 131.45 91.45 131.9 91.95 132.8 91.95 133.35 91.95 133.8 91.7 134.25 91.45 134.5 91.05
L 134.6 91.8 135.8 91.8 135.8 86.15
M 139.35 84.2
L 138 84.6 138 86.15 136.95 86.15 136.95 87.3 138 87.3 138 90.05
Q 138 91.05 138.45 91.5 138.9 91.95 139.75 91.95 140.45 91.95 140.9 91.7
L 140.9 90.6
Q 140.65 90.7 140.5 90.8 140.3 90.85 140.1 90.85 139.65 90.85 139.5 90.6 139.35 90.35 139.35 90
L 139.35 87.3 140.9 87.3 140.9 86.15 139.35 86.15 139.35 84.2
M 105.8 86
Q 105.1 86 104.55 86.25 103.95 86.45 103.55 86.9
L 104.2 87.75
Q 104.55 87.4 104.95 87.25 105.35 87.1 105.7 87.1 106.25 87.1 106.55 87.35 106.85 87.65 106.85 88.2
L 106.85 88.35
Q 103.4 88.4 103.4 90.3 103.4 91.1 103.9 91.5 104.4 91.95 105.15 91.95 105.75 91.95 106.2 91.7 106.65 91.45 106.85 91.1
L 106.95 91.8 108.2 91.8 108.2 88.2
Q 108.2 86 105.8 86
M 106.85 89.2
L 106.85 90.15
Q 106.3 90.9 105.5 90.9 105.15 90.9 104.9 90.75 104.7 90.55 104.7 90.2 104.7 89.75 105.2 89.5 105.75 89.25 106.85 89.2
M 113.1 86.3
Q 112.6 86 111.95 86 110.9 86 110.3 86.55 109.7 87.1 109.7 88 109.7 88.4 109.85 88.8 110 89.15 110.3 89.45 109.55 89.8 109.55 90.55 109.55 91.1 109.95 91.45 109.25 91.85 109.25 92.55 109.25 93.35 110 93.8 110.7 94.25 111.95 94.25 113.2 94.25 113.9 93.75 114.65 93.25 114.65 92.25 114.65 91.55 114.15 91.2 113.65 90.85 113 90.85
L 111.45 90.85
Q 111 90.85 110.85 90.7 110.65 90.55 110.65 90.3 110.65 90 110.95 89.8 111.4 90 111.9 90 112.95 90 113.5 89.45 114.1 88.85 114.1 88 114.1 87.4 113.8 86.9
L 114.8 86.1 114 85.25 113.1 86.3
M 110.95 88
Q 110.95 87.5 111.2 87.25 111.45 86.95 111.95 86.95 112.35 86.95 112.65 87.25 112.9 87.5 112.9 88 112.9 88.5 112.65 88.75 112.35 89.05 111.9 89.05 111.45 89.05 111.2 88.75 110.95 88.5 110.95 88
M 110.4 92.35
Q 110.4 92.05 110.6 91.8 110.9 91.9 111.3 91.9
L 112.85 91.9
Q 113.15 91.9 113.3 92.05 113.5 92.15 113.5 92.45 113.5 93.3 111.95 93.3 111.2 93.3 110.8 93.05 110.4 92.8 110.4 92.35
M 118.3 86
Q 117.55 86 116.95 86.35 116.3 86.7 115.95 87.4 115.6 88.05 115.6 89 115.6 89.9 115.95 90.6 116.3 91.25 116.95 91.6 117.6 91.95 118.45 91.95 119.25 91.95 119.8 91.7 120.35 91.5 120.75 90.95
L 120 90.15
Q 119.7 90.5 119.35 90.7 119 90.9 118.5 90.9 117.85 90.9 117.4 90.5 117 90.05 116.9 89.35
L 120.85 89.35
Q 120.85 89 120.85 88.85 120.85 87.55 120.2 86.75 119.55 86 118.3 86
M 119.25 87.4
Q 119.6 87.7 119.65 88.35
L 116.95 88.35
Q 117.05 87.75 117.4 87.4 117.75 87.05 118.3 87.05 118.9 87.05 119.25 87.4
M 88.85 86
Q 88.1 86 87.5 86.35 86.85 86.7 86.5 87.4 86.15 88.05 86.15 89 86.15 89.9 86.5 90.6 86.85 91.25 87.5 91.6 88.15 91.95 89 91.95 89.8 91.95 90.35 91.7 90.9 91.5 91.3 90.95
L 90.55 90.15
Q 90.25 90.5 89.9 90.7 89.55 90.9 89.05 90.9 88.4 90.9 87.95 90.5 87.55 90.05 87.45 89.35
L 91.4 89.35
Q 91.4 89 91.4 88.85 91.4 87.55 90.75 86.75 90.1 86 88.85 86
M 89.8 87.4
Q 90.15 87.7 90.2 88.35
L 87.5 88.35
Q 87.6 87.75 87.95 87.4 88.3 87.05 88.85 87.05 89.45 87.05 89.8 87.4
M 84.1 83.5
L 82.15 83.5 80.5 88.95 78.85 83.5 76.85 83.5 75.9 91.8 77.35 91.8 78 85.2 79.75 90.55 81.2 90.55 82.9 85.2 83.6 91.8 85.05 91.8 84.1 83.5
M 95.85 86.25
Q 95.35 86 94.65 86 93.65 86 93.1 86.45 92.5 86.9 92.5 87.75 92.5 88.5 92.95 88.85 93.4 89.2 94.15 89.35
L 94.5 89.45
Q 95.1 89.55 95.35 89.75 95.6 89.9 95.6 90.25 95.6 90.55 95.35 90.75 95.1 90.95 94.7 90.95 94.2 90.95 93.8 90.7 93.45 90.5 93.2 90.1
L 92.3 90.8
Q 92.65 91.4 93.25 91.7 93.85 91.95 94.6 91.95 95.6 91.95 96.25 91.5 96.85 91 96.85 90.1 96.85 88.75 95.2 88.45
L 94.9 88.4
Q 94.25 88.25 93.95 88.1 93.7 87.95 93.7 87.65 93.7 87.35 93.95 87.2 94.2 87.05 94.6 87.05 95.35 87.05 95.85 87.7
L 96.7 87
Q 96.35 86.5 95.85 86.25
M 100.1 86
Q 99.1 86 98.55 86.45 97.95 86.9 97.95 87.75 97.95 88.5 98.4 88.85 98.85 89.2 99.6 89.35
L 99.95 89.45
Q 100.55 89.55 100.8 89.75 101.05 89.9 101.05 90.25 101.05 90.55 100.8 90.75 100.55 90.95 100.15 90.95 99.65 90.95 99.25 90.7 98.9 90.5 98.65 90.1
L 97.75 90.8
Q 98.1 91.4 98.7 91.7 99.3 91.95 100.05 91.95 101.05 91.95 101.7 91.5 102.3 91 102.3 90.1 102.3 88.75 100.65 88.45
L 100.35 88.4
Q 99.7 88.25 99.4 88.1 99.15 87.95 99.15 87.65 99.15 87.35 99.4 87.2 99.65 87.05 100.05 87.05 100.8 87.05 101.3 87.7
L 102.15 87
Q 101.8 86.5 101.3 86.25 100.8 86 100.1 86 Z"/>
</g>

<g id="_______1_0_Layer1_0_FILL">
<path fill="#5865F2" stroke="none" d="
M 12.1 -4.65
Q 12.1 -6.65 10.1 -6.65
L -10.1 -6.65
Q -12.1 -6.65 -12.1 -4.65
L -12.1 4.65
Q -12.1 6.65 -10.1 6.65
L 10.1 6.65
Q 12.1 6.65 12.1 4.65
L 12.1 -4.65 Z"/>
</g>

<g id="bot_tag_text_0_Layer0_0_FILL">
<path fill="#FFFFFF" stroke="none" d="
M 4.25 1.7
Q 4.25 1 3.8 0.55 3.35 0.15 2.6 0.15
L 0 0.15 0 6.35 2.5 6.35
Q 3.45 6.35 4 5.95 4.5 5.5 4.5 4.65 4.5 3.4 3.35 3.1 3.75 2.95 4 2.6 4.25 2.25 4.25 1.7
M 2.95 1.25
Q 3.2 1.45 3.2 1.9 3.2 2.7 2.25 2.7
L 1.05 2.7 1.05 1.05 2.25 1.05
Q 2.7 1.05 2.95 1.25
M 2.4 5.45
L 1.05 5.45 1.05 3.6 2.4 3.6
Q 2.85 3.6 3.15 3.85 3.45 4.05 3.45 4.55 3.45 5 3.15 5.25 2.85 5.45 2.4 5.45
M 10.8 3.25
Q 10.8 2.25 10.45 1.5 10.1 0.8 9.45 0.4 8.8 0 8 0 7.2 0 6.55 0.4 5.9 0.8 5.55 1.5 5.2 2.25 5.2 3.25 5.2 4.25 5.55 5 5.9 5.7 6.55 6.1 7.2 6.5 8 6.5 8.8 6.5 9.45 6.1 10.1 5.7 10.45 5 10.8 4.25 10.8 3.25
M 8 0.95
Q 8.85 0.95 9.3 1.55 9.75 2.15 9.75 3.25 9.75 4.35 9.3 4.95 8.85 5.5 8 5.5 7.2 5.5 6.75 4.95 6.25 4.35 6.25 3.25 6.25 2.15 6.75 1.55 7.2 0.95 8 0.95
M 16.1 1.1
L 16.1 0.15 11.35 0.15 11.35 1.1 13.2 1.1 13.2 6.35 14.25 6.35 14.25 1.1 16.1 1.1 Z"/>
</g>

<g id="ghost_0_Layer0_0_FILL">
<path fill="#DFE9EE" stroke="none" d="
M 32.55 9.6
Q 32 10.15 32 11
L 31.6 12.75
Q 30.85 14.55 29 14.9
L 29 12
Q 29 7.45 25.75 4.25 22.55 1 18 1 13.45 1 10.2 4.25 7 7.45 7 12
L 7 15.25
Q 3.45 16.35 1.55 20.3 0 23.5 0 27 0 27.85 0.55 28.45 1.15 29 2 29 2.85 29 3.4 28.45 4 27.85 4 27 4 26.15 4.4 25.2 5.25 23.35 7.3 23.05 7.75 27.25 8.55 29.85 9.6 33 11 33
L 12 33
Q 14 33 15.5 34 17 35 19 35 21.15 35 22.4 34 23.65 33 25 33 26.4 33 27.75 34 29.1 35 31 35 32.25 35 33.1 34.15 34 33.25 34 32 34 31.7 32.65 28.75 31 25.1 30.2 22.75 33.95 21.85 35.25 17.7 36 15.35 36 11 36 10.2 35.4 9.6 34.85 9 34 9 33.15 9 32.55 9.6 Z"/>
</g>

<g id="ghost_0_Layer0_1_FILL">
<path fill="#212B30" stroke="none" d="
M 13 10
Q 12.15 10 11.55 10.6 11 11.15 11 12 11 12.85 11.55 13.45 12.15 14 13 14 13.85 14 14.4 13.45 15 12.85 15 12 15 11.2 14.4 10.6 13.85 10 13 10 Z"/>
</g>

<g id="ghost_0_Layer0_2_FILL">
<path fill="#212B30" stroke="none" d="
M 23 8
Q 21.3 8 20.15 9.2 19 10.35 19 12 19 13.7 20.15 14.85 21.3 16 23 16 24.65 16 25.85 14.85 27 13.7 27 12 27 10.35 25.85 9.2 24.65 8 23 8 Z"/>
</g>

<g id="ghost_0_Layer0_3_FILL">
<path fill="#94ACB6" stroke="none" d="
M 23 11
Q 22.15 11 21.55 11.6 21 12.15 21 13 21 13.85 21.55 14.45 22.15 15 23 15 23.85 15 24.4 14.45 25 13.85 25 13 25 12.2 24.4 11.6 23.85 11 23 11 Z"/>
</g>

<g id="ghost_0_Layer0_4_FILL">
<path fill="#212B30" stroke="none" d="
M 22.15 19.5
Q 20.15 18.05 17.95 18.05 15.8 18.05 14.65 19.5 13.55 21 14.15 23.1 14.75 25.25 16.75 26.7 18.75 28.2 20.95 28.2 23.15 28.2 24.25 26.7 25.4 25.25 24.75 23.1 24.15 21 22.15 19.5 Z"/>
</g>

<g id="Layer2_0_FILL">
<path fill="#949BA4" stroke="none" d="
M 147.75 27
Q 147.45 26.4 146.9 26.05 146.35 25.75 145.65 25.75 145 25.75 144.45 26.05 143.9 26.4 143.6 27 143.3 27.65 143.3 28.45 143.3 29.3 143.6 29.9 143.9 30.55 144.45 30.85 145 31.2 145.65 31.2 146.35 31.2 146.9 30.85 147.45 30.55 147.75 29.9 148.05 29.3 148.05 28.45 148.05 27.65 147.75 27
M 147.3 28.45
Q 147.3 29.5 146.85 30 146.4 30.55 145.65 30.55 144.95 30.55 144.5 30 144.05 29.5 144.05 28.45 144.05 27.45 144.5 26.9 144.95 26.35 145.65 26.35 146.4 26.35 146.85 26.9 147.3 27.45 147.3 28.45
M 158.7 27.55
L 158.7 27.9
Q 157.05 27.9 156.25 28.35 155.35 28.75 155.35 29.7 155.35 30.45 155.85 30.8 156.35 31.2 157 31.2 157.55 31.2 158 30.95 158.5 30.65 158.7 30.3
L 158.8 31.05 159.45 31.05 159.45 27.55
Q 159.45 26.65 158.95 26.2 158.45 25.75 157.5 25.75 156.9 25.75 156.4 25.95 155.85 26.2 155.55 26.55
L 155.95 27.1
Q 156.3 26.75 156.7 26.55 157.1 26.35 157.5 26.35 158.1 26.35 158.4 26.65 158.7 26.95 158.7 27.55
M 158.7 29.6
Q 158.1 30.55 157.15 30.55 156.7 30.55 156.4 30.35 156.15 30.1 156.15 29.7 156.15 29.05 156.75 28.8 157.35 28.5 158.7 28.45
L 158.7 29.6
M 142.6 24.2
L 142.6 23.45 137.1 23.45 137.1 24.2 139.45 24.2 139.45 31.05 140.2 31.05 140.2 24.2 142.6 24.2
M 153.8 23
L 153.05 23 153.05 26.55
Q 152.8 26.15 152.35 25.95 151.9 25.75 151.35 25.75 150.8 25.75 150.25 26.05 149.75 26.35 149.45 27 149.15 27.6 149.15 28.45 149.15 29.35 149.45 29.95 149.75 30.55 150.25 30.9 150.8 31.2 151.35 31.2 151.9 31.2 152.4 30.95 152.85 30.75 153.1 30.35
L 153.15 31.05 153.8 31.05 153.8 23
M 153.05 27.35
L 153.05 29.6
Q 152.45 30.55 151.5 30.55 151.1 30.55 150.75 30.35 150.35 30.15 150.15 29.65 149.9 29.2 149.9 28.45 149.9 27.75 150.15 27.25 150.35 26.8 150.75 26.6 151.1 26.35 151.5 26.35 152.45 26.35 153.05 27.35
M 187.9 25.95
Q 187.75 25.8 187.5 25.8 187.2 25.8 187.05 25.95 186.9 26.1 186.9 26.4 186.9 26.65 187.05 26.8 187.2 26.95 187.5 26.95 187.75 26.95 187.9 26.8 188.05 26.65 188.05 26.4 188.05 26.1 187.9 25.95
M 188.05 30.55
Q 188.05 30.3 187.9 30.15 187.75 29.95 187.5 29.95 187.2 29.95 187.05 30.15 186.9 30.3 186.9 30.55 186.9 30.8 187.05 30.95 187.2 31.15 187.5 31.15 187.75 31.15 187.9 30.95 188.05 30.8 188.05 30.55
M 164.5 25.9
L 162.9 30.15 161.35 25.9 160.55 25.9 162.55 31.05 162.4 31.45
Q 162.15 32.05 161.9 32.35 161.6 32.6 161.15 32.6 160.9 32.6 160.5 32.45
L 160.5 33.1
Q 160.85 33.25 161.2 33.25 161.85 33.25 162.25 32.9 162.65 32.5 162.95 31.8
L 165.25 25.9 164.5 25.9
M 172.6 31.05
L 172.6 27.55
Q 172.6 26.65 172.1 26.2 171.6 25.75 170.65 25.75 170.05 25.75 169.55 25.95 169 26.2 168.7 26.55
L 169.1 27.1
Q 169.45 26.75 169.85 26.55 170.25 26.35 170.65 26.35 171.25 26.35 171.55 26.65 171.85 26.95 171.85 27.55
L 171.85 27.9
Q 170.2 27.9 169.4 28.35 168.5 28.75 168.5 29.7 168.5 30.45 169 30.8 169.5 31.2 170.15 31.2 170.7 31.2 171.15 30.95 171.65 30.65 171.85 30.3
L 171.95 31.05 172.6 31.05
M 169.55 30.35
Q 169.3 30.1 169.3 29.7 169.3 29.05 169.9 28.8 170.5 28.5 171.85 28.45
L 171.85 29.6
Q 171.25 30.55 170.3 30.55 169.85 30.55 169.55 30.35
M 175.6 24.1
L 174.85 24.35 174.85 25.9 173.75 25.9 173.75 26.5 174.85 26.5 174.85 29.7
Q 174.85 30.45 175.2 30.8 175.55 31.2 176.2 31.2 176.8 31.2 177.25 30.95
L 177.25 30.3
Q 176.95 30.45 176.8 30.5 176.6 30.55 176.35 30.55 175.6 30.55 175.6 29.7
L 175.6 26.5 177.25 26.5 177.25 25.9 175.6 25.9 175.6 24.1
M 184.7 23.45
L 183.7 23.45 180.3 28.6 180.3 29.3 183.95 29.3 183.95 31.05 184.7 31.05 184.7 29.3 185.95 29.3 185.95 28.6 184.7 28.6 184.7 23.45
M 183.95 24.35
L 183.95 28.6 181.15 28.6 183.95 24.35
M 191.8 23.45
L 191.05 23.45
Q 190.25 24.85 189.4 24.9
L 189.4 25.75
Q 190.35 25.65 191.05 24.55
L 191.05 31.05 191.8 31.05 191.8 23.45
M 192.95 24.15
L 196.65 24.15
Q 194.4 26.75 194.35 31.05
L 195.2 31.05
Q 195.2 26.5 197.4 24.15
L 197.4 23.45 192.95 23.45 192.95 24.15
M 205.7 24.1
Q 205.1 23.45 204.05 23.45
L 201.1 23.45 201.1 31.05 201.9 31.05 201.9 28.25 204.05 28.25
Q 205.1 28.25 205.7 27.6 206.3 26.95 206.3 25.85 206.3 24.75 205.7 24.1
M 204 24.2
Q 204.75 24.2 205.1 24.6 205.5 25 205.5 25.85 205.5 26.7 205.1 27.1 204.75 27.5 204 27.5
L 201.9 27.5 201.9 24.2 204 24.2
M 214.5 23.45
L 213.45 23.45 211.45 29.1 209.45 23.45 208.4 23.45 207.5 31.05 208.25 31.05 209.05 24.35 211 29.8 211.9 29.8 213.85 24.35 214.65 31.05 215.4 31.05 214.5 23.45 Z"/>
</g>

<g id="Layer1_0_FILL">
<path fill="#393D6B" stroke="none" d="
M 165.55 95.7
Q 166.055859375 96.1 166.95 96.1
L 229 96.1
Q 229.894140625 96.1 230.4 95.7
L 165.55 95.7 Z"/>
</g>

<g id="ping1_0_Layer1_0_FILL">
<path fill="#393D6B" stroke="none" d="
M 33.05 -6.4
Q 33.05 -8.4 31.05 -8.4
L -31 -8.4
Q -33 -8.4 -33 -6.4
L -33 6.85
Q -33 7.95 -32.4 8.45
L 32.45 8.45
Q 33.05 7.95 33.05 6.85
L 33.05 -6.4 Z"/>
</g>

<g id="_shikoshib_0_Layer0_0_FILL">
<path fill="#C9CDFB" stroke="none" d="
M 26.7 -3.45
L 25.4 -3.45 25.4 5.3 26.5 5.3 26.6 4.7
Q 26.9 5.05 27.3 5.25 27.75 5.45 28.25 5.45 28.95 5.45 29.5 5.1 30.05 4.75 30.4 4.1 30.75 3.45 30.75 2.5 30.75 1.55 30.4 0.85 30.05 0.2 29.5 -0.15 28.95 -0.5 28.25 -0.5 27.3 -0.5 26.7 0.1
L 26.7 -3.45
M 28.95 1.1
Q 29.4 1.6 29.4 2.5 29.4 3.35 28.95 3.85 28.55 4.35 27.9 4.35 27.2 4.35 26.7 3.65
L 26.7 1.3
Q 27.2 0.6 27.9 0.6 28.55 0.6 28.95 1.1
M 23.7 -0.35
L 22.4 -0.35 22.4 5.3 23.7 5.3 23.7 -0.35
M 22.25 -2.25
Q 22.25 -1.9 22.45 -1.65 22.65 -1.45 23.05 -1.45 23.4 -1.45 23.65 -1.65 23.85 -1.9 23.85 -2.25 23.85 -2.6 23.65 -2.85 23.4 -3.05 23.05 -3.05 22.65 -3.05 22.45 -2.85 22.25 -2.6 22.25 -2.25
M 17.1 -3.45
L 15.8 -3.45 15.8 5.3 17.1 5.3 17.1 1.45
Q 17.3 1.05 17.65 0.85 18 0.6 18.4 0.6 18.9 0.6 19.15 0.9 19.4 1.15 19.4 1.65
L 19.4 5.3 20.7 5.3 20.7 1.5
Q 20.7 0.6 20.2 0.05 19.7 -0.5 18.8 -0.5 18.25 -0.5 17.8 -0.25 17.35 0.05 17.1 0.45
L 17.1 -3.45
M 13.5 -0.25
Q 13 -0.5 12.3 -0.5 11.3 -0.5 10.75 -0.05 10.15 0.4 10.15 1.25 10.15 2 10.6 2.35 11.05 2.7 11.8 2.85
L 12.15 2.95
Q 12.75 3.05 13 3.25 13.25 3.4 13.25 3.75 13.25 4.05 13 4.25 12.75 4.45 12.35 4.45 11.85 4.45 11.45 4.2 11.1 4 10.85 3.6
L 9.95 4.3
Q 10.3 4.9 10.9 5.2 11.5 5.45 12.25 5.45 13.25 5.45 13.9 5 14.5 4.5 14.5 3.6 14.5 2.25 12.85 1.95
L 12.55 1.9
Q 11.9 1.75 11.6 1.6 11.35 1.45 11.35 1.15 11.35 0.85 11.6 0.7 11.85 0.55 12.25 0.55 13 0.55 13.5 1.2
L 14.35 0.5
Q 14 0 13.5 -0.25
M 7.65 -0.15
Q 7 -0.5 6.25 -0.5 5.5 -0.5 4.85 -0.15 4.25 0.2 3.85 0.85 3.5 1.55 3.5 2.5 3.5 3.45 3.85 4.1 4.25 4.75 4.85 5.1 5.5 5.45 6.25 5.45 7 5.45 7.65 5.1 8.25 4.75 8.65 4.1 9 3.45 9 2.5 9 1.55 8.65 0.85 8.25 0.2 7.65 -0.15
M 6.25 0.6
Q 6.9 0.6 7.3 1.1 7.7 1.55 7.7 2.5 7.7 3.4 7.3 3.85 6.9 4.35 6.25 4.35 5.6 4.35 5.2 3.85 4.8 3.4 4.8 2.5 4.8 1.55 5.2 1.1 5.6 0.6 6.25 0.6
M 2.65 -0.35
L 1.05 -0.35 -1 1.55 -1 -3.45 -2.3 -3.45 -2.3 5.3 -1 5.3 -1 3.1 -0.45 2.6
Q 0.65 3.8 1.2 5.3
L 2.7 5.3
Q 1.9 3.4 0.45 1.75
L 2.65 -0.35
M -4 -0.35
L -5.3 -0.35 -5.3 5.3 -4 5.3 -4 -0.35
M -5.25 -2.85
Q -5.45 -2.6 -5.45 -2.25 -5.45 -1.9 -5.25 -1.65 -5.05 -1.45 -4.65 -1.45 -4.3 -1.45 -4.05 -1.65 -3.85 -1.9 -3.85 -2.25 -3.85 -2.6 -4.05 -2.85 -4.3 -3.05 -4.65 -3.05 -5.05 -3.05 -5.25 -2.85
M -8.9 -0.5
Q -9.45 -0.5 -9.9 -0.25 -10.35 0.05 -10.6 0.45
L -10.6 -3.45 -11.9 -3.45 -11.9 5.3 -10.6 5.3 -10.6 1.45
Q -10.4 1.05 -10.05 0.85 -9.7 0.6 -9.3 0.6 -8.8 0.6 -8.55 0.9 -8.3 1.15 -8.3 1.65
L -8.3 5.3 -7 5.3 -7 1.5
Q -7 0.6 -7.5 0.05 -8 -0.5 -8.9 -0.5
M -14.2 -0.25
Q -14.7 -0.5 -15.4 -0.5 -16.4 -0.5 -16.95 -0.05 -17.55 0.4 -17.55 1.25 -17.55 2 -17.1 2.35 -16.65 2.7 -15.9 2.85
L -15.55 2.95
Q -14.95 3.05 -14.7 3.25 -14.45 3.4 -14.45 3.75 -14.45 4.05 -14.7 4.25 -14.95 4.45 -15.35 4.45 -15.85 4.45 -16.25 4.2 -16.6 4 -16.85 3.6
L -17.75 4.3
Q -17.4 4.9 -16.8 5.2 -16.2 5.45 -15.45 5.45 -14.45 5.45 -13.8 5 -13.2 4.5 -13.2 3.6 -13.2 2.25 -14.85 1.95
L -15.15 1.9
Q -15.8 1.75 -16.1 1.6 -16.35 1.45 -16.35 1.15 -16.35 0.85 -16.1 0.7 -15.85 0.55 -15.45 0.55 -14.7 0.55 -14.2 1.2
L -13.35 0.5
Q -13.7 0 -14.2 -0.25
M -26.85 -0.35
Q -26.3 -1.35 -25.35 -1.9 -24.45 -2.45 -23.3 -2.45 -22.25 -2.45 -21.5 -2 -20.7 -1.6 -20.3 -0.85 -19.85 -0.1 -19.85 0.9 -19.85 1.6 -20.05 2.1 -20.2 2.65 -20.55 3 -20.85 3.3 -21.2 3.3 -21.65 3.3 -21.65 2.75 -21.65 2.65 -21.6 2.6
L -21.2 -0.8 -22.15 -0.8 -22.35 -0.15
Q -22.5 -0.55 -22.85 -0.75 -23.2 -0.95 -23.75 -0.95 -24.45 -0.95 -24.95 -0.6 -25.5 -0.25 -25.8 0.45 -26.1 1.1 -26.1 1.95 -26.1 3.05 -25.6 3.65 -25.1 4.3 -24.25 4.3 -23.7 4.3 -23.25 4.05 -22.8 3.8 -22.55 3.4 -22.5 3.8 -22.2 4.05 -21.9 4.3 -21.4 4.3 -20.65 4.3 -20.05 3.85 -19.4 3.4 -19.05 2.65 -18.75 1.85 -18.75 0.85 -18.75 -0.45 -19.3 -1.45 -19.9 -2.4 -20.95 -2.95 -21.95 -3.5 -23.3 -3.5 -24.75 -3.5 -25.95 -2.85 -27.15 -2.2 -27.85 -0.95 -28.55 0.25 -28.55 1.95 -28.55 3.35 -28.05 4.45 -27.5 5.6 -26.4 6.25 -25.3 6.9 -23.7 6.9 -22.75 6.9 -21.85 6.65 -20.95 6.45 -20.3 6.05
L -20.7 5.1
Q -21.25 5.4 -22 5.6 -22.75 5.8 -23.6 5.8 -24.9 5.8 -25.75 5.3 -26.6 4.75 -27 3.9 -27.35 3 -27.35 1.95 -27.35 0.6 -26.85 -0.35
M -24.7 2.9
Q -24.95 2.55 -24.95 1.9 -24.95 1.1 -24.6 0.55 -24.2 0.05 -23.6 0.05 -23.1 0.05 -22.85 0.4 -22.6 0.75 -22.6 1.45 -22.6 2.25 -23 2.75 -23.35 3.25 -23.95 3.25 -24.45 3.25 -24.7 2.9 Z"/>
</g>

<g id="ping2_0_Layer1_0_FILL">
<path fill="#393D6B" stroke="none" d="
M 32 -6.4
Q 32 -8.4 30.05 -8.4
L -30 -8.4
Q -31.95 -8.4 -31.95 -6.4
L -31.95 6.85
Q -31.95 7.95 -31.35 8.45
L 31.4 8.45
Q 32 7.95 32 6.85
L 32 -6.4 Z"/>
</g>

<g id="_someone_0_Layer0_0_FILL">
<path fill="#C9CDFB" stroke="none" d="
M 59.6 12.35
Q 59.6 11.05 58.95 10.25 58.3 9.5 57.05 9.5 56.3 9.5 55.7 9.85 55.05 10.2 54.7 10.9 54.35 11.55 54.35 12.5 54.35 13.4 54.7 14.1 55.05 14.75 55.7 15.1 56.35 15.45 57.2 15.45 58 15.45 58.55 15.2 59.1 15 59.5 14.45
L 58.75 13.65
Q 58.45 14 58.1 14.2 57.75 14.4 57.25 14.4 56.6 14.4 56.15 14 55.75 13.55 55.65 12.85
L 59.6 12.85
Q 59.6 12.5 59.6 12.35
M 57.05 10.55
Q 57.65 10.55 58 10.9 58.35 11.2 58.4 11.85
L 55.7 11.85
Q 55.8 11.25 56.15 10.9 56.5 10.55 57.05 10.55
M 52.55 10
Q 52.1 9.5 51.2 9.5 50.65 9.5 50.2 9.75 49.75 10 49.5 10.45
L 49.4 9.65 48.2 9.65 48.2 15.3 49.5 15.3 49.5 11.45
Q 49.75 11.05 50.05 10.85 50.35 10.6 50.75 10.6 51.25 10.6 51.45 10.9 51.7 11.15 51.7 11.65
L 51.7 15.3 53 15.3 53 11.45
Q 53 10.55 52.55 10
M 46.5 10.85
Q 46.1 10.2 45.5 9.85 44.85 9.5 44.1 9.5 43.35 9.5 42.7 9.85 42.1 10.2 41.7 10.85 41.35 11.55 41.35 12.5 41.35 13.45 41.7 14.1 42.1 14.75 42.7 15.1 43.35 15.45 44.1 15.45 44.85 15.45 45.5 15.1 46.1 14.75 46.5 14.1 46.85 13.45 46.85 12.5 46.85 11.55 46.5 10.85
M 43.05 11.1
Q 43.45 10.6 44.1 10.6 44.75 10.6 45.15 11.1 45.55 11.55 45.55 12.5 45.55 13.4 45.15 13.85 44.75 14.35 44.1 14.35 43.45 14.35 43.05 13.85 42.65 13.4 42.65 12.5 42.65 11.55 43.05 11.1
M 37.85 9.5
Q 37.1 9.5 36.5 9.85 35.85 10.2 35.5 10.9 35.15 11.55 35.15 12.5 35.15 13.4 35.5 14.1 35.85 14.75 36.5 15.1 37.15 15.45 38 15.45 38.8 15.45 39.35 15.2 39.9 15 40.3 14.45
L 39.55 13.65
Q 39.25 14 38.9 14.2 38.55 14.4 38.05 14.4 37.4 14.4 36.95 14 36.55 13.55 36.45 12.85
L 40.4 12.85
Q 40.4 12.5 40.4 12.35 40.4 11.05 39.75 10.25 39.1 9.5 37.85 9.5
M 36.95 10.9
Q 37.3 10.55 37.85 10.55 38.45 10.55 38.8 10.9 39.15 11.2 39.2 11.85
L 36.5 11.85
Q 36.6 11.25 36.95 10.9
M 32.05 9.5
Q 31.45 9.5 31 9.75 30.5 10 30.25 10.45 30.05 10 29.65 9.75 29.25 9.5 28.6 9.5 28 9.5 27.65 9.75 27.25 9.95 27 10.4
L 26.9 9.65 25.7 9.65 25.7 15.3 27 15.3 27 11.4
Q 27.4 10.6 28.15 10.6 28.6 10.6 28.85 10.9 29.1 11.15 29.1 11.65
L 29.1 15.3 30.4 15.3 30.4 11.4
Q 30.85 10.6 31.55 10.6 32 10.6 32.25 10.9 32.5 11.15 32.5 11.65
L 32.5 15.3 33.85 15.3 33.85 11.4
Q 33.85 10.55 33.35 10.05 32.85 9.5 32.05 9.5
M 23 9.85
Q 22.35 9.5 21.6 9.5 20.85 9.5 20.2 9.85 19.6 10.2 19.2 10.85 18.85 11.55 18.85 12.5 18.85 13.45 19.2 14.1 19.6 14.75 20.2 15.1 20.85 15.45 21.6 15.45 22.35 15.45 23 15.1 23.6 14.75 24 14.1 24.35 13.45 24.35 12.5 24.35 11.55 24 10.85 23.6 10.2 23 9.85
M 21.6 10.6
Q 22.25 10.6 22.65 11.1 23.05 11.55 23.05 12.5 23.05 13.4 22.65 13.85 22.25 14.35 21.6 14.35 20.95 14.35 20.55 13.85 20.15 13.4 20.15 12.5 20.15 11.55 20.55 11.1 20.95 10.6 21.6 10.6
M 15 11.6
Q 14.75 11.45 14.75 11.15 14.75 10.85 15 10.7 15.25 10.55 15.65 10.55 16.4 10.55 16.9 11.2
L 17.75 10.5
Q 17.4 10 16.9 9.75 16.4 9.5 15.7 9.5 14.7 9.5 14.15 9.95 13.55 10.4 13.55 11.25 13.55 12 14 12.35 14.45 12.7 15.2 12.85
L 15.55 12.95
Q 16.15 13.05 16.4 13.25 16.65 13.4 16.65 13.75 16.65 14.05 16.4 14.25 16.15 14.45 15.75 14.45 15.25 14.45 14.85 14.2 14.5 14 14.25 13.6
L 13.35 14.3
Q 13.7 14.9 14.3 15.2 14.9 15.45 15.65 15.45 16.65 15.45 17.3 15 17.9 14.5 17.9 13.6 17.9 12.25 16.25 11.95
L 15.95 11.9
Q 15.3 11.75 15 11.6
M 12.35 10.85
Q 12.35 9.55 11.8 8.55 11.2 7.6 10.15 7.05 9.15 6.5 7.8 6.5 6.35 6.5 5.15 7.15 3.95 7.8 3.25 9.05 2.55 10.25 2.55 11.95 2.55 13.35 3.05 14.45 3.6 15.6 4.7 16.25 5.8 16.9 7.4 16.9 8.35 16.9 9.25 16.65 10.15 16.45 10.8 16.05
L 10.4 15.1
Q 9.85 15.4 9.1 15.6 8.35 15.8 7.5 15.8 6.2 15.8 5.35 15.3 4.5 14.75 4.1 13.9 3.75 13 3.75 11.95 3.75 10.6 4.25 9.65 4.8 8.65 5.75 8.1 6.65 7.55 7.8 7.55 8.85 7.55 9.6 8 10.4 8.4 10.8 9.15 11.25 9.9 11.25 10.9 11.25 11.6 11.05 12.1 10.9 12.65 10.55 13 10.25 13.3 9.9 13.3 9.45 13.3 9.45 12.75 9.45 12.65 9.5 12.6
L 9.9 9.2 8.95 9.2 8.75 9.85
Q 8.6 9.45 8.25 9.25 7.9 9.05 7.35 9.05 6.65 9.05 6.15 9.4 5.6 9.75 5.3 10.45 5 11.1 5 11.95 5 13.05 5.5 13.65 6 14.3 6.85 14.3 7.4 14.3 7.85 14.05 8.3 13.8 8.55 13.4 8.6 13.8 8.9 14.05 9.2 14.3 9.7 14.3 10.45 14.3 11.05 13.85 11.7 13.4 12.05 12.65 12.35 11.85 12.35 10.85
M 6.15 11.9
Q 6.15 11.1 6.5 10.55 6.9 10.05 7.5 10.05 8 10.05 8.25 10.4 8.5 10.75 8.5 11.45 8.5 12.25 8.1 12.75 7.75 13.25 7.15 13.25 6.65 13.25 6.4 12.9 6.15 12.55 6.15 11.9 Z"/>
</g>

<path id="mipper_0_Layer0_1_MEMBER_0_MEMBER_0_MEMBER_1_MEMBER_0_1_STROKES" stroke="#000000" stroke-width="2.95" stroke-linejoin="round" stroke-linecap="round" fill="none" d="
M 282.7 284.25
Q 287.1 297.75 293 309.9
L 304.45 309.9
Q 309.2 308.55 313.4 303.05 313.35 289.8 319.55 284.1
L 328.05 284.1
Q 332.7 287.25 334.75 290.8
L 334.75 304.95
Q 327.35 319.95 320.6 323.9 313.85 327.85 310.15 327.5
L 288.35 327.5
Q 279.1 321.95 274.4 310.65 269.7 299.3 273.3 287.6 276.9 275.8 282.7 284.25 Z"/>

<path id="mipper_0_Layer0_1_MEMBER_0_MEMBER_0_MEMBER_2_MEMBER_0_1_STROKES" stroke="#000000" stroke-width="14.9" stroke-linejoin="round" stroke-linecap="round" fill="none" d="
M 145.45 130.4
L 455 130.4
Q 470.1 130.4 470.1 145.5
L 470.1 455.05
Q 470.1 470.15 455 470.15
L 145.45 470.15
Q 130.35 470.15 130.35 455.05
L 130.35 145.5
Q 130.35 130.4 145.45 130.4 Z"/>
</defs>

<g transform="matrix( 1, 0, 0, 1, 0,0) ">
<use xlink:href="#Layer8_0_FILL"/>
</g>

<mask id="Mask_Mask_1">
<g transform="matrix( 1, 0, 0, 1, 0,0) ">
<use xlink:href="#Mask_7_MASK_0_FILL"/>
</g>
</mask>

<g mask="url(#Mask_Mask_1)">
<g transform="matrix( 0.062286376953125, 0, 0, 0.062286376953125, 8.3,17.05) ">
<g transform="matrix( 1, 0, 0, 1, -2,-2) ">
<mask id="Mask_Mask_2">
<g transform="matrix( 1, 0, 0, 1, 0,0) ">
<use xlink:href="#Mask_mipper_svg_Layer_1__Clip_Group__0_2_MASK_0_FILL"/>
</g>
</mask>

<g mask="url(#Mask_Mask_2)">
<g transform="matrix( -1, 0, 0, -1, 604,604) ">
<use xlink:href="#mipper_svg_Layer_1__Clip_Group__0_Layer2_0_MEMBER_0_MEMBER_0_MEMBER_0_MEMBER_0_FILL"/>
</g>
</g>
</g>

<g transform="matrix( 1, 0, 0, 1, 0,0) ">
<use xlink:href="#mipper_0_Layer0_1_MEMBER_0_MEMBER_0_MEMBER_0_MEMBER_0_MEMBER_0_FILL"/>
</g>

<g transform="matrix( 1, 0, 0, 1, 0,0) ">
<use xlink:href="#mipper_0_Layer0_1_MEMBER_0_MEMBER_0_MEMBER_1_MEMBER_0_1_STROKES"/>
</g>

<g transform="matrix( 1, 0, 0, 1, 0,0) ">
<use xlink:href="#mipper_0_Layer0_1_MEMBER_0_MEMBER_0_MEMBER_2_MEMBER_0_1_STROKES"/>
</g>

<g transform="matrix( 1, 0, 0, 1, 0,0) ">
<use xlink:href="#mipper_0_Layer0_1_MEMBER_1_MEMBER_0_MEMBER_0_MEMBER_0_MEMBER_0_MEMBER_0_FILL"/>
</g>

<g transform="matrix( 1, 0, 0, 1, 0,0) ">
<use xlink:href="#mipper_0_Layer0_1_MEMBER_1_MEMBER_1_MEMBER_0_MEMBER_0_MEMBER_0_MEMBER_0_FILL"/>
</g>
</g>
</g>

<g transform="matrix( 1, 0, 0, 1, 0,0) ">
<use xlink:href="#Layer5_0_FILL"/>
</g>

<g transform="matrix( 1, 0, 0, 1, 0,0) ">
<use xlink:href="#Layer4_0_FILL"/>
</g>

<g transform="matrix( 1, 0, 0, 1, 119,26) ">
<g transform="matrix( 1, 0, 0, 1, 0,0) ">
<use xlink:href="#_______1_0_Layer1_0_FILL"/>
</g>

<g transform="matrix( 1, 0, 0, 1, -8.05,-3.25) ">
<g transform="matrix( 1, 0, 0, 1, 0,0) ">
<use xlink:href="#bot_tag_text_0_Layer0_0_FILL"/>
</g>
</g>
</g>

<g transform="matrix( 0.4411773681640625, 0, 0, 0.4411773681640625, 74.05,56.4) ">
<g transform="matrix( 1, 0, 0, 1, 0,-1) ">
<use xlink:href="#ghost_0_Layer0_0_FILL"/>
</g>

<g transform="matrix( 1, 0, 0, 1, 0,-1) ">
<use xlink:href="#ghost_0_Layer0_1_FILL"/>
</g>

<g transform="matrix( 1, 0, 0, 1, 0,-1) ">
<use xlink:href="#ghost_0_Layer0_2_FILL"/>
</g>

<g transform="matrix( 1, 0, 0, 1, 0,-1) ">
<use xlink:href="#ghost_0_Layer0_3_FILL"/>
</g>

<g transform="matrix( 1, 0, 0, 1, 0,-1) ">
<use xlink:href="#ghost_0_Layer0_4_FILL"/>
</g>
</g>

<g transform="matrix( 1, 0, 0, 1, 0,0) ">
<use xlink:href="#Layer2_0_FILL"/>
</g>

<g transform="matrix( 1, 0, 0, 1, 0,0) ">
<use xlink:href="#Layer1_0_FILL"/>
</g>

<g transform="matrix( 1, 0, 0, 1, 198,87.5) ">
<g transform="matrix( 1, 0, 0, 1, 0,0) ">
<use xlink:href="#ping1_0_Layer1_0_FILL"/>
</g>

<g transform="matrix( 1, 0, 0, 1, -1.1,-1.7) ">
<g transform="matrix( 1, 0, 0, 1, 0,0) ">
<use xlink:href="#_shikoshib_0_Layer0_0_FILL"/>
</g>
</g>
</g>

<g transform="matrix( 1, 0, 0, 1, 203,103.45) ">
<g transform="matrix( 1, 0, 0, 1, 0,0) ">
<use xlink:href="#ping2_0_Layer1_0_FILL"/>
</g>

<g transform="matrix( 1, 0, 0, 1, -31.05,-11.7) ">
<g transform="matrix( 1, 0, 0, 1, 0,0) ">
<use xlink:href="#_someone_0_Layer0_0_FILL"/>
</g>
</g>
</g>
</svg>
