
<svg xmlns="http://www.w3.org/2000/svg" version="1.1" xmlns:xlink="http://www.w3.org/1999/xlink" preserveAspectRatio="none" x="0px" y="0px" width="1024px" height="1024px" viewBox="0 0 144 144">
<defs>
<g id="neocube_0_Layer2_0_FILL">
<path fill="#000000" stroke="none" d="
M -44.45 -21.45
Q -47.8 -18.05 -47.8 -13.3 -47.8 -8.55 -44.45 -5.2 -41.05 -1.8 -36.3 -1.8 -31.55 -1.8 -28.2 -5.2 -24.8 -8.55 -24.8 -13.3 -24.8 -18.05 -28.2 -21.45 -31.55 -24.8 -36.3 -24.8 -41.05 -24.8 -44.45 -21.45
M 36.35 -24.8
Q 31.6 -24.8 28.2 -21.45 24.85 -18.05 24.85 -13.3 24.85 -8.55 28.2 -5.2 31.6 -1.8 36.35 -1.8 41.1 -1.8 44.45 -5.2 47.85 -8.55 47.85 -13.3 47.85 -18.05 44.45 -21.45 41.1 -24.8 36.35 -24.8 Z"/>
</g>

<g id="neocube_0_Layer1_0_FILL">
<path fill="#FFFFFF" stroke="none" d="
M -29.6 -16.85
Q -29.6 -18.8 -30.95 -20.15 -32.3 -21.5 -34.25 -21.5 -36.2 -21.5 -37.55 -20.15 -38.9 -18.8 -38.9 -16.85 -38.9 -14.9 -37.55 -13.55 -36.2 -12.2 -34.25 -12.2 -32.3 -12.2 -30.95 -13.55 -29.6 -14.9 -29.6 -16.85
M 38.4 -21.5
Q 36.45 -21.5 35.1 -20.15 33.75 -18.8 33.75 -16.85 33.75 -14.9 35.1 -13.55 36.45 -12.2 38.4 -12.2 40.35 -12.2 41.7 -13.55 43.05 -14.9 43.05 -16.85 43.05 -18.8 41.7 -20.15 40.35 -21.5 38.4 -21.5 Z"/>
</g>

<g id="neocube_0_Layer0_0_FILL">
<path fill="#000000" stroke="none" d="
M -4.85 -1.2
Q -4.9 -1.3 -5.4 -3.7 -5.5 -4.6 -5.85 -5.25 -6.25 -6.15 -7.1 -6.55 -7.95 -7 -8.75 -6.75 -9.55 -6.5 -10.1 -5.65 -10.7 -4.8 -10.75 -3.75 -10.8 -3.4 -10.6 -2.1
L -9.65 1.8
Q -8.9 4.4 -7.2 6.3 -5.5 8.25 -3.4 9 -2.7 9.25 -2.2 9.35 -1.7 9.4 -2.05 9.4
L -0.75 9.5
Q 0.9 9.6 1.2 9.55 2.5 9.35 3.4 9.05 5.5 8.3 7.2 6.35 8.9 4.45 9.65 1.85
L 10.6 -2.05
Q 10.8 -3.35 10.75 -3.7 10.7 -4.75 10.1 -5.6 9.55 -6.45 8.75 -6.7 7.95 -6.95 7.1 -6.5 6.25 -6.1 5.85 -5.2 5.5 -4.55 5.4 -3.65 4.9 -1.25 4.85 -1.15 4.5 0.25 3.9 1.05 2.75 2.6 0.3 2.95 0.1 2.9 -0.15 2.9 -2.7 2.6 -3.9 1 -4.5 0.2 -4.85 -1.2 Z"/>
</g>

<path id="neocube_0_Layer2_0_1_STROKES" stroke="#000000" stroke-width="5" stroke-linejoin="round" stroke-linecap="round" fill="none" d="
M -51.85 -56.9
L 51.9 -56.9
Q 56.95 -56.9 56.95 -51.85
L 56.95 51.9
Q 56.95 56.95 51.9 56.95
L -51.85 56.95
Q -56.9 56.95 -56.9 51.9
L -56.9 -51.85
Q -56.9 -56.9 -51.85 -56.9 Z"/>
</defs>

<g transform="matrix( 1.2029876708984375, 0, 0, 1.2029876708984375, 72,72) ">
<g transform="matrix( 1, 0, 0, 1, 0,0) ">
<use xlink:href="#neocube_0_Layer2_0_FILL"/>

<use xlink:href="#neocube_0_Layer2_0_1_STROKES"/>
</g>

<g transform="matrix( 1, 0, 0, 1, 0,0) ">
<use xlink:href="#neocube_0_Layer1_0_FILL"/>
</g>

<g transform="matrix( 1, 0, 0, 1, 0,0) ">
<use xlink:href="#neocube_0_Layer0_0_FILL"/>
</g>
</g>
</svg>
