
<svg xmlns="http://www.w3.org/2000/svg" version="1.1" xmlns:xlink="http://www.w3.org/1999/xlink" preserveAspectRatio="none" x="0px" y="0px" width="48px" height="48px" viewBox="0 0 48 48">
<defs>
<g id="Layer0_0_MEMBER_0_FILL">
<path fill="#5865f2" stroke="none" d="
M 47.75 36.3
Q 49.15 21.3 40.65 8.5 35.8 6.25 30.75 5.35 30.1 6.5 29.45 8 23.9 7.2 18.5 8 17.85 6.5 17.2 5.35 12.15 6.25 7.3 8.5 -1.1 21.25 0.2 36.3 5.9 40.55 12.3 42.5 13.55 40.9 14.95 38.25 12.85 37.45 10.85 36.25
L 11.85 35.45
Q 17.8 38.25 24 38.25 30.25 38.25 36.1 35.45
L 37.1 36.25
Q 35.2 37.4 33 38.25 34.05 40.35 35.6 42.55 42.1 40.5 47.75 36.3
M 28.9 22.35
Q 30.15 20.9 31.95 20.9 33.75 20.9 35 22.35 36.3 23.8 36.25 25.8 36.25 27.85 35 29.25 33.75 30.7 31.95 30.7 30.2 30.7 28.9 29.25 27.65 27.8 27.65 25.8 27.65 23.75 28.9 22.35
M 16 20.9
Q 17.8 20.9 19.05 22.35 20.35 23.8 20.3 25.8 20.3 27.85 19.05 29.25 17.8 30.7 16 30.7 14.25 30.7 12.95 29.25 11.7 27.8 11.7 25.8 11.7 23.75 12.95 22.35 14.2 20.9 16 20.9 Z"/>
</g>
</defs>

<g id="discord_svg">
<g transform="matrix( 0.6670074462890625, 0, 0, 0.6680145263671875, 8,8.05) ">
<use xlink:href="#Layer0_0_MEMBER_0_FILL"/>
</g>
</g>
</svg>
