
<svg xmlns="http://www.w3.org/2000/svg" version="1.1" xmlns:xlink="http://www.w3.org/1999/xlink" preserveAspectRatio="none" x="0px" y="0px" width="48px" height="48px" viewBox="0 0 48 48">
<defs>
<g id="_______1_0_Layer0_0_FILL">
<path fill="#FF0000" stroke="none" d="
M 162.85 72.05
L 163.2 57.15
Q 163.2 49.95 162.85 42.25 161.95 25.7 159.85 17.85 158.35 12.55 154.55 8.7 150.55 4.8 145.35 3.45 137.4 1.3 108.7 0.45
L 81.55 0
Q 68.85 0 54.45 0.45 25.8 1.25 17.75 3.45 12.5 4.85 8.6 8.7 4.75 12.65 3.4 17.85 1.3 25.4 0.4 42.25 0 49.6 0 57.15
L 0.4 72.05
Q 1.3 88.9 3.4 96.5 4.7 101.6 8.6 105.65 12.45 109.45 17.75 110.9 25.8 113 54.45 113.9 69.8 114.3 81.55 114.3
L 108.7 113.9
Q 137.4 113 145.35 110.9 150.55 109.5 154.55 105.65 158.35 101.7 159.85 96.5 161.95 88.55 162.85 72.05
M 65.2 81.65
L 65.2 32.7 107.65 57.2 65.2 81.65 Z"/>
</g>
</defs>

<g transform="matrix( 0.195770263671875, 0, 0, 0.19573974609375, 8.05,12.85) ">
<g transform="matrix( 1, 0, 0, 1, 0,0) ">
<use xlink:href="#_______1_0_Layer0_0_FILL"/>
</g>
</g>
</svg>
